<svg width="41" height="30" viewBox="0 0 41 30" fill="none" xmlns="http://www.w3.org/2000/svg">
<path d="M3.34601 0.081934C2.01296 0.305439 0.775694 1.35911 0.224913 2.74804L0.033337 3.22697L0.00939003 13.3805C-0.014557 24.5238 -0.0305217 24.0609 0.464383 25.0427C0.935341 25.9766 1.84533 26.7429 2.84312 27.0543C3.11452 27.1341 3.6653 27.2299 4.06442 27.2618L4.78283 27.3177V27.7966C4.78283 28.507 4.92651 28.8742 5.3815 29.3452C5.96421 29.9439 6.3314 30.0317 8.03962 29.9918C9.34074 29.9678 9.38065 29.9598 9.80372 29.7283C10.5062 29.3452 10.8095 28.8183 10.8973 27.8605L10.9532 27.2937H20.4282H29.9032L29.9591 27.8605C30.0469 28.8183 30.3503 29.3452 31.0527 29.7283C31.4758 29.9598 31.5157 29.9678 32.8168 29.9918C34.525 30.0317 34.8922 29.9439 35.4749 29.3452C35.9299 28.8742 36.0736 28.507 36.0736 27.7966V27.3177L36.792 27.2618C37.1911 27.2299 37.7419 27.1341 38.0133 27.0543C39.0111 26.7429 39.9211 25.9766 40.392 25.0427C40.879 24.0768 40.863 24.5079 40.863 13.6759C40.863 7.29797 40.8311 3.61811 40.7832 3.33873C40.4798 1.7263 39.051 0.33737 37.4306 0.0739517C36.776 -0.0298176 3.98459 -0.0218353 3.34601 0.081934ZM37.8377 1.59858C38.4683 1.89392 38.8993 2.31699 39.2027 2.93163L39.4661 3.46645V13.6439V23.8214L39.2426 24.3003C38.9632 24.907 38.3645 25.4658 37.7658 25.7132L37.3108 25.8968L20.8273 25.9208C10.8574 25.9287 4.12828 25.9128 3.801 25.8649C2.79523 25.7212 2.07682 25.2263 1.65375 24.3562L1.39033 23.8214V13.6439V3.46645L1.59787 3.01943C1.98901 2.19725 2.7154 1.59858 3.52162 1.43893C3.71319 1.39902 11.4082 1.37507 20.6278 1.38305L37.3907 1.39104L37.8377 1.59858ZM9.49241 27.7727C9.49241 28.5869 9.28487 28.6826 7.58463 28.6348C6.53894 28.6108 6.52298 28.6108 6.3314 28.3873C6.17974 28.2117 6.13982 28.076 6.13982 27.7248V27.2937H7.81612H9.49241V27.7727ZM34.7166 27.7248C34.7166 28.076 34.6767 28.2117 34.525 28.3873C34.3334 28.6108 34.3175 28.6108 33.2718 28.6348C31.5716 28.6826 31.364 28.5869 31.364 27.7727V27.2937H33.0403H34.7166V27.7248Z" fill="black"/>
<path d="M12.6693 2.79603C8.42272 3.1712 4.76681 5.99695 3.35394 9.9961C1.54195 15.1287 3.78498 20.8201 8.59833 23.2867C9.62007 23.8135 10.8334 24.2206 11.8871 24.3883C13.1084 24.5798 15.064 24.508 16.1656 24.2286C19.8454 23.3027 22.759 20.6366 23.9324 17.1163C24.3634 15.8232 24.4592 15.1766 24.4592 13.644C24.4592 12.1114 24.3634 11.4648 23.9324 10.1717C22.759 6.65948 19.8295 3.96145 16.1975 3.05945C15.543 2.8998 13.8587 2.68428 13.4835 2.71621C13.4197 2.72419 13.0525 2.75612 12.6693 2.79603ZM14.6569 4.18496C17.5306 4.40048 20.4361 6.30826 21.9288 8.97436C23.214 11.2733 23.4934 14.1309 22.6632 16.6135C21.841 19.0561 20.1248 21.0277 17.8179 22.1851C14.8246 23.6778 11.0569 23.4224 8.27904 21.5386C6.73047 20.4849 5.46926 18.9204 4.78278 17.2121C2.83509 12.3269 5.14198 6.83509 9.99524 4.83153C11.1367 4.35258 12.8529 4.03329 13.8028 4.11312C13.9545 4.12908 14.3376 4.16101 14.6569 4.18496Z" fill="black"/>
<path d="M12.5896 5.65363C11.6238 5.96494 10.9852 6.51572 10.6898 7.31396C10.3785 8.14412 10.5462 8.87849 11.2247 9.65278C11.5519 10.0359 11.7435 10.3153 11.8313 10.5548C11.8792 10.6745 11.8313 10.6665 11.5439 10.4909C10.2827 9.70866 8.75013 9.46919 7.69646 9.88427C6.67472 10.2914 5.71684 11.6404 5.49333 12.9734C5.38158 13.6759 5.49333 14.4581 5.81263 15.1366C6.12394 15.7832 6.45919 16.1504 7.03392 16.4378C7.43304 16.6293 7.61663 16.6772 8.04768 16.6772C8.6703 16.6772 9.05345 16.5176 9.58029 16.0626C9.97941 15.7194 10.5222 15.3602 10.5701 15.416C10.5861 15.432 10.4424 15.7513 10.2508 16.1344C9.34082 17.9544 9.4845 19.6147 10.6579 20.6524C12.0309 21.8817 13.9706 22.1372 15.4234 21.283C16.1737 20.844 16.6766 19.9979 16.6766 19.1917C16.6766 18.6329 16.493 18.1939 16.0939 17.7469C15.7985 17.4196 15.3036 16.6693 15.3515 16.6214C15.3595 16.6054 15.591 16.7251 15.8464 16.8768C16.9959 17.5713 18.5125 17.7868 19.5103 17.3956C20.5001 17.0125 21.466 15.7194 21.7134 14.4581C22.0886 12.4865 20.8354 10.5707 19.1591 10.5787C18.5365 10.5787 18.1613 10.7464 17.5546 11.2892C17.1555 11.6404 16.6926 11.9277 16.6287 11.8639C16.6127 11.8479 16.7165 11.6324 16.8602 11.3849C17.6025 10.1557 17.7702 8.55122 17.2753 7.52948C16.8841 6.73923 15.8544 5.95696 14.7688 5.62968C14.1861 5.46205 13.1723 5.47004 12.5896 5.65363ZM14.6331 7.01861C15.1599 7.21817 15.6309 7.55343 15.9262 7.94456C16.3733 8.52727 16.2376 9.85234 15.6469 10.7863L15.4074 11.1614L14.9604 10.914C14.6171 10.7304 14.3617 10.6586 13.9067 10.6186L13.316 10.5707L13.1324 10.1237C12.9409 9.6448 12.7652 9.3734 12.2304 8.71087C11.8553 8.23991 11.8233 8.09622 12.0149 7.68913C12.3581 6.96273 13.6114 6.64344 14.6331 7.01861ZM9.55634 11.1295C10.0433 11.2492 10.9533 11.6563 11.0411 11.8C11.065 11.8399 10.9772 12.1113 10.8415 12.3987C10.6499 12.7978 10.594 13.0453 10.5861 13.4444L10.5701 13.9632L10.2907 14.051C9.86765 14.1867 9.24503 14.5619 8.83793 14.9211C8.29513 15.3921 8.11154 15.44 7.66453 15.2245C7.3612 15.0728 7.25743 14.9531 7.05787 14.5619C6.86629 14.1708 6.82638 13.9952 6.82638 13.5242C6.82638 12.5184 7.51286 11.4089 8.30311 11.1215C8.6703 10.9858 8.95767 10.9938 9.55634 11.1295ZM19.646 12.0954C20.1329 12.3428 20.4762 13.2049 20.3964 13.9792C20.2926 14.969 19.5662 15.9987 18.8318 16.1983C18.4327 16.3021 17.8739 16.2462 17.2433 16.0307C16.7484 15.8551 16.0939 15.4959 16.1338 15.416C16.485 14.7615 16.6207 14.3544 16.6686 13.8675C16.7165 13.3087 16.7165 13.3087 17.0118 13.2129C17.4189 13.0692 17.9298 12.7579 18.4008 12.3668C18.9994 11.8639 19.1272 11.832 19.646 12.0954ZM14.3537 12.1193C16.038 12.9814 15.3276 15.4639 13.4437 15.3043C12.0229 15.1845 11.4082 13.3726 12.4619 12.3907C12.9169 11.9597 13.795 11.8399 14.3537 12.1193ZM13.3639 16.6613C13.763 16.6852 13.9626 16.7331 13.9626 16.797C13.9626 17.0125 14.5453 18.0263 14.9205 18.4573C15.2238 18.8165 15.3196 18.9841 15.3196 19.1837C15.3196 20.1017 13.8668 20.7083 12.6695 20.2853C12.0708 20.0697 11.528 19.6946 11.2646 19.2875C11.073 19.0001 11.049 18.8883 11.057 18.3216C11.065 17.6351 11.2087 17.1562 11.5998 16.4936L11.7994 16.1424L12.2863 16.3819C12.6455 16.5655 12.9169 16.6293 13.3639 16.6613Z" fill="black"/>
<path d="M33.5911 3.65794C33.4554 3.80162 33.3596 3.97723 33.3596 4.10495C33.3596 4.23267 33.4554 4.40828 33.5911 4.55196L33.8226 4.78345H35.435C37.0315 4.78345 37.0395 4.78345 37.2311 4.58389C37.3668 4.45617 37.4306 4.30451 37.4306 4.10495C37.4306 3.90539 37.3668 3.75373 37.2311 3.62601C37.0395 3.42645 37.0315 3.42645 35.435 3.42645H33.8226L33.5911 3.65794Z" fill="black"/>
<path d="M33.5911 6.37205C33.4554 6.51573 33.3596 6.69134 33.3596 6.81906C33.3596 7.12239 33.7587 7.49756 34.078 7.49756C34.565 7.49756 34.9082 6.83502 34.6128 6.45187C34.3335 6.08468 33.9104 6.05276 33.5911 6.37205Z" fill="black"/>
<path d="M36.345 6.33214C35.882 6.72327 36.1854 7.49756 36.8 7.49756C37.255 7.49756 37.5583 6.97072 37.3827 6.49977C37.3189 6.3481 36.9437 6.14056 36.7202 6.14056C36.6324 6.14056 36.4647 6.22837 36.345 6.33214Z" fill="black"/>
<path d="M27.6122 8.9582C27.1972 9.16574 27.1333 9.66863 27.4686 10.0278L27.6362 10.2114H32.3378H37.0394L37.231 10.0119C37.5662 9.68459 37.4784 9.17372 37.0554 8.95022C36.7999 8.80653 27.8916 8.81452 27.6122 8.9582Z" fill="black"/>
<path d="M27.6042 11.6883C27.1971 11.9118 27.1332 12.3748 27.4765 12.7419L27.6361 12.9255H32.3697H37.1032L37.2628 12.718C37.4943 12.4226 37.4784 12.0395 37.2229 11.8L37.0154 11.6085L32.4175 11.5925C28.586 11.5765 27.7798 11.5925 27.6042 11.6883Z" fill="black"/>
<path d="M27.7081 14.3703C27.5245 14.4262 27.4048 14.53 27.317 14.7216C27.1893 14.985 27.1893 15.0169 27.317 15.2803C27.4128 15.4879 27.5165 15.5677 27.764 15.6395C27.9875 15.6954 29.5361 15.7194 32.5534 15.7034L37.0155 15.6794L37.2231 15.4879C37.5104 15.2165 37.5104 14.7854 37.2231 14.514L37.0155 14.3225L32.4975 14.3065C29.7835 14.2985 27.8678 14.3225 27.7081 14.3703Z" fill="black"/>
<path d="M27.5086 17.188C27.4367 17.2439 27.3329 17.4036 27.285 17.5393C27.1813 17.8506 27.3489 18.2098 27.6682 18.3455C27.8358 18.4093 29.121 18.4333 32.4576 18.4173L37.0155 18.3934L37.2231 18.2018C37.4785 17.9623 37.4945 17.5792 37.263 17.2838L37.1033 17.0763H32.3778C28.5702 17.0843 27.6283 17.1002 27.5086 17.188Z" fill="black"/>
<path d="M27.4527 19.9898C27.1972 20.2612 27.1972 20.6843 27.4367 20.9317L27.6203 21.1073L32.1862 21.1313C34.6926 21.1393 36.8319 21.1313 36.9277 21.1073C37.4226 20.9876 37.5982 20.349 37.231 19.9898L37.0394 19.7903H32.3378H27.6362L27.4527 19.9898Z" fill="black"/>
<path d="M27.4847 22.6959C27.1734 22.9593 27.1734 23.4063 27.4847 23.6698L27.7002 23.8613H32.2901C37.1353 23.8613 37.2471 23.8533 37.3828 23.5021C37.4866 23.2227 37.4307 22.8955 37.2311 22.7039L37.0396 22.5043H32.3699H27.7002L27.4847 22.6959Z" fill="black"/>
</svg>
