<svg width="29" height="30" viewBox="0 0 29 30" fill="none" xmlns="http://www.w3.org/2000/svg">
<path d="M12.2427 0.0862875C12.0374 0.227058 10.7881 1.76381 10.6415 2.05121C10.5476 2.23304 10.4948 2.45006 10.4772 2.76093C10.4479 3.30642 10.5417 3.63489 10.8761 4.12758C11.1048 4.46191 11.1459 4.59682 11.1166 4.95461C11.099 5.16577 11.0462 5.26548 10.7764 5.61741C10.5359 5.92828 10.5417 6.15703 10.794 6.37405C11.052 6.60867 11.316 6.52655 11.6444 6.1277C11.9788 5.70539 12.1313 5.30654 12.1313 4.80798C12.1254 4.32114 12.0257 4.02201 11.6914 3.54104C11.4626 3.20671 11.404 2.82545 11.5389 2.52045C11.5858 2.40901 11.9319 1.9515 12.3072 1.50573C12.8645 0.837065 12.9876 0.655236 12.9876 0.5086C12.9818 0.109749 12.5536 -0.130734 12.2427 0.0862875Z" fill="black"/>
<path d="M15.2867 0.0393438C15.14 0.0979986 13.7323 1.84004 13.615 2.10398C13.5505 2.25062 13.486 2.54976 13.4684 2.76678C13.4332 3.24775 13.5387 3.60554 13.8672 4.10997C14.2426 4.69651 14.2367 5.00738 13.832 5.54114C13.615 5.82268 13.5681 6.04556 13.6854 6.26259C13.7851 6.44442 13.9669 6.52653 14.1957 6.48547C14.6063 6.40336 15.1576 5.44729 15.1576 4.80795C15.1576 4.47362 14.9699 3.934 14.7294 3.58794C14.3892 3.08938 14.3716 2.69053 14.6708 2.29168C14.7588 2.17437 15.0872 1.76965 15.404 1.3884C15.8908 0.801852 15.9788 0.666947 15.9788 0.490983C15.9788 0.139056 15.621 -0.0955615 15.2867 0.0393438Z" fill="black"/>
<path d="M18.2783 0.0393424C18.1316 0.0979967 16.7767 1.79898 16.6359 2.09812C16.3368 2.74918 16.4131 3.42957 16.8588 4.08064C17.2459 4.64959 17.2459 4.99565 16.8588 5.51181C16.5362 5.93999 16.5421 6.25672 16.8647 6.42095C17.1345 6.56759 17.2694 6.52653 17.551 6.23912C18.2607 5.49421 18.3369 4.47362 17.7386 3.59967C17.2753 2.91928 17.3339 2.67879 18.1903 1.65234C18.5305 1.24176 18.8531 0.860505 18.9 0.801851C18.9528 0.743196 18.988 0.602426 18.988 0.479251C18.9763 0.13319 18.6126 -0.0955629 18.2783 0.0393424Z" fill="black"/>
<path d="M12.0197 7.38869C7.99015 7.64677 4.62924 8.36235 2.48835 9.41813C1.28007 10.0164 0.564487 10.6264 0.153905 11.4007C0.00140363 11.6939 -0.00446182 11.7174 0.00140363 12.7556C0.00726908 13.6589 0.0248654 13.9169 0.159771 14.5445C0.687661 17.0667 1.99566 19.3073 3.80222 20.8088C4.09549 21.0493 4.3477 21.2722 4.35357 21.3015C4.3653 21.325 3.80222 22.4453 3.10423 23.7826C1.71998 26.4455 1.69065 26.5159 1.86075 27.1025C2.04845 27.7418 2.60566 28.1524 3.27433 28.1524C3.69077 28.1524 4.12482 27.9706 4.37703 27.7066C4.46501 27.6128 5.09262 26.469 5.77301 25.161C6.45927 23.853 7.02235 22.7796 7.02821 22.7738C7.03408 22.762 7.35668 22.8676 7.7438 22.9967C9.05766 23.4424 10.7059 23.8002 11.9024 23.8999C12.1312 23.9175 12.4538 23.9469 12.6239 23.9645L12.9289 23.9938V26.2754C12.9289 27.7066 12.9523 28.6685 12.9934 28.8562C13.0755 29.2316 13.3453 29.5894 13.7207 29.824C13.9729 29.9765 14.055 30 14.448 30C14.8293 30 14.9348 29.9765 15.1636 29.8416C15.4745 29.6598 15.7032 29.4135 15.8499 29.0967C15.932 28.909 15.9496 28.5864 15.9672 26.4397L15.9848 23.9938L16.2898 23.9645C16.4599 23.9469 16.7825 23.9175 17.0053 23.8999C18.2136 23.7944 19.8325 23.4483 21.1112 23.0142C21.5335 22.8735 21.8795 22.7796 21.8913 22.8031C22.0262 23.1609 24.3606 27.4896 24.519 27.6773C25.0879 28.3401 26.0323 28.3694 26.654 27.7418C26.871 27.5306 26.9649 27.3781 27.0411 27.1259C27.223 26.4983 27.2347 26.5335 25.3695 22.9908L24.4897 21.3191L24.736 21.1138C26.959 19.2545 28.2318 17.1312 28.7773 14.3979C28.8829 13.8876 28.9063 13.5357 28.9122 12.7262V11.6998L28.7069 11.3185C28.4488 10.8434 27.9268 10.3038 27.3696 9.94016C25.4281 8.68495 22.0086 7.80513 17.7092 7.44734C16.6886 7.35936 13.0462 7.32417 12.0197 7.38869ZM16.6827 8.38581C21.6215 8.65562 25.7449 9.74073 27.2992 11.1836C28.1028 11.9285 28.1614 12.5444 27.4928 13.26C27.1232 13.6589 26.6657 13.9639 25.868 14.3451C22.1083 16.1399 14.8996 16.791 8.68814 15.8877C5.25098 15.3892 2.46489 14.3862 1.41498 13.26C0.746316 12.5444 0.804971 11.9285 1.60854 11.1836C3.67904 9.26563 10.2953 8.03975 16.6827 8.38581ZM1.6496 14.744C3.57933 15.9816 6.89917 16.8145 11.4332 17.1957C12.5476 17.2896 16.3719 17.2837 17.5039 17.1957C21.9734 16.8262 25.3343 15.9816 27.2582 14.744C27.4752 14.6032 27.6687 14.4859 27.6863 14.4859C27.7743 14.4859 27.4283 15.6824 27.1408 16.3628C26.654 17.5066 25.9971 18.492 25.0762 19.4305C23.604 20.9379 21.8092 21.8939 19.2929 22.4922C18.3837 22.7092 17.5391 22.85 16.8294 22.9028C16.5713 22.9204 16.278 22.9497 16.1783 22.9673L15.9965 22.9908L15.9672 22.3339C15.932 21.6007 15.8616 21.3661 15.5624 21.0259C14.9818 20.3689 13.926 20.3689 13.3453 21.0259C13.0403 21.3719 12.9699 21.6007 12.9406 22.3163L12.9171 22.9673L12.3775 22.9204C9.05766 22.6447 6.31849 21.6417 4.35943 19.9701C3.11009 18.9026 2.05431 17.3013 1.49709 15.6238C1.26248 14.9199 1.1569 14.4859 1.22142 14.4859C1.23901 14.4859 1.43257 14.6032 1.6496 14.744ZM14.7765 21.6652C14.8586 21.7473 14.929 21.9057 14.9524 22.0582C14.97 22.199 14.9818 23.7416 14.97 25.4836C14.9524 28.3987 14.9466 28.6685 14.8469 28.8152C14.6416 29.126 14.2075 29.0909 14.0257 28.7389C13.9318 28.5512 13.926 28.2873 13.9377 25.1727L13.9553 21.806L14.1195 21.6652C14.3307 21.4834 14.5946 21.4834 14.7765 21.6652ZM5.69676 22.1051C5.91378 22.2341 6.08974 22.3573 6.08388 22.3866C6.04282 22.5626 3.69077 26.9676 3.59106 27.0555C3.43269 27.1904 3.10423 27.1846 2.95759 27.0379C2.77576 26.8561 2.7523 26.645 2.87547 26.3927C3.3975 25.3487 5.22165 21.8822 5.25685 21.8764C5.27444 21.8764 5.47387 21.9819 5.69676 22.1051ZM24.9061 24.2636C26.2669 26.8678 26.261 26.862 25.8739 27.1025C25.6393 27.2432 25.5337 27.2432 25.346 27.0966C25.1818 26.9617 22.7359 22.3339 22.818 22.3045C22.8473 22.2928 23.0292 22.1931 23.2227 22.0875C23.4163 21.9819 23.5981 21.8939 23.6274 21.8998C23.6568 21.9057 24.2316 22.9732 24.9061 24.2636Z" fill="black"/>
<path d="M10.1546 11.5941C8.73518 13.0077 7.54449 14.2394 7.5093 14.3274C7.3568 14.6676 7.59142 15.0137 7.96681 15.0137C8.12517 15.0137 8.44191 14.7204 10.8116 12.3508L13.4745 9.68784L13.4393 9.45909C13.3923 9.18341 13.2164 9.03091 12.9407 9.03091C12.7354 9.03091 12.5946 9.16582 10.1546 11.5941Z" fill="black"/>
<path d="M12.8584 11.8874C10.9698 13.7761 9.99024 14.7966 9.96678 14.8964C9.89053 15.2424 10.2073 15.565 10.5475 15.5005C10.6296 15.4829 11.8731 14.2805 13.5682 12.5854C16.1959 9.95765 16.4481 9.68784 16.4481 9.51187C16.4481 9.24206 16.2252 9.03091 15.9378 9.03091C15.7267 9.03091 15.6211 9.13062 12.8584 11.8874Z" fill="black"/>
<path d="M7.11039 11.6587C5.19825 13.565 4.9519 13.8348 4.9519 13.9931C4.9519 14.0929 5.00469 14.2454 5.07508 14.3333C5.16893 14.4565 5.24518 14.4858 5.43874 14.4858C5.67922 14.4858 5.69682 14.4741 7.80838 12.3567C9.83196 10.339 9.93754 10.2217 9.93754 10.0164C9.93754 9.85213 9.89648 9.77002 9.75571 9.65271C9.39792 9.35357 9.45657 9.30665 7.11039 11.6587Z" fill="black"/>
<path d="M18.237 9.56467C18.1725 9.59986 16.9759 10.7671 15.5799 12.1631C13.8555 13.8816 13.0284 14.7497 12.9815 14.8788C12.8701 15.2248 13.1751 15.5592 13.5505 15.4946C13.615 15.4888 14.8643 14.2805 16.3307 12.8141C18.9526 10.1864 18.9877 10.1512 18.9467 9.95765C18.8822 9.59986 18.5302 9.4063 18.237 9.56467Z" fill="black"/>
<path d="M4.34763 11.4241C3.05137 12.7204 2.95752 12.8318 2.95752 13.0254C2.95752 13.3069 3.15108 13.4888 3.45608 13.4888C3.67897 13.4888 3.73762 13.4418 5.05149 12.1221C6.38294 10.7907 6.41814 10.7555 6.41814 10.5209C6.41814 10.2158 6.23631 10.0282 5.94303 10.0282C5.76121 10.0282 5.6263 10.1396 4.34763 11.4241Z" fill="black"/>
<path d="M18.366 12.4213C16.1137 14.6736 15.9788 14.8203 15.9788 15.0197C15.9788 15.3716 16.319 15.6004 16.6416 15.4596C16.7471 15.4127 17.8498 14.351 19.1344 13.0665C21.4043 10.7907 21.4336 10.7555 21.4336 10.5209C21.4336 10.2218 21.2518 10.0282 20.9585 10.0282C20.7708 10.0282 20.589 10.1983 18.366 12.4213Z" fill="black"/>
<path d="M21.6096 12.1689C19.5743 14.2042 19.4746 14.3157 19.4746 14.521C19.4746 14.7908 19.7034 15.0137 19.9849 15.0137C20.1491 15.0137 20.3955 14.7908 22.2431 12.9432C23.381 11.8111 24.3547 10.8023 24.4016 10.7143C24.5658 10.4093 24.3195 10.028 23.9617 10.028C23.7623 10.028 23.6273 10.1512 21.6096 12.1689Z" fill="black"/>
<path d="M25.2756 11.5531C25.2111 11.5766 24.6656 12.0986 24.0614 12.7086C23.0878 13.6881 22.9587 13.8406 22.9587 14.0107C22.9587 14.2747 23.1816 14.4858 23.469 14.4858C23.6743 14.4858 23.7506 14.4213 24.8181 13.3538C25.8563 12.3156 25.9501 12.21 25.9501 12.0224C25.9443 11.6352 25.6158 11.4065 25.2756 11.5531Z" fill="black"/>
</svg>
