<svg width="12" height="13" viewBox="0 0 12 13" fill="none" xmlns="http://www.w3.org/2000/svg">
<path d="M2.26106 0.00575209C1.79237 0.0952516 1.41788 0.415565 1.2436 0.877194C1.19178 1.0138 1.18942 1.03264 1.18236 2.44108L1.17529 3.86836L1.53094 4.01203L1.88422 4.15806V2.67896C1.88422 1.01144 1.87951 1.05384 2.06087 0.874839C2.20454 0.731169 2.3223 0.698195 2.70856 0.698195C3.09482 0.698195 3.21258 0.731169 3.35625 0.874839C3.47166 0.987891 3.5329 1.14569 3.5329 1.32705C3.5329 1.44245 3.52819 1.45423 3.46931 1.47778C3.04772 1.63323 2.71563 2.01007 2.62613 2.43401C2.5484 2.80143 2.60022 3.03225 2.77922 3.1241C2.86636 3.16885 2.91582 3.17121 3.88619 3.17121C4.85655 3.17121 4.90601 3.16885 4.99315 3.1241C5.05675 3.09113 5.10385 3.04402 5.13682 2.97808C5.18157 2.88858 5.18628 2.85089 5.17451 2.65305C5.15331 2.27857 5.02142 1.99594 4.75527 1.74864C4.63751 1.6403 4.42554 1.51311 4.28422 1.46836C4.25361 1.45894 4.24418 1.40948 4.23241 1.23519C4.19943 0.679353 3.87677 0.248343 3.3539 0.0599227C3.23378 0.015173 3.15606 0.00810719 2.76744 0.00104141C2.5225 -0.00131369 2.29404 0.00104141 2.26106 0.00575209Z" fill="currentColor"/>
<path d="M0.518155 4.55358C0.216683 4.65721 0 4.95162 0 5.25309C0 5.4792 0.134249 5.74769 0.306183 5.86781C0.551129 6.03739 1.78763 6.48253 2.49657 6.65447C3.19607 6.82404 3.89323 6.93474 4.60451 6.98656C4.80471 7.00069 6.20844 7.01011 8.16565 7.01011C11.357 7.01011 11.3994 7.01011 11.5266 6.963C11.6962 6.89941 11.854 6.75574 11.9341 6.59087C11.9906 6.47782 12 6.42601 12 6.26821C12 6.03032 11.9246 5.8631 11.7503 5.7053C11.536 5.51217 11.7715 5.5263 8.52836 5.5263C5.59136 5.5263 4.80707 5.50981 4.23945 5.44387C3.21021 5.32375 2.21629 5.06703 1.29774 4.68077C0.869087 4.49941 0.732483 4.47821 0.518155 4.55358Z" fill="currentColor"/>
<path d="M0.713681 7.59428C0.725457 8.42804 0.734878 8.51283 0.873838 8.93206C1.02693 9.40311 1.26245 9.77995 1.63694 10.1568C2.11034 10.6349 2.62614 10.9128 3.29739 11.0541C3.48345 11.0942 3.68365 11.0965 6.00593 11.0965C8.31878 11.0965 8.53076 11.0942 8.71918 11.0541C9.14312 10.9694 9.54587 10.7998 9.92506 10.5478C10.1441 10.4041 10.6034 9.94246 10.7518 9.71871C11.098 9.1982 11.2723 8.66121 11.2982 8.03L11.3123 7.71911L7.91133 7.70969C4.26069 7.70262 4.39023 7.70497 3.53056 7.57779C2.6756 7.45061 1.62281 7.1774 0.862061 6.88535L0.701904 6.82176L0.713681 7.59428Z" fill="currentColor"/>
<path d="M1.56637 11.3603C1.40385 11.6052 1.38266 11.7065 1.45802 11.8573C1.51455 11.9656 1.64644 12.0504 1.76421 12.0504C1.91259 12.0504 1.99973 11.9797 2.16931 11.7277L2.33182 11.4875L2.19522 11.4263C2.12221 11.3933 1.9856 11.3179 1.89375 11.259C1.79954 11.2025 1.71946 11.1554 1.71475 11.1554C1.70768 11.1554 1.64173 11.2473 1.56637 11.3603Z" fill="currentColor"/>
<path d="M10.1158 11.2614C10.0263 11.3179 9.88972 11.3933 9.81671 11.4286L9.68481 11.4922L9.84262 11.7301C10.0122 11.9797 10.0993 12.0504 10.2477 12.0504C10.3655 12.0504 10.4974 11.9656 10.5539 11.8573C10.6293 11.7065 10.6081 11.6052 10.4456 11.3603C10.3702 11.2473 10.3019 11.1554 10.2948 11.1578C10.2878 11.1578 10.2077 11.2049 10.1158 11.2614Z" fill="currentColor"/>
</svg>
