<svg width="13" height="10" viewBox="0 0 13 10" fill="none" xmlns="http://www.w3.org/2000/svg">
<path d="M2.58871 0.030968C2.33928 0.0758097 2.01698 0.255177 1.80959 0.459767C1.59379 0.672766 1.42283 0.992263 1.37238 1.26972C1.35276 1.37062 1.34155 1.87789 1.34155 2.5365C1.34155 3.46417 1.34716 3.63793 1.38359 3.66876C1.41442 3.69398 1.46487 3.69118 1.62462 3.65474C1.73672 3.62952 1.95532 3.60149 2.10947 3.59309C2.26641 3.58468 2.40935 3.56506 2.42616 3.55105C2.44578 3.53423 2.4682 3.47818 2.47941 3.41932C2.51304 3.23715 2.65878 2.99613 2.81292 2.88403C3.06796 2.69065 3.1128 2.68504 4.20302 2.69345C5.16431 2.70186 5.16712 2.70186 5.30725 2.77192C5.55948 2.89524 5.75847 3.15027 5.80891 3.41372C5.83974 3.57907 5.85095 3.58468 6.27415 3.58468C6.5488 3.58468 6.66931 3.57347 6.68893 3.54824C6.70295 3.53143 6.73097 3.45856 6.75059 3.38849C6.82626 3.10543 6.9804 2.91485 7.23544 2.77753L7.38118 2.70186H8.40413H9.42708L9.56721 2.77192C9.82225 2.89804 10.0184 3.15308 10.0689 3.41932C10.0801 3.47818 10.1025 3.53423 10.1221 3.55105C10.1389 3.56506 10.2819 3.58468 10.4388 3.59309C10.593 3.60149 10.8116 3.62952 10.9237 3.65474C11.0834 3.69118 11.1339 3.69398 11.1647 3.66876C11.2011 3.63793 11.2067 3.46417 11.2067 2.5365C11.2067 1.87789 11.1955 1.37062 11.1759 1.26972C11.0694 0.672766 10.5313 0.134665 9.93435 0.0281653C9.72136 -0.0110712 2.7933 -0.00826859 2.58871 0.030968Z" fill="white"/>
<path d="M1.81808 4.07501C0.884808 4.26559 0.170143 5.00548 0.0272097 5.93875C0.00198621 6.08729 -0.00361901 6.65341 0.00198621 7.86414C0.010394 9.54571 0.010394 9.57934 0.0692488 9.65501C0.178551 9.80355 0.268234 9.84839 0.444799 9.84839C0.568113 9.84839 0.629771 9.83438 0.685823 9.78953C0.842769 9.67463 0.876401 9.59896 0.893216 9.3271C0.915637 8.91792 0.195366 8.96557 6.27423 8.96557C12.3531 8.96557 11.6328 8.91792 11.6552 9.3271C11.6721 9.59896 11.7057 9.67463 11.8626 9.78953C11.9187 9.83438 11.9803 9.84839 12.1037 9.84839C12.2802 9.84839 12.3699 9.80355 12.4792 9.65501C12.5381 9.57934 12.5381 9.54571 12.5465 7.87815C12.5521 6.72068 12.5437 6.1069 12.524 5.95556C12.3979 5.07274 11.7589 4.35527 10.8705 4.10024C10.6967 4.04979 10.4922 4.04699 6.34429 4.04138C2.83542 4.03858 1.96381 4.04418 1.81808 4.07501Z" fill="white"/>
</svg>
