<?xml version="1.0" standalone="no"?>
<!DOCTYPE svg PUBLIC "-//W3C//DTD SVG 20010904//EN"
 "http://www.w3.org/TR/2001/REC-SVG-20010904/DTD/svg10.dtd">
<svg version="1.0" xmlns="http://www.w3.org/2000/svg"
 width="512.000000pt" height="512.000000pt" viewBox="0 0 512.000000 512.000000"
 preserveAspectRatio="xMidYMid meet">

<g transform="translate(0.000000,512.000000) scale(0.100000,-0.100000)"
fill="#000000" stroke="none">
<path d="M440 4794 c-106 -29 -191 -100 -247 -206 -27 -51 -28 -59 -31 -225
l-4 -173 -54 0 c-45 0 -59 -4 -79 -25 l-25 -24 0 -1891 0 -1891 25 -24 24 -25
799 0 c793 0 799 0 826 21 l26 20 0 595 c0 327 2 594 5 594 16 0 64 -32 92
-62 57 -59 63 -87 63 -291 0 -101 5 -210 11 -243 41 -221 256 -364 467 -310
137 35 227 119 279 260 11 30 17 104 22 273 l6 231 30 43 c33 46 109 94 168
104 l37 7 0 -348 c0 -346 0 -349 24 -400 28 -60 85 -111 142 -126 l41 -11 5
-86 c6 -101 27 -149 86 -203 67 -60 85 -63 407 -63 331 0 355 4 420 77 52 57
65 95 65 187 l0 80 506 3 506 3 19 24 c18 23 19 57 19 1266 0 1242 0 1242 -21
1269 -20 26 -22 26 -145 26 -111 0 -126 -2 -144 -20 -30 -30 -27 -83 6 -109
21 -16 41 -21 90 -21 l64 0 0 -360 0 -360 -685 0 c-377 0 -685 4 -685 8 0 8
221 496 254 562 25 48 73 98 121 123 37 21 58 22 310 27 149 3 277 9 286 13
17 8 39 49 39 71 0 7 -10 25 -21 40 l-21 27 -287 -3 c-269 -3 -289 -5 -341
-25 -63 -26 -133 -80 -178 -138 -17 -23 -63 -112 -103 -198 l-72 -157 -251 0
c-270 -1 -296 -5 -361 -54 -19 -15 -47 -48 -62 -74 -24 -40 -28 -58 -28 -122
0 -64 4 -82 28 -122 55 -94 131 -128 285 -128 l96 0 -171 -173 c-171 -173
-205 -218 -228 -307 -11 -45 -11 -45 -66 -53 -122 -17 -241 -99 -298 -206 -40
-75 -50 -153 -51 -374 0 -181 -5 -206 -55 -265 -85 -102 -253 -104 -347 -5
-56 59 -62 88 -68 343 -5 234 -5 235 -34 292 -49 97 -124 163 -226 199 l-45
16 -3 756 -2 756 -26 20 c-15 12 -33 21 -40 21 -26 0 -62 -23 -73 -47 -8 -17
-11 -243 -11 -764 l0 -740 -77 3 -78 3 -5 165 c-5 159 -6 168 -36 230 -38 80
-105 149 -182 187 l-57 28 -260 0 -260 0 -67 -33 c-82 -40 -157 -119 -190
-200 -23 -56 -23 -62 -23 -457 l0 -400 31 -65 c53 -112 142 -184 263 -216 52
-13 104 -15 276 -12 l211 3 76 38 c87 43 142 98 185 186 26 53 28 65 31 224
l4 167 79 0 79 0 0 -390 0 -390 -280 0 -281 0 -24 -25 c-32 -31 -32 -69 0
-100 l24 -25 281 0 280 0 0 -80 0 -80 -700 0 -700 0 0 80 0 80 279 0 c266 0
279 1 305 21 34 27 36 77 3 107 -23 22 -30 22 -305 22 l-282 0 0 1635 0 1635
700 0 700 0 0 -279 c0 -266 1 -279 21 -305 26 -33 79 -36 109 -6 19 19 20 33
20 359 l0 340 -26 20 c-19 15 -41 21 -75 21 l-49 0 0 133 c0 147 -15 224 -57
296 -38 66 -98 120 -171 154 l-67 32 -380 2 c-312 2 -390 0 -435 -13z m791
-146 c51 -15 114 -69 142 -122 19 -36 22 -60 25 -188 l4 -148 -547 0 -546 0 3
159 c3 159 3 160 33 202 36 50 68 75 121 94 51 19 705 21 765 3z m2244 -2164
c-25 -53 -45 -98 -45 -100 0 -11 -322 -3 -345 8 -48 22 -68 88 -41 137 26 46
47 50 268 51 l207 0 -44 -96z m1495 -484 l0 -230 -372 0 -373 0 -249 61 -248
62 -147 115 c-80 63 -150 119 -156 123 -5 6 8 27 35 54 l44 45 733 0 733 0 0
-230z m-3865 151 c22 -10 54 -34 72 -52 55 -58 63 -92 63 -254 l0 -145 -80 0
-80 0 0 68 c-1 143 -93 241 -228 242 -91 0 -161 -42 -205 -125 -20 -36 -22
-58 -25 -238 -4 -231 4 -271 70 -337 147 -147 388 -37 388 177 l0 63 80 0 80
0 0 -143 c0 -134 -2 -146 -26 -195 -54 -109 -117 -132 -361 -132 -210 0 -248
8 -313 67 -80 72 -81 80 -78 500 3 347 4 359 25 399 24 46 72 90 118 110 22
10 90 13 245 13 189 1 220 -2 255 -18z m2410 -281 c61 -48 121 -94 135 -102
14 -9 112 -37 218 -63 105 -26 192 -50 192 -54 0 -4 -29 -35 -64 -70 l-63 -63
-277 74 -276 73 0 153 c0 120 3 152 13 146 6 -4 62 -47 122 -94z m-265 -314
c15 -15 675 -196 713 -196 13 0 70 50 152 130 l131 130 362 0 362 0 0 -140 0
-140 -132 0 c-178 0 -247 -12 -334 -55 -152 -74 -234 -222 -234 -417 l0 -58
-582 0 c-562 0 -584 1 -615 20 -18 11 -35 30 -38 42 -3 13 -4 208 -3 433 3
477 -4 441 118 569 l75 79 5 -191 c4 -152 8 -194 20 -206z m-2343 282 c22 -21
23 -26 23 -204 0 -100 -3 -190 -6 -199 -7 -18 -55 -45 -79 -45 -9 0 -30 13
-46 29 l-29 29 0 182 c0 179 0 181 25 205 31 32 80 33 112 3z m4063 -838 l0
-190 -275 0 -275 0 0 63 c0 122 49 222 134 272 60 35 107 43 274 44 l142 1 0
-190z m-1050 -410 c0 -61 -3 -74 -24 -95 -13 -13 -39 -27 -57 -30 -19 -3 -148
-5 -286 -3 l-253 3 -27 27 c-23 24 -28 38 -31 98 l-4 70 341 0 341 0 0 -70z"/>
<path d="M596 4479 c-33 -26 -36 -79 -6 -109 19 -19 33 -20 256 -20 147 0 243
4 255 11 48 25 43 110 -8 130 -13 5 -125 9 -247 9 -211 0 -225 -1 -250 -21z"/>
<path d="M3252 1137 c-31 -33 -29 -80 4 -106 25 -20 40 -21 218 -21 208 0 227
4 247 57 10 28 -10 77 -36 87 -9 3 -105 6 -214 6 -194 0 -198 0 -219 -23z"/>
<path d="M828 3853 c-14 -16 -130 -203 -258 -417 -246 -411 -255 -431 -211
-468 21 -16 44 -18 232 -18 l208 0 3 -214 c3 -194 5 -216 22 -235 25 -27 69
-27 99 2 41 36 500 813 500 844 0 16 -10 34 -23 45 -20 16 -45 18 -236 18
l-214 0 0 215 c0 202 -1 216 -20 235 -29 29 -71 26 -102 -7z m-14 -555 c13
-29 36 -33 218 -38 l176 -5 -126 -210 -127 -210 -3 110 c-4 160 3 155 -225
155 -98 0 -177 4 -175 8 2 5 57 99 123 209 l120 201 5 -102 c3 -55 9 -109 14
-118z"/>
</g>
</svg>
