<svg width="51" height="41" viewBox="0 0 51 41" fill="none" xmlns="http://www.w3.org/2000/svg">
<mask id="path-1-inside-1_201_381" fill="white">
<path fill-rule="evenodd" clip-rule="evenodd" d="M27.7548 0.332925C28.5169 -0.172215 29.5244 -0.0960942 30.2021 0.517495L49.8632 18.3222C51.2193 19.5505 50.3502 21.8044 48.5205 21.8046H45.1093V38.2528C45.109 39.357 44.2135 40.2527 43.1093 40.2528H8.87008C7.76584 40.2527 6.87045 39.357 6.87008 38.2528V21.8046H2.00289C0.0219584 21.8041 -0.752624 19.2325 0.8984 18.1376L10.6787 11.6532V3.85734C10.6787 3.5812 10.9025 3.35734 11.1787 3.35734H18.3447C18.6207 3.35754 18.8447 3.58132 18.8447 3.85734V6.23917L27.7548 0.332925Z"/>
</mask>
<path fill-rule="evenodd" clip-rule="evenodd" d="M27.7548 0.332925C28.5169 -0.172215 29.5244 -0.0960942 30.2021 0.517495L49.8632 18.3222C51.2193 19.5505 50.3502 21.8044 48.5205 21.8046H45.1093V38.2528C45.109 39.357 44.2135 40.2527 43.1093 40.2528H8.87008C7.76584 40.2527 6.87045 39.357 6.87008 38.2528V21.8046H2.00289C0.0219584 21.8041 -0.752624 19.2325 0.8984 18.1376L10.6787 11.6532V3.85734C10.6787 3.5812 10.9025 3.35734 11.1787 3.35734H18.3447C18.6207 3.35754 18.8447 3.58132 18.8447 3.85734V6.23917L27.7548 0.332925Z" fill="#65C974"/>
<path d="M27.7548 0.332925L28.3074 1.16643L28.3074 1.16643L27.7548 0.332925ZM30.2021 0.517495L30.8734 -0.22374L30.8733 -0.223827L30.2021 0.517495ZM49.8632 18.3222L50.5346 17.581L50.5345 17.5809L49.8632 18.3222ZM48.5205 21.8046V22.8046H48.5206L48.5205 21.8046ZM45.1093 21.8046V20.8046H44.1093V21.8046H45.1093ZM45.1093 38.2528L46.1093 38.2532V38.2528H45.1093ZM43.1093 40.2528V41.2528H43.1095L43.1093 40.2528ZM8.87008 40.2528L8.86997 41.2528H8.87008V40.2528ZM6.87008 38.2528H5.87008L5.87008 38.2532L6.87008 38.2528ZM6.87008 21.8046H7.87008V20.8046H6.87008V21.8046ZM2.00289 21.8046L2.00263 22.8046H2.00289V21.8046ZM0.8984 18.1376L0.345814 17.3042L0.345735 17.3042L0.8984 18.1376ZM10.6787 11.6532L11.2313 12.4867L11.6787 12.1901V11.6532H10.6787ZM18.3447 3.35734L18.3454 2.35734H18.3447V3.35734ZM18.8447 6.23917H17.8447V8.10179L19.3972 7.07268L18.8447 6.23917ZM27.7548 0.332925L28.3074 1.16643C28.6882 0.913974 29.1919 0.951883 29.531 1.25882L30.2021 0.517495L30.8733 -0.223827C29.8568 -1.14407 28.3456 -1.2584 27.2023 -0.500578L27.7548 0.332925ZM30.2021 0.517495L29.5309 1.25873L49.192 19.0634L49.8632 18.3222L50.5345 17.5809L30.8734 -0.22374L30.2021 0.517495ZM49.8632 18.3222L49.1919 19.0633C49.8697 19.6773 49.4354 20.8045 48.5204 20.8046L48.5205 21.8046L48.5206 22.8046C51.2649 22.8043 52.5688 19.4237 50.5346 17.581L49.8632 18.3222ZM48.5205 21.8046V20.8046H45.1093V21.8046V22.8046H48.5205V21.8046ZM45.1093 21.8046H44.1093V38.2528H45.1093H46.1093V21.8046H45.1093ZM45.1093 38.2528L44.1093 38.2525C44.1092 38.8048 43.661 39.2528 43.1092 39.2528L43.1093 40.2528L43.1095 41.2528C44.766 41.2526 46.1088 39.9092 46.1093 38.2532L45.1093 38.2528ZM43.1093 40.2528V39.2528H8.87008V40.2528V41.2528H43.1093V40.2528ZM8.87008 40.2528L8.87018 39.2528C8.31837 39.2528 7.87027 38.8049 7.87008 38.2525L6.87008 38.2528L5.87008 38.2532C5.87063 39.9092 7.2133 41.2527 8.86997 41.2528L8.87008 40.2528ZM6.87008 38.2528H7.87008V21.8046H6.87008H5.87008V38.2528H6.87008ZM6.87008 21.8046V20.8046H2.00289V21.8046V22.8046H6.87008V21.8046ZM2.00289 21.8046L2.00315 20.8046C1.01317 20.8043 0.62521 19.5187 1.45107 18.971L0.8984 18.1376L0.345735 17.3042C-2.13046 18.9463 -0.969256 22.8038 2.00263 22.8046L2.00289 21.8046ZM0.8984 18.1376L1.45099 18.9711L11.2313 12.4867L10.6787 11.6532L10.1261 10.8198L0.345814 17.3042L0.8984 18.1376ZM10.6787 11.6532H11.6787V3.85734H10.6787H9.67867V11.6532H10.6787ZM10.6787 3.85734H11.6787C11.6787 4.13348 11.4548 4.35734 11.1787 4.35734V3.35734V2.35734C10.3502 2.35734 9.67867 3.02891 9.67867 3.85734H10.6787ZM11.1787 3.35734V4.35734H18.3447V3.35734V2.35734H11.1787V3.35734ZM18.3447 3.35734L18.344 4.35734C18.0689 4.35714 17.8447 4.13434 17.8447 3.85734H18.8447H19.8447C19.8447 3.02831 19.1724 2.35795 18.3454 2.35734L18.3447 3.35734ZM18.8447 3.85734H17.8447V6.23917H18.8447H19.8447V3.85734H18.8447ZM18.8447 6.23917L19.3972 7.07268L28.3074 1.16643L27.7548 0.332925L27.2023 -0.500585L18.2922 5.40567L18.8447 6.23917Z" fill="#1D7C2B" mask="url(#path-1-inside-1_201_381)"/>
</svg>
