<?xml version="1.0" standalone="no"?>
<!DOCTYPE svg PUBLIC "-//W3C//DTD SVG 20010904//EN"
 "http://www.w3.org/TR/2001/REC-SVG-20010904/DTD/svg10.dtd">
<svg version="1.0" xmlns="http://www.w3.org/2000/svg"
 width="512.000000pt" height="512.000000pt" viewBox="0 0 512.000000 512.000000"
 preserveAspectRatio="xMidYMid meet">

<g transform="translate(0.000000,512.000000) scale(0.100000,-0.100000)"
fill="#000000" stroke="none">
<path d="M1785 5019 c-339 -26 -642 -152 -868 -360 -205 -189 -346 -477 -366
-747 -8 -111 0 -136 46 -140 41 -4 63 27 63 89 0 70 27 208 56 291 157 439
566 723 1088 755 l106 6 0 -166 0 -167 -242 0 c-176 0 -250 -4 -268 -13 -24
-12 -25 -17 -28 -121 -3 -119 3 -136 49 -136 39 0 59 33 59 97 l0 53 491 0
c475 0 493 -1 524 -20 54 -33 65 -71 65 -213 l0 -125 -35 -12 c-56 -18 -123
-87 -149 -154 -20 -50 -31 -62 -74 -87 -96 -55 -141 -141 -142 -270 0 -71 3
-89 18 -102 17 -15 62 -17 440 -17 379 0 422 2 437 17 14 13 16 33 13 112 -4
137 -41 204 -143 262 -44 24 -52 35 -65 76 -17 58 -98 144 -153 162 l-37 13 0
132 c0 155 -13 206 -67 261 -70 72 -99 79 -355 83 l-228 4 0 201 c0 111 -4
207 -8 213 -13 20 -50 34 -89 33 -21 -1 -83 -5 -138 -10z m915 -1055 c40 -34
60 -74 60 -119 0 -41 29 -75 64 -75 59 0 136 -94 136 -167 l0 -33 -345 0 -345
0 0 33 c0 73 77 167 136 167 35 0 64 34 64 75 0 42 18 81 52 111 30 28 43 32
100 33 36 1 53 -5 78 -25z"/>
<path d="M1391 4163 c-11 -10 -42 -58 -69 -108 l-49 -90 -113 -21 c-176 -33
-180 -54 -42 -196 l65 -66 -16 -107 c-26 -177 -7 -192 152 -117 l105 49 103
-50 c90 -43 107 -49 128 -39 34 16 38 42 21 162 l-15 104 79 82 c121 124 112
150 -68 181 l-103 17 -50 96 c-65 123 -85 139 -128 103z m133 -302 c17 -5 52
-13 78 -17 l48 -6 -51 -57 -51 -56 6 -77 c4 -43 5 -78 2 -78 -2 0 -34 14 -70
31 l-66 31 -66 -31 c-37 -17 -68 -30 -70 -28 -2 1 1 31 6 66 11 76 4 94 -49
146 -23 21 -41 42 -41 45 0 4 31 12 70 19 76 14 85 21 130 110 l22 44 35 -66
c28 -52 42 -68 67 -76z"/>
<path d="M407 3552 c-16 -17 -17 -151 -17 -1718 0 -1451 2 -1703 14 -1720 13
-17 30 -19 177 -22 89 -2 172 -1 185 2 55 14 54 10 54 377 l0 339 1740 0 1740
0 0 -339 c0 -367 -1 -363 54 -377 13 -3 96 -4 185 -2 147 3 164 5 177 22 12
17 14 269 14 1721 0 1636 -1 1703 -18 1718 -16 15 -45 17 -200 17 -176 0 -181
-1 -196 -22 -13 -18 -16 -56 -16 -200 l0 -178 -1740 0 -1740 0 0 178 c0 144
-3 182 -16 200 -15 21 -20 22 -198 22 -164 0 -185 -2 -199 -18z m303 -1717 l0
-1625 -105 0 -105 0 0 1625 0 1625 105 0 105 0 0 -1625z m3910 0 l0 -1625
-105 0 -105 0 0 1625 0 1625 105 0 105 0 0 -1625z m-320 1125 l0 -100 -1740 0
-1740 0 0 100 0 100 1740 0 1740 0 0 -100z m-3100 -755 l0 -535 -55 0 c-110 0
-217 -37 -290 -101 l-35 -31 0 601 0 601 190 0 190 0 0 -535z m270 -215 l0
-750 -75 0 -75 0 0 750 0 750 75 0 75 0 0 -750z m510 215 l0 -535 -200 0 -200
0 0 535 0 535 200 0 200 0 0 -535z m270 -215 l0 -750 -75 0 -75 0 0 750 0 750
75 0 75 0 0 -750z m510 215 l0 -535 -200 0 -200 0 0 535 0 535 200 0 200 0 0
-535z m260 -215 l0 -750 -75 0 -75 0 0 750 0 750 75 0 75 0 0 -750z m520 215
l0 -535 -200 0 -200 0 0 535 0 535 200 0 200 0 0 -535z m260 -215 l0 -750 -75
0 -75 0 0 750 0 750 75 0 75 0 0 -750z m500 149 l0 -601 -35 31 c-71 62 -182
101 -287 101 l-58 0 0 535 0 535 190 0 190 0 0 -601z m-3100 -739 l0 -160
-191 0 -192 0 6 49 c14 121 114 232 234 260 21 5 62 9 91 10 l52 1 0 -160z
m780 0 l0 -160 -200 0 -200 0 0 160 0 160 200 0 200 0 0 -160z m780 0 l0 -160
-200 0 -200 0 0 160 0 160 200 0 200 0 0 -160z m780 0 l0 -160 -200 0 -200 0
0 160 0 160 200 0 200 0 0 -160z m585 125 c91 -44 161 -140 172 -236 l6 -49
-192 0 -191 0 0 161 0 162 76 -6 c52 -4 92 -14 129 -32z m175 -505 l0 -100
-1740 0 -1740 0 0 100 0 100 1740 0 1740 0 0 -100z"/>
</g>
</svg>
