<svg width="800" height="336" viewBox="0 0 800 336" fill="none" xmlns="http://www.w3.org/2000/svg">
<path d="M16.7747 92.3503L41.7747 130.85L16.7747 140.35L48.7747 155.85H16.7747L68.7747 191.35H16.7747L48.7747 209.85L16.7747 229.85L41.7747 247.35L33.2747 272.35L63.2747 258.85L53.2747 306.85L87.2747 265.85L94.7747 294.35L120.775 265.85L133.275 298.35L149.775 265.85L167.275 276.35L179.775 247.35L202.775 294.35L236.775 265.85L249.275 306.85L266.275 272.35L281.775 287.85L310.775 265.85V306.85L333.775 272.35L352.275 298.35L360.775 272.35L396.775 298.35L414.775 276.35L446.775 287.85L476.775 272.35L492.775 294.35L505.275 272.35L515.275 317.85L531.275 265.85L547.775 298.35L561.275 265.85L578.775 287.85L591.275 265.85L606.775 306.85L625.775 276.35L651.775 294.35L663.275 265.85L687.775 287.85L699.275 265.85L731.775 294.35V265.85L775.275 287.85L758.775 247.35H788.775L758.775 215.35L775.275 206.85L740.775 184.85L775.275 161.35L748.275 148.85L775.275 103.85H740.775L758.775 66.3503L711.775 92.3503V59.3503L674.275 92.3503L663.275 66.3503L625.775 86.3503L597.775 43.8503L555.775 92.3503L543.775 59.3503L522.775 75.8503L510.275 28.3503L492.775 59.3503L476.775 43.8503L460.275 86.3503L437.775 43.8503L414.775 66.3503L396.775 14.8503L376.275 86.3503L360.775 66.3503L345.275 86.3503L333.775 28.3503L295.275 75.8503L281.775 50.8503L256.775 92.3503L243.275 50.8503L214.275 92.3503L191.275 28.3503L179.775 75.8503L167.275 43.8503L140.275 103.85L120.775 66.3503L94.7747 103.85L41.7747 43.8503L53.2747 103.85L16.7747 92.3503Z" stroke="#37B2FF" stroke-width="9"/>
</svg>
