<svg width="34" height="34" viewBox="0 0 34 34" fill="none" xmlns="http://www.w3.org/2000/svg">
<path d="M30 0C32.2091 0 34 1.79086 34 4V30C34 32.2091 32.2091 34 30 34H20.7559V21.6494H22.9551C24.1672 21.6494 25.154 21.6441 25.1543 21.6328C25.3066 20.6065 25.8079 16.5915 25.791 16.5576C25.7741 16.5351 24.6377 16.5186 23.2598 16.5186H20.75L20.7666 14.415C20.7835 12.3627 20.7893 12.3113 20.9189 11.9844C21.184 11.3246 21.7368 10.9294 22.5713 10.8223C22.7968 10.7941 23.6596 10.7666 24.4941 10.7666H26L25.9883 8.46582L25.9717 6.16992L25.2383 6.10254C24.037 5.99543 21.432 5.96154 20.8682 6.05176C19.2443 6.30552 18.105 6.85802 17.1689 7.84473C16.3795 8.67931 15.8886 9.65547 15.6123 10.9355C15.5052 11.4204 15.4942 11.7143 15.4717 13.9922L15.4492 16.5186H11V21.6494L13.2158 21.6611L15.4268 21.6777L15.4434 28.2588L15.4531 34H4C1.79086 34 8.05332e-09 32.2091 0 30V4C0 1.79086 1.79086 8.0532e-09 4 0H30Z" fill="#1D7C2B"/>
</svg>
