<svg width="23" height="30" viewBox="0 0 23 30" fill="none" xmlns="http://www.w3.org/2000/svg">
<path d="M9.30228 0.0955467C9.13877 0.289335 9.13272 0.331726 9.22356 1.05844C9.33862 1.99105 9.33862 3.77754 9.22356 4.56481C9.08427 5.51559 8.75725 6.43004 8.40601 6.87817L8.30306 7.0114L8.18194 6.87817C7.83675 6.50271 7.64296 5.78811 7.70958 5.10379C7.74591 4.67987 7.73986 4.6496 7.59451 4.50425C7.37045 4.28018 7.17666 4.31046 6.85569 4.6072C5.46283 5.89106 4.93597 8.27103 5.47494 10.8569C5.52339 11.087 5.54762 11.2869 5.52945 11.305C5.47494 11.3656 4.82696 10.8206 4.62106 10.542C4.506 10.3845 4.36671 10.112 4.31221 9.93036C4.1487 9.38532 3.85801 9.23392 3.52494 9.51855L3.36143 9.66389L3.33115 11.0507C3.27665 13.8183 3.68845 15.6047 4.75429 17.1975C5.26299 17.9666 6.36516 18.9052 7.17666 19.2625L7.44917 19.3836L3.91252 22.9385C0.599932 26.2571 0.363751 26.5115 0.200242 26.8809C-0.102554 27.5773 -0.0601628 28.4009 0.315304 28.9944C0.515149 29.3093 0.981455 29.715 1.30847 29.8664C1.54465 29.9754 1.70211 29.9997 2.22897 29.9997C3.21609 29.9997 3.08891 30.0966 6.17743 27.0141L8.82387 24.3798L8.84203 26.3722L8.8602 28.3646L9.02371 28.7098C9.23567 29.17 9.65353 29.606 10.0835 29.824C10.4045 29.9875 10.4892 29.9997 11.0706 29.9997C11.652 29.9997 11.7368 29.9875 12.0577 29.824C12.4877 29.606 12.9056 29.17 13.1175 28.7098L13.281 28.3646L13.2992 26.3722L13.3174 24.3798L15.9638 27.0141C19.0523 30.0966 18.9251 29.9997 19.9122 29.9997C20.4391 29.9997 20.5966 29.9754 20.8388 29.8664C21.2627 29.6666 21.7411 29.1821 21.947 28.74C22.0984 28.413 22.1227 28.2919 22.1227 27.8195C22.1227 27.329 22.1045 27.2321 21.9289 26.8506C21.7411 26.4448 21.5595 26.2571 18.1742 22.9021C16.2121 20.9642 14.6254 19.3715 14.6436 19.3594C14.6618 19.3412 14.9646 19.1898 15.3158 19.0203C18.4467 17.5124 19.7124 14.2906 18.9312 9.82135C18.7858 8.98563 18.7011 8.83423 18.368 8.83423C18.1197 8.83423 17.9865 8.98563 17.7987 9.48827C17.5141 10.2877 17.0781 10.8327 16.6421 10.9417C16.5088 10.972 16.3877 10.9841 16.3695 10.9599C16.3574 10.9356 16.3877 10.7782 16.4422 10.6147C16.5088 10.4088 16.5391 10.0757 16.5452 9.50039C16.5512 8.81607 16.527 8.61622 16.418 8.25892C16.2363 7.69572 15.9032 7.13858 15.4611 6.67227C14.9464 6.1333 14.7163 6.15752 14.4074 6.76311C14.1955 7.18703 13.7958 7.56855 13.4142 7.71389C13.2568 7.77445 13.1175 7.81079 13.1054 7.79867C13.0933 7.78656 13.1054 7.62305 13.1357 7.44137C13.2144 6.89029 13.1962 5.38842 13.0993 4.77677C12.7784 2.67537 11.7549 1.08266 10.1562 0.210608C9.72014 -0.0255718 9.44157 -0.0619087 9.30228 0.0955467ZM10.5256 1.57319C11.3431 2.26356 11.9487 3.38997 12.197 4.71015C12.3302 5.38842 12.3302 6.91451 12.197 7.62305C12.0819 8.25287 12.0759 8.41638 12.1788 8.55566C12.3666 8.81001 13.2992 8.77368 13.8987 8.4951C14.0986 8.39821 14.4195 8.16203 14.6497 7.94402L15.0493 7.55644L15.1402 7.69572C15.3279 7.98035 15.5096 8.3861 15.5883 8.68284C15.7579 9.31265 15.6671 10.2089 15.3643 10.8872C15.225 11.2021 15.2492 11.3777 15.449 11.5655C15.6671 11.7714 15.982 11.8743 16.4059 11.8804C16.9388 11.8864 17.4838 11.6321 17.8775 11.1839C18.1318 10.8872 18.1439 10.8872 18.1863 11.0204C18.2771 11.305 18.2408 13.2006 18.1318 13.8001C17.9138 15.0113 17.502 15.9378 16.8056 16.7675C15.9032 17.8454 14.468 18.5843 12.627 18.9294C12.2273 19.0021 11.7368 19.0324 10.8587 19.0324C9.53241 19.0385 9.0661 18.9718 8.12138 18.6509C5.7414 17.8333 4.39093 15.6411 4.24559 12.3285L4.20926 11.4867L4.62106 11.8016C5.0692 12.1408 6.15321 12.71 6.347 12.71C6.51656 12.71 6.77091 12.4436 6.77091 12.274C6.77091 12.1953 6.69824 11.9167 6.61951 11.6502C6.31066 10.6571 6.1956 9.91219 6.20165 8.83423C6.20771 8.01063 6.23193 7.75023 6.33488 7.36265C6.46811 6.87817 6.7588 6.16963 6.82541 6.16963C6.84358 6.16963 6.9102 6.32709 6.9647 6.52087C7.16454 7.19914 7.83675 7.99852 8.28489 8.08936C8.46051 8.11964 8.50896 8.09541 8.85415 7.73206C9.50213 7.05379 9.92604 6.01823 10.1319 4.60115C10.2046 4.10456 10.2288 3.60192 10.2107 2.62692C10.1986 1.91232 10.1986 1.3249 10.2107 1.3249C10.2228 1.3249 10.3621 1.4339 10.5256 1.57319ZM16.6057 22.6357C19.5004 25.5304 19.5671 25.6031 19.3914 25.6455C19.1189 25.7121 18.6708 25.9543 18.4346 26.1542C18.1742 26.3843 17.8896 26.8324 17.7866 27.1655C17.7442 27.3108 17.6958 27.4259 17.6776 27.4259C17.6594 27.4259 16.6663 26.4509 15.4793 25.2639L13.3113 23.0959V21.4245C13.3113 20.504 13.3295 19.7349 13.3537 19.7167C13.5051 19.5593 13.7655 19.7954 16.6057 22.6357ZM8.73303 19.7712C8.81781 19.8015 8.82992 20.0074 8.82992 21.4548V23.0959L6.63768 25.2882L4.44544 27.4804L4.33643 27.1352C4.13053 26.4751 3.63395 25.9725 2.94357 25.7181L2.58022 25.591L5.51128 22.6599C7.1161 21.0551 8.47868 19.7349 8.53924 19.7349C8.59374 19.7349 8.67852 19.7531 8.73303 19.7712ZM12.3787 25.9543C12.3666 25.9664 12.2152 25.8998 12.0335 25.809C11.7368 25.6576 11.6459 25.6394 11.0706 25.6394C10.4953 25.6394 10.4045 25.6576 10.1138 25.8029C9.9321 25.8998 9.77464 25.9725 9.76253 25.9725C9.75042 25.9725 9.73831 24.616 9.73831 22.9566V19.9468L10.5982 19.965C11.0767 19.9771 11.6701 19.959 11.9184 19.9347L12.3726 19.8863L12.3908 22.9082C12.3969 24.5736 12.3969 25.9422 12.3787 25.9543ZM2.9678 26.7295C3.31904 26.9778 3.531 27.4077 3.52494 27.8438C3.51888 28.2192 3.42199 28.4493 3.1313 28.7521C2.88301 29.0125 2.61655 29.1216 2.22897 29.1216C0.811889 29.1216 0.375863 27.2382 1.65366 26.6265C2.02913 26.4509 2.62866 26.4993 2.9678 26.7295ZM11.8094 26.7355C12.5664 27.2684 12.5664 28.3767 11.8094 28.9096C11.5672 29.0731 11.5006 29.0913 11.0706 29.0913C10.6406 29.0913 10.574 29.0731 10.3318 28.9096C9.95632 28.6492 9.72014 28.1647 9.75648 27.7529C9.81098 27.2139 10.1198 26.7779 10.5861 26.5841C10.6709 26.5478 10.9192 26.5236 11.1433 26.5357C11.4824 26.5478 11.5914 26.5841 11.8094 26.7355ZM20.4876 26.6326C21.7532 27.2079 21.3233 29.1155 19.9244 29.1216C19.5307 29.1216 19.2643 29.0125 19.0099 28.7521C18.5254 28.2374 18.4649 27.6379 18.8464 27.0747C19.1976 26.5538 19.9062 26.3661 20.4876 26.6326Z" fill="black"/>
<path d="M16.1154 13.5698C16.0487 13.6486 15.9216 13.8666 15.8368 14.0543C15.0677 15.7621 13.3296 16.8219 10.9618 17.0096C10.2472 17.0641 10.1806 17.0823 10.0594 17.2216C9.89593 17.4093 9.88382 17.5365 10.017 17.7242C10.1745 17.9483 10.338 17.9786 11.1313 17.9119C12.9118 17.7666 14.5166 17.0883 15.5522 16.0467C16.2546 15.3382 16.939 14.133 16.8481 13.7697C16.7694 13.4427 16.3394 13.3276 16.1154 13.5698Z" fill="black"/>
</svg>
