<svg width="30" height="30" viewBox="0 0 30 30" fill="none" xmlns="http://www.w3.org/2000/svg">
<path d="M13.9361 0.0144138C13.8246 0.0261536 13.4783 0.0672455 13.173 0.0965977C11.2358 0.307928 9.09312 1.03585 7.36138 2.06903C5.16001 3.38398 3.36956 5.17442 2.05461 7.37579C1.02731 9.08993 0.346349 11.0858 0.0704438 13.1874C-0.0234813 13.9095 -0.0234813 16.105 0.0704438 16.827C0.55181 20.4842 2.16028 23.5779 4.88411 26.108C6.38691 27.511 8.25954 28.6029 10.2965 29.2721C11.905 29.8063 13.1789 30 14.9928 30C16.3312 30 16.9241 29.9472 18.1041 29.7065C22.1487 28.8788 25.759 26.2841 27.931 22.6386C28.9583 20.9245 29.6392 18.9286 29.9151 16.827C30.0091 16.105 30.0091 13.9095 29.9151 13.1874C29.6392 11.0858 28.9583 9.08993 27.931 7.37579C26.616 5.17442 24.8256 3.38398 22.6242 2.06903C20.9277 1.05346 18.9024 0.360762 16.8713 0.0965977C16.3547 0.0261536 14.3001 -0.02668 13.9361 0.0144138ZM16.2256 1.80486C22.0254 2.33319 26.8508 6.66548 27.9897 12.3773C28.9524 17.1616 27.2383 22.0457 23.5048 25.1746C18.1569 29.6537 10.2085 29.2134 5.40656 24.1649C0.73966 19.2632 0.493107 11.667 4.8254 6.49524C7.63141 3.14916 11.8639 1.40568 16.2256 1.80486Z" fill="black"/>
<path d="M11.1184 15.0014V22.7561H11.999H12.8795V20.2964V17.8309L15.1572 17.8133C17.2999 17.7898 17.4525 17.7781 17.8693 17.6548C19.2782 17.238 20.5168 16.2166 21.1214 14.9662C21.8083 13.5691 21.867 11.8843 21.2799 10.4813C20.7692 9.2485 19.6362 8.1214 18.4446 7.65764C17.5347 7.29955 17.5053 7.29955 14.1886 7.27607L11.1184 7.25259V15.0014ZM17.5171 9.1898C18.1041 9.39526 18.5091 9.64768 18.9259 10.0703C20.2409 11.4029 20.2644 13.5984 18.9729 14.9779C18.5268 15.4593 17.9749 15.7939 17.3762 15.9465C16.9535 16.0522 16.7246 16.0639 14.893 16.0639H12.8795V12.5359V9.00782L15.0104 9.0313C17.0416 9.05478 17.1531 9.06065 17.5171 9.1898Z" fill="black"/>
</svg>
