<?xml version="1.0" standalone="no"?>
<!DOCTYPE svg PUBLIC "-//W3C//DTD SVG 20010904//EN"
 "http://www.w3.org/TR/2001/REC-SVG-20010904/DTD/svg10.dtd">
<svg version="1.0" xmlns="http://www.w3.org/2000/svg"
 width="512.000000pt" height="512.000000pt" viewBox="0 0 512.000000 512.000000"
 preserveAspectRatio="xMidYMid meet">

<g transform="translate(0.000000,512.000000) scale(0.100000,-0.100000)"
fill="#000000" stroke="none">
<path d="M2258 4799 c-1532 -926 -1957 -1186 -1980 -1210 l-28 -29 0 -1681 0
-1680 25 -24 24 -25 266 0 266 0 24 25 25 24 0 1151 0 1150 1680 0 1680 0 0
-1150 0 -1151 25 -24 24 -25 266 0 266 0 24 25 25 24 0 1680 0 1681 -27 29
c-24 25 -337 216 -1986 1213 -153 92 -287 168 -297 168 -10 0 -146 -77 -302
-171z m1378 -657 l1069 -648 3 -1592 2 -1592 -155 0 -155 0 0 1389 0 1388 -26
27 -27 26 -1787 0 -1787 0 -27 -26 -26 -27 0 -1388 0 -1389 -155 0 -155 0 2
1591 3 1592 1069 648 c588 357 1073 649 1077 649 4 0 488 -292 1075 -648z
m604 -1322 l0 -160 -1680 0 -1680 0 0 160 0 160 1680 0 1680 0 0 -160z"/>
<path d="M1737 2336 c-62 -23 -114 -63 -141 -109 -14 -23 -73 -171 -131 -327
l-105 -283 -75 -78 c-48 -49 -85 -98 -103 -135 l-27 -59 -3 -573 -3 -572 25
-25 25 -25 296 0 296 0 24 25 c24 24 25 28 25 185 l0 160 720 0 720 0 0 -160
c0 -157 1 -161 25 -185 l24 -25 296 0 296 0 25 25 25 25 -3 582 -3 583 -27 58
c-15 32 -52 86 -82 121 -53 59 -60 74 -157 337 -55 151 -107 290 -115 309 -19
45 -78 106 -129 133 -40 22 -40 22 -860 24 -672 2 -827 0 -858 -11z m1654
-162 c19 -9 37 -31 49 -57 38 -91 173 -468 168 -472 -3 -3 -468 -4 -1035 -3
l-1030 3 59 160 c121 330 128 345 162 366 30 18 60 19 814 19 692 0 787 -2
813 -16z m351 -743 c24 -27 50 -67 56 -89 8 -27 12 -139 12 -351 l0 -311
-1250 0 -1250 0 0 308 c0 354 1 355 92 441 l53 51 1122 0 1121 0 44 -49z
m-2062 -1016 l0 -105 -185 0 -185 0 0 105 0 105 185 0 185 0 0 -105z m2130 0
l0 -105 -185 0 -185 0 0 105 0 105 185 0 185 0 0 -105z"/>
<path d="M1581 1277 c-18 -7 -51 -28 -72 -46 -112 -94 -112 -257 1 -354 53
-45 112 -61 200 -55 90 7 151 42 195 112 26 43 30 59 30 121 0 62 -4 78 -30
121 -19 29 -49 60 -78 78 -41 25 -60 30 -130 33 -50 1 -95 -2 -116 -10z m174
-172 c54 -53 13 -125 -70 -125 -57 0 -79 11 -94 49 -10 24 -10 34 3 59 19 36
27 40 89 41 38 1 53 -4 72 -24z"/>
<path d="M3339 1276 c-56 -20 -96 -53 -126 -104 -24 -39 -28 -59 -28 -118 0
-61 4 -77 30 -120 45 -71 106 -106 199 -112 94 -6 159 15 208 66 53 55 71 98
71 167 0 99 -61 188 -152 220 -52 18 -152 19 -202 1z m160 -156 c10 -5 24 -22
30 -39 10 -24 10 -34 -3 -59 -18 -35 -33 -42 -92 -42 -34 0 -51 6 -69 25 -54
53 -13 125 70 125 26 0 54 -4 64 -10z"/>
<path d="M2095 1255 c-25 -24 -25 -26 -25 -205 0 -179 0 -181 25 -205 l24 -25
436 0 436 0 24 25 c25 24 25 26 25 205 0 179 0 181 -25 205 l-24 25 -436 0
-436 0 -24 -25z m795 -205 l0 -70 -330 0 -330 0 0 70 0 70 330 0 330 0 0 -70z"/>
</g>
</svg>
