<svg width="15" height="30" viewBox="0 0 15 30" fill="none" xmlns="http://www.w3.org/2000/svg">
<path d="M-9.03835 0.0447378C-9.09697 0.0799103 -9.22007 0.226463 -9.31973 0.367153L-9.49559 0.625086L-9.80628 0.490257C-11.4946 -0.248367 -13.517 0.478534 -14.2967 2.11406C-14.4256 2.37786 -14.5604 2.74131 -14.6015 2.92303C-14.707 3.42131 -14.6425 4.38269 -14.4784 4.82235C-14.3142 5.25029 -13.9215 5.86581 -13.6342 6.13546C-13.517 6.24684 -13.4232 6.36409 -13.4232 6.3934C-13.4232 6.41684 -13.728 6.89167 -14.0973 7.44271C-14.4667 7.99375 -14.7715 8.49203 -14.7715 8.55065C-14.7715 8.60927 -14.7011 8.73824 -14.6073 8.83203C-14.4667 8.97858 -7.71351 13.1993 -7.35592 13.3634C-7.02178 13.5159 -6.9573 13.4279 -5.76729 11.3234L-4.65936 9.35962L-2.81279 9.40066C-1.79865 9.41824 -0.948644 9.44755 -0.919333 9.46514C-0.895885 9.47686 -0.878299 9.55307 -0.878299 9.62928C-0.878299 9.78169 -0.63209 10.0103 -0.462089 10.0103C-0.403468 10.0103 -0.286226 9.95169 -0.204157 9.87549C-0.0576038 9.75238 -0.0341558 9.65273 0.206191 8.13444C0.481709 6.37581 0.481709 6.32305 0.165156 6.14133C0.0186033 6.06512 -0.0165691 6.06512 -0.15726 6.14133C-0.245192 6.19408 -0.350709 6.29374 -0.385881 6.36409C-0.421054 6.43443 -0.462089 6.51064 -0.479675 6.52236C-0.508986 6.55753 -2.68383 6.11202 -2.73072 6.06512C-2.75417 6.04753 -2.57831 5.70167 -2.34969 5.30304C-1.91589 4.54097 -1.86313 4.35925 -2.03313 4.15993C-2.19141 3.97821 -8.62214 0.0212889 -8.79214 0.00370312C-8.87421 -0.00802135 -8.98559 0.00956535 -9.03835 0.0447378ZM-5.87867 2.77648C-4.33694 3.732 -3.05314 4.53511 -3.02383 4.55856C-3.00038 4.58787 -3.7859 6.04167 -4.7766 7.79444C-5.76729 9.54135 -6.58799 10.9834 -6.59385 10.9951C-6.61144 11.0127 -7.93041 10.1979 -11.9401 7.70651L-12.837 7.15547L-10.7677 4.09545C-9.63628 2.41889 -8.69834 1.0413 -8.69248 1.0413C-8.68662 1.0413 -7.42041 1.82096 -5.87867 2.77648ZM-10.457 1.18785C-9.98801 1.32854 -9.97628 1.34612 -10.1639 1.62164C-10.2577 1.75647 -10.3397 1.86199 -10.3515 1.86199C-10.3573 1.86199 -10.5273 1.82096 -10.7325 1.7682C-12.0515 1.42819 -13.347 2.60061 -13.1301 3.94304C-13.0656 4.34166 -12.9835 4.52925 -12.7432 4.85752L-12.538 5.13891L-12.6963 5.37925C-12.7842 5.50822 -12.8839 5.60787 -12.9191 5.59615C-12.9542 5.58443 -13.1066 5.41442 -13.2591 5.21511C-14.0094 4.22442 -13.9391 2.82337 -13.0891 1.91475C-12.5791 1.36957 -11.9753 1.10578 -11.219 1.09992C-10.9611 1.09992 -10.6153 1.14095 -10.457 1.18785ZM-10.9084 2.6651C-10.8732 2.68855 -11.9753 4.31821 -12.0222 4.32407C-12.1101 4.32407 -12.2508 3.90786 -12.2508 3.64407C-12.2508 3.32752 -12.0515 2.93475 -11.817 2.77648C-11.5591 2.61234 -11.0432 2.54199 -10.9084 2.6651ZM-1.8983 7.16719C-1.19485 7.31375 -0.614504 7.44271 -0.602779 7.44857C-0.579331 7.47789 -0.749332 8.49203 -0.784505 8.5272C-0.802091 8.54479 -1.56416 8.53893 -2.47865 8.51548L-4.14349 8.47444L-3.70383 7.68892C-3.45762 7.25513 -3.24073 6.9034 -3.21728 6.9034C-3.19383 6.9034 -2.60176 7.02064 -1.8983 7.16719ZM-10.1521 9.8579L-7.03937 11.7924L-7.18592 12.0269C-7.26213 12.1617 -7.36179 12.2614 -7.40868 12.2614C-7.50248 12.2496 -13.5815 8.50375 -13.6284 8.42168C-13.6694 8.36306 -13.3646 7.88823 -13.306 7.91168C-13.2884 7.92341 -11.8697 8.79686 -10.1521 9.8579Z" fill="black"/>
<path d="M1.05621 7.31357C0.710342 7.65943 1.13828 8.21633 1.57793 7.99357C1.84759 7.85288 1.89449 7.60081 1.69518 7.34874C1.54276 7.15529 1.23207 7.13771 1.05621 7.31357Z" fill="black"/>
<path d="M3.30142 7.67712C3.12555 7.76505 3.03176 8.01712 3.1021 8.21057C3.17245 8.38643 3.33073 8.48609 3.54176 8.48609C3.91107 8.48609 4.06935 7.96436 3.77625 7.72988C3.60625 7.59505 3.49487 7.58332 3.30142 7.67712Z" fill="black"/>
<path d="M5.29455 8.60328C5.14214 8.66776 5.04248 8.83777 5.04248 9.03708C5.04248 9.40639 5.56421 9.56467 5.79869 9.27156C5.95697 9.07225 5.95111 8.93742 5.79283 8.7557C5.63455 8.58569 5.47041 8.53294 5.29455 8.60328Z" fill="black"/>
<path d="M0.903929 8.96669C0.774962 9.02531 0.645996 9.24221 0.645996 9.38876C0.645996 9.4298 0.698755 9.53532 0.7691 9.62325C0.921515 9.8167 1.23221 9.83428 1.40807 9.65842C1.58393 9.48256 1.56635 9.17187 1.3729 9.01945C1.2029 8.88462 1.09152 8.8729 0.903929 8.96669Z" fill="black"/>
<path d="M6.80107 10.1275C6.51969 10.4089 6.78935 10.9424 7.17038 10.8662C7.54556 10.7958 7.68625 10.3855 7.42832 10.1393C7.25245 9.97513 6.95935 9.96927 6.80107 10.1275Z" fill="black"/>
<path d="M2.85004 10.6022C2.54521 10.8425 2.72107 11.3584 3.11383 11.3584C3.3659 11.3584 3.54177 11.1767 3.54177 10.9187C3.54177 10.526 3.16659 10.356 2.85004 10.6022Z" fill="black"/>
<path d="M8.16698 11.8274C7.90319 11.933 7.83284 12.3023 8.03215 12.5192C8.20802 12.7068 8.51284 12.695 8.67112 12.4957C8.87043 12.2437 8.82354 11.9916 8.55388 11.8568C8.36629 11.7571 8.34871 11.7571 8.16698 11.8274Z" fill="black"/>
<path d="M4.31556 12.7126C4.11625 12.8708 4.10452 13.1757 4.29211 13.3515C4.51487 13.5567 4.8197 13.4981 4.96039 13.2226C5.0366 13.076 5.0366 13.0174 4.97798 12.8767C4.85487 12.5719 4.57935 12.5074 4.31556 12.7126Z" fill="black"/>
<path d="M8.88798 13.9494C8.83522 14.0198 8.79419 14.1663 8.79419 14.266C8.79419 14.6529 9.27488 14.8053 9.53868 14.5005C9.70282 14.307 9.70868 14.1722 9.5504 13.9729C9.39212 13.7677 9.02281 13.756 8.88798 13.9494Z" fill="black"/>
<path d="M5.04264 15.1688C4.83161 15.3799 4.91954 15.7668 5.20092 15.8781C5.40609 15.9543 5.6523 15.8547 5.74023 15.6612C5.83403 15.4561 5.8223 15.3799 5.68161 15.204C5.5292 15.0105 5.2185 14.993 5.04264 15.1688Z" fill="black"/>
<path d="M-11.8989 18.2934C-12.1921 18.4458 -12.4265 18.821 -12.4265 19.1258C-12.4265 19.2313 -12.3152 19.5361 -12.1862 19.8058C-11.9927 20.1986 -11.8345 20.3979 -11.4358 20.7965C-10.7441 21.4824 -10.0231 21.8282 -9.14962 21.8927L-8.71582 21.9279L-8.751 22.6724C-8.77445 23.0769 -8.80962 24.2727 -8.83307 25.3279L-8.86824 27.239L-9.14376 27.4148C-9.29031 27.5145 -9.53652 27.7196 -9.68893 27.8838C-9.87652 28.0831 -10.0465 28.2003 -10.2517 28.2707C-10.58 28.3762 -11.2131 28.8159 -11.3127 29.0034C-11.3714 29.1148 -11.4241 29.1207 -13.0479 29.1207H-14.7186L-14.8593 29.2672C-15.0469 29.449 -15.0469 29.6717 -14.8593 29.8535L-14.7186 30H0.00112343H14.7209L14.8616 29.8535C15.0491 29.6717 15.0491 29.449 14.8616 29.2672L14.7209 29.1207H13.0795H11.444L11.3208 28.9214C11.0277 28.4465 10.3712 27.9717 9.76153 27.7959C9.55049 27.7372 9.31014 27.6083 9.14601 27.4793C8.99945 27.3562 8.82359 27.2272 8.75324 27.1921C8.62428 27.1276 8.61842 27.0865 8.61842 26.5238C8.61842 26.1955 8.636 25.5096 8.65945 24.9996L8.69462 24.0793H8.99359C9.42152 24.0793 9.9198 23.9386 10.4943 23.6572C11.186 23.3231 11.8367 22.6724 12.1826 21.9748C12.3174 21.7051 12.4288 21.4003 12.4288 21.2948C12.4288 20.99 12.1943 20.6148 11.9012 20.4624C11.5905 20.2982 11.4381 20.2924 10.9574 20.4506C10.2481 20.6851 9.58566 21.0662 9.07566 21.5469L8.79428 21.8106V21.5527C8.79428 21.2537 8.94083 19.9348 9.05221 19.2196C9.09911 18.9441 9.1167 18.6803 9.09911 18.6334C9.03463 18.4341 8.88807 18.3344 8.67704 18.3344C8.34876 18.3344 8.26669 18.4634 8.16117 19.1961C8.11427 19.542 8.06152 19.841 8.04979 19.8527C8.03807 19.8644 7.85634 19.7062 7.63944 19.501C7.00047 18.8855 6.37909 18.5161 5.58185 18.2758C4.94288 18.0823 4.52081 18.223 4.28632 18.7096C4.11046 19.0672 4.13391 19.2548 4.40356 19.7999C5.00736 21.0017 6.36737 21.9044 7.58669 21.9103H7.87393L7.83876 22.6841C7.81531 23.112 7.78014 24.2141 7.76255 25.1345L7.72151 26.8052L7.276 26.811C7.02392 26.811 6.69565 26.8579 6.52564 26.9165C6.2384 27.0103 6.20909 27.0103 5.88081 26.9165C5.66392 26.8462 5.3415 26.811 4.98391 26.811C4.30977 26.811 3.78804 26.9517 3.22528 27.2917L2.84424 27.5262L2.63907 27.3621C2.12907 26.9576 1.36113 26.7407 0.7163 26.8052L0.35285 26.8462L0.364574 25.4745L0.38216 24.1086L0.833542 24.0676C1.36113 24.0207 1.98252 23.8155 2.45148 23.54C3.26045 23.0651 4.1046 21.922 4.1046 21.2948C4.1046 20.8024 3.7646 20.4155 3.27804 20.3568C2.76217 20.2924 1.62493 20.8141 0.839404 21.4824L0.458367 21.8048L0.49354 21.5234C0.511127 21.3651 0.540437 21.0368 0.558023 20.7965C0.581471 20.5562 0.645955 20.0168 0.710438 19.6006C0.769059 19.1844 0.821818 18.7799 0.821818 18.7096C0.821818 18.3755 0.305953 18.1996 0.0714684 18.4517C-0.034049 18.563 -0.0633593 18.7096 -0.209912 19.6827L-0.239223 19.8937L-0.667156 19.4775C-1.41751 18.7565 -2.77751 18.0823 -3.29338 18.182C-3.77993 18.2758 -4.10235 18.6451 -4.10235 19.1141C-4.10235 19.8058 -3.19958 20.9782 -2.30268 21.4589C-1.82785 21.711 -1.11268 21.9103 -0.684743 21.9103H-0.391638L-0.432673 22.1858C-0.450258 22.3441 -0.485431 23.4638 -0.50888 24.6831C-0.544052 26.8931 -0.544052 26.899 -0.667156 26.8696C-1.30026 26.7172 -2.16786 26.8169 -2.82441 27.1158L-3.21717 27.2917L-3.61579 27.0983C-4.27821 26.7641 -4.91718 26.7172 -5.66753 26.9283C-5.94891 27.0045 -6.0134 27.0045 -6.31236 26.9165C-6.66409 26.811 -7.51996 26.7758 -7.8072 26.8521L-7.97134 26.8931V26.2893C-7.97134 25.9552 -7.95375 25.322 -7.93616 24.8882L-7.89513 24.0969L-7.44961 24.0617C-6.57616 23.9913 -5.81408 23.622 -5.12236 22.9362C-4.75304 22.5727 -4.59477 22.3558 -4.40718 21.9748C-4.27235 21.7051 -4.16097 21.4003 -4.16097 21.2948C-4.16097 20.99 -4.39545 20.6148 -4.68856 20.4624C-4.99925 20.2982 -5.15167 20.2924 -5.63236 20.4506C-6.34167 20.6851 -7.00409 21.0662 -7.51409 21.5469L-7.79547 21.8106V21.5527C-7.79547 21.2537 -7.64892 19.9348 -7.53754 19.2196C-7.49064 18.9441 -7.47306 18.6803 -7.49064 18.6334C-7.55513 18.4341 -7.70168 18.3344 -7.91272 18.3344C-8.24099 18.3344 -8.32306 18.4634 -8.42858 19.1961C-8.47548 19.542 -8.52824 19.841 -8.53996 19.8527C-8.55169 19.8644 -8.73341 19.7062 -8.95031 19.501C-9.58342 18.8913 -10.1989 18.522 -10.9845 18.2817C-11.4886 18.1234 -11.5883 18.1292 -11.8989 18.2934ZM-10.3572 19.5244C-10.1403 19.6475 -9.81204 19.8937 -9.61859 20.0696C-9.26686 20.392 -8.86238 20.9489 -8.92686 21.0134C-8.99721 21.0837 -9.6479 20.9079 -10.07 20.7086C-10.3689 20.5679 -10.6151 20.392 -10.8672 20.1399C-11.2131 19.7882 -11.5765 19.1961 -11.512 19.0906C-11.471 19.0203 -10.8203 19.2665 -10.3572 19.5244ZM-2.57234 19.2665C-1.82199 19.5772 -1.01888 20.2337 -0.708191 20.7965L-0.5675 21.0486L-0.854744 21.0017C-1.5113 20.9079 -2.12682 20.5972 -2.58406 20.1399C-2.88889 19.8351 -3.22303 19.3134 -3.22303 19.1375C-3.22303 19.0144 -3.16441 19.0261 -2.57234 19.2665ZM6.23254 19.5244C6.44944 19.6475 6.77772 19.8937 6.97116 20.0696C7.32289 20.392 7.72738 20.9489 7.66289 21.0134C7.58669 21.0837 6.93013 20.9079 6.50806 20.6968C5.98047 20.4389 5.42943 19.9172 5.20081 19.4541C5.11874 19.2782 5.06012 19.1141 5.07771 19.0906C5.11874 19.0203 5.76943 19.2665 6.23254 19.5244ZM-5.08718 21.3593C-5.12236 21.5762 -5.48581 22.1038 -5.79064 22.3793C-5.96064 22.5375 -6.27719 22.7544 -6.49409 22.86C-6.87512 23.0534 -7.5903 23.2527 -7.65478 23.1824C-7.77789 23.0593 -6.87512 22.0627 -6.37098 21.7637C-5.98995 21.5469 -5.19856 21.201 -5.12822 21.2303C-5.09304 21.242 -5.07546 21.3006 -5.08718 21.3593ZM3.19597 21.3651C3.00252 22.1741 1.90045 23.0182 0.845266 23.1765L0.569748 23.2175L0.710438 22.9596C1.03285 22.3734 1.877 21.711 2.72114 21.3768C3.23701 21.1717 3.24873 21.1717 3.19597 21.3651ZM11.5026 21.3593C11.4674 21.5762 11.1039 22.1038 10.7991 22.3793C10.6291 22.5375 10.3126 22.7544 10.0957 22.86C9.71463 23.0534 8.99945 23.2527 8.93497 23.1824C8.81186 23.0593 9.71463 22.0627 10.2188 21.7637C10.5998 21.5469 11.3912 21.201 11.4615 21.2303C11.4967 21.242 11.5143 21.3006 11.5026 21.3593ZM-6.32409 27.8486L-5.93133 27.9659L-5.57374 27.831C-4.88787 27.579 -4.17856 27.6845 -3.62166 28.1241C-3.34028 28.3528 -3.15269 28.3469 -2.75407 28.089C-2.10337 27.6786 -1.31785 27.5848 -0.544052 27.831L-0.127843 27.9659L0.241469 27.831C0.780784 27.6259 1.30251 27.6434 1.78906 27.8838C1.99424 27.9834 2.24045 28.1593 2.33424 28.2648C2.68597 28.6693 2.87942 28.6869 3.26632 28.3469C3.78804 27.8955 4.60287 27.62 5.22426 27.6962C5.36495 27.7079 5.64633 27.7783 5.8515 27.8486L6.21495 27.9717L6.58427 27.8486C7.09427 27.6727 7.28186 27.6493 7.63358 27.7138C8.06738 27.7959 8.38393 27.9659 8.72393 28.3C8.95256 28.5169 9.0698 28.5931 9.19876 28.5931C9.43911 28.5931 9.95498 28.7924 10.1719 28.9741L10.3477 29.1148H0.206297C-6.62892 29.109 -9.87066 29.0914 -9.72997 29.0503C-9.59514 29.0152 -9.3841 28.8452 -9.10859 28.5579C-8.3172 27.7314 -7.42616 27.5027 -6.32409 27.8486Z" fill="black"/>
</svg>
