<svg width="159" height="143" viewBox="0 0 159 143" fill="none" xmlns="http://www.w3.org/2000/svg">
<path d="M23.0718 123.306C27.4433 113.891 32.8698 105.001 37.0326 95.5102C39.6202 89.6105 43.8265 84.5981 47.4483 79.3219C51.6087 73.2611 54.9029 66.623 59.1817 60.6238C61.2888 57.6695 62.2379 54.0615 63.3072 50.616C64.5523 46.6037 66.3733 42.7652 67.4954 38.7257C68.3969 35.4805 70.8875 32.623 73.0484 30.1296" stroke="#FF9346" stroke-width="10" stroke-linecap="round"/>
<path d="M89.1427 5.00024C87.8046 6.11535 87.1909 7.33473 86.3035 8.87476C85.0965 10.9692 83.7726 12.9139 82.6799 15.0238C81.4081 17.4798 79.7908 19.7811 78.2878 22.0983C77.8444 22.7819 77.4821 23.4141 76.876 23.9336C76.6244 24.1492 76.4052 24.863 76.2485 25.1415C75.0735 27.2303 74.3131 29.5087 73.0799 31.5729C71.4749 34.2595 69.9662 36.9907 68.4211 39.7141C65.4173 45.0084 62.0152 50.2365 59.8406 55.9494C59.3924 57.1271 59.2766 58.0084 59.2132 59.2121C59.1361 60.6775 57.6028 62.921 57.0328 64.0906C55.7946 66.6313 54.4903 69.1376 53.0014 71.5416C51.7132 73.6216 50.3562 75.71 48.7661 77.5651" stroke="#FF9346" stroke-width="10" stroke-linecap="round"/>
<path d="M29.0015 124.718C31.7171 120.011 35.7072 116.107 38.6015 111.51C39.6997 109.766 40.2723 107.42 40.7348 105.424C41.9327 100.254 43.3846 95.0866 45.0329 90.0198C46.3539 85.9588 47.5694 81.9464 48.9858 77.9413C49.667 76.0152 50.7176 72.8655 52.1545 71.3531C52.3879 71.1073 52.792 70.6912 53.0643 70.506C54.4548 69.5605 52.5953 72.4905 52.4368 72.7649C50.6523 75.8534 50.178 79.8245 50.178 83.3688C50.178 84.6358 49.6133 85.6752 49.6133 86.9923C49.6133 88.5032 50.0834 83.988 50.6015 82.5688C51.3112 80.6249 52.2057 78.9132 53.1427 77.0943C54.6451 74.1779 56.0828 71.5522 57.9113 68.8433C58.9538 67.2989 60.0844 65.7628 61.0486 64.2629C62.1285 62.583 62.5679 60.44 63.4643 58.6472C64.734 56.1077 65.9999 53.6354 67.1192 51.0236C68.094 48.7492 69.5734 46.978 70.6643 44.7962C71.4519 43.221 73.3679 41.8774 73.8957 40.2942" stroke="#FF9346" stroke-width="10" stroke-linecap="round"/>
<path d="M74.1782 39.7298C75.7451 36.355 80.9547 33.7228 80.9547 29.7062C80.9547 27.6626 82.4947 25.3807 83.3704 23.6042C83.8434 22.6448 84.0082 22.0461 84.9077 21.5964C85.714 21.1932 85.5688 19.9189 86.4763 19.4003C87.064 19.0645 88.9507 17.2497 89.143 16.5768C89.5299 15.2224 90.3842 13.7636 90.8998 12.4042C91.1158 11.8349 91.7122 10.5439 92.2489 10.365" stroke="#FF9346" stroke-width="10" stroke-linecap="round"/>
<path d="M149.566 93.9416C144.449 90.3128 139.154 86.9191 134.006 83.3377C131.708 81.7394 129.423 80.1284 127.166 78.4749C125.148 76.9965 123.221 76.1548 120.97 75.118C117.489 73.5149 114.373 71.7689 111.198 69.6278C108.36 67.7148 105.517 66.2631 102.507 64.6553C100.411 63.5354 98.4887 62.1189 96.4368 60.9219C93.7217 59.3381 90.8787 57.9902 88.1388 56.4513C83.9941 54.1235 80.2772 51.2425 76.1544 48.9062C74.0974 47.7406 72.0438 46.5748 70.0054 45.3768C66.6063 43.3791 63.0755 41.6044 59.7152 39.5415C57.9247 38.4423 56.3282 37.1578 54.4446 36.216C52.6168 35.3021 50.9311 33.9701 49.0171 33.3611C44.8777 32.044 40.9827 30.1651 36.9386 28.5924C35.9629 28.213 35.298 27.6076 34.6484 26.7415" stroke="#FF9346" stroke-width="10" stroke-linecap="round"/>
<path d="M153.237 88.2947C148.535 86.1743 144.512 82.1153 140.17 79.3221C136.974 77.2658 133.903 75.0388 130.712 72.9849C126.656 70.3748 122.727 68.1456 117.927 67.1496C111.309 65.776 104.932 63.8741 98.5703 61.5966C96.0964 60.7109 93.8924 59.7538 91.7154 58.3025C89.7427 56.9873 87.649 55.9357 85.786 54.4437C84.3479 53.2919 83.1164 51.9221 81.7076 50.7417C79.7553 49.106 77.975 46.7988 76.2174 44.9378C75.0647 43.7173 73.106 43.5011 71.7938 42.3809C70.1907 41.0124 68.439 39.7879 67.0879 38.177C65.0735 35.7751 61.9143 34.7953 59.0722 33.7848C56.5137 32.8751 54.1765 31.4 51.5898 30.6946" stroke="#FF9346" stroke-width="10" stroke-linecap="round"/>
<path d="M36.625 19.6829C38.2238 20.3533 39.8119 21.4131 41.1427 22.5221C43.6161 24.5833 46.4465 25.6434 49.4878 26.679C54.1104 28.253 60.0996 28.4882 64.28 31.275C68.3604 33.9953 72.2276 36.923 75.8408 40.3104C78.0472 42.3788 80.3657 43.9612 82.8682 45.6594C84.1022 46.4967 85.7738 46.385 87.1349 46.9143C89.0332 47.6525 91.1556 48.4535 92.8134 49.6751C94.2345 50.7223 95.4836 52.3874 96.9389 53.2829C97.7814 53.8014 98.2182 54.6215 98.9624 55.2594C99.5361 55.7512 100.327 56.1306 100.829 56.6712C101.662 57.5682 102.989 58.4585 104.17 58.8673C105.313 59.2628 106.905 58.8233 107.919 59.3692C109.156 60.0351 110.812 60.1943 112.17 60.5614C114.044 61.0677 115.758 62.2504 117.096 63.4477C118.43 64.6413 120.003 65.1359 121.613 65.9732C122.568 66.4696 123.669 66.9643 124.782 66.8359C125.99 66.6966 123.892 63.923 123.59 63.4477" stroke="#FF9346" stroke-width="10" stroke-linecap="round"/>
<path d="M5.00146 71.3533C10.3103 73.6954 15.494 76.3338 20.7819 78.7258C34.307 84.844 47.9976 90.5881 61.5036 96.7494C71.9292 101.506 82.116 106.931 91.8723 112.953C93.086 113.703 93.6605 114.566 93.6605 115.965C93.6605 118.047 95.6894 119.57 97.1742 120.765C99.0857 122.303 101.059 123.254 103.041 124.498C107.203 127.112 112.233 128.339 116.751 130.146C117.626 130.496 120.724 134.403 121.614 132.624" stroke="#FF9346" stroke-width="10" stroke-linecap="round"/>
<path d="M127.543 130.648C121.981 126.643 116.361 122.956 109.911 120.765C108.321 120.225 106.936 119.308 105.394 118.648C104.672 118.338 103.892 118.014 103.48 117.377C103.024 116.672 101.613 116.568 100.939 116.185C99.8201 115.549 98.9691 114.605 97.7545 114.13C95.3462 113.188 93.0431 111.624 90.7113 110.475C88.9186 109.591 87.3661 108.733 85.7544 107.557C84.808 106.867 83.631 105.735 82.6329 105.236C81.3625 104.601 80.4345 103.45 79.1348 102.867C77.6007 102.179 76.3204 101.199 74.8368 100.373C72.6496 99.1548 70.6536 97.7487 68.5309 96.4515C65.914 94.8523 63.0359 93.7194 60.3583 92.2318C59.203 91.59 58.204 90.7384 57.0799 90.0514C56.1932 89.5096 55.163 89.2847 54.3034 88.7024C53.3166 88.034 51.72 87.1483 51.0249 86.1926C50.6355 85.6572 50.0611 85.3081 49.4877 85.0475C48.1184 84.4251 46.9464 83.4592 45.5347 82.9298C43.9596 82.3392 42.4878 81.4848 40.9857 80.7338C40.1141 80.298 39.1287 80.1214 38.3347 79.5259C37.3968 78.8225 36.6475 78.3602 35.5896 77.8161C34.7094 77.3634 34.0116 76.7152 33.1739 76.2161C32.6282 75.891 31.6469 75.8453 31.3229 75.2436C30.7659 74.2091 29.2681 73.8423 28.3112 73.2043C26.6113 72.0711 24.8931 70.9635 23.2131 69.8004C22.1493 69.0639 21.4906 69.1676 20.2484 69.0945C19.2688 69.0369 18.0255 67.118 17.0013 67.118C15.9795 67.118 14.9915 66.8357 14.0366 66.8357" stroke="#FF9346" stroke-width="10" stroke-linecap="round"/>
<path d="M8.38965 64.8591C9.14878 65.7132 9.61739 66.7297 10.9936 66.8356C11.9501 66.9092 12.9148 67.7021 13.7544 68.1219C15.7449 69.1172 17.6583 71.6356 19.9661 71.6356" stroke="#FF9346" stroke-width="10" stroke-linecap="round"/>
<path d="M49.3306 95.9182C53.5925 98.4754 57.7295 101.191 61.9267 103.824C63.7303 104.956 65.6247 106.029 67.5424 106.914C69.6227 107.874 71.7647 106.975 73.8796 107.636C79.3929 109.359 83.7873 112.963 88.6405 115.808C90.666 116.996 92.8626 117.871 94.8366 119.228C95.8716 119.94 97.111 120.493 98.3032 120.891C98.7361 121.035 99.752 121.28 100.013 121.628C100.917 122.833 102.659 123.302 103.731 124.373C105.804 126.447 108.242 128.116 110.319 130.365" stroke="#FF9346" stroke-width="10" stroke-linecap="round"/>
<path d="M70.2251 137.424C72.6029 133.008 75.2235 128.311 78.2879 124.342C79.4545 122.831 81.8069 121.285 82.633 119.495C83.1512 118.372 83.9334 117.421 84.782 116.53C85.6303 115.639 86.0079 114.3 86.7271 113.299C88.3276 111.071 89.4356 108.428 91.2604 106.365C93.046 104.347 94.38 101.847 95.6056 99.4635C96.8479 97.0477 97.2069 94.3294 98.6173 92.0282C100.599 88.7955 102.484 85.2955 104.108 81.8164C105.159 79.5633 106.193 77.2394 107.339 74.9928C108.472 72.7728 109.479 69.2285 111.229 67.3379C113.714 64.6541 115.296 61.092 117.645 58.3026C118.187 57.6589 118.79 57.2316 118.79 56.3261C118.79 54.9895 119.958 53.3803 120.484 52.1536" stroke="#FF9346" stroke-width="10" stroke-linecap="round"/>
<path d="M120.484 52.1533C121.274 51.3635 122.047 50.4055 122.445 49.3454C122.71 48.6385 123.445 48.2025 123.809 47.5101C123.939 47.2633 124.311 46.6027 124.594 46.5219C125.978 46.1264 126.864 43.8534 127.778 42.7258C128.392 41.9692 129.033 41.139 129.519 40.2944C130.436 38.7026 132.326 37.7995 132.86 35.8395C133.025 35.2367 132.979 33.4824 133.472 33.2356" stroke="#FF9346" stroke-width="10" stroke-linecap="round"/>
<path d="M139.684 35.2122C139.6 35.5917 138.537 36.7984 138.209 37.1259C137.676 37.6593 137.151 38.2144 136.578 38.7573C135.825 39.4706 135.068 40.0264 134.508 40.9533C134.181 41.4939 133.462 42.0719 133.253 42.6161C132.601 44.3112 132.103 45.7941 131.213 47.4161C129.649 50.2684 127.977 53.0571 126.57 55.9495C125.692 57.7548 125.407 59.715 124.374 61.471C123.803 62.4416 122.223 62.4396 121.613 63.3534C120.224 65.4381 118.314 67.2012 116.782 69.2201C115.162 71.355 113.451 73.7137 112.233 76.1221C112.113 76.3595 110.262 80.5557 109.472 78.977" stroke="#FF9346" stroke-width="10" stroke-linecap="round"/>
<path d="M114.837 75.8713C113.711 78.7154 111.665 81.2421 109.817 83.6517C108.705 85.1022 107.707 86.6286 106.382 87.8871C105.878 88.366 105.657 89.2235 104.955 89.4243C104.541 89.5424 104.134 89.7983 104.108 90.2714C104.047 91.3578 102.677 92.9452 101.99 93.7851C100.833 95.1996 100.411 97.1422 99.731 98.8675C98.9909 100.746 98.2211 102.551 97.3938 104.389C97.0445 105.165 96.3733 106.158 96.2016 106.93C96.1083 107.35 94.9885 108.819 94.6643 109.189C93.7083 110.282 92.6605 111.797 92.2173 113.126C92.0207 113.716 91.1539 114.571 90.8212 115.134C90.4551 115.754 90.0291 117.332 89.4251 117.722C88.6012 118.256 87.8186 119.965 87.3075 120.766C85.6372 123.38 84.3562 125.961 82.0839 128.107C81.6105 128.554 80.5935 129.296 79.982 129.519C79.268 129.778 78.978 128.985 78.978 129.817C78.978 131.694 78.978 133.571 78.978 135.448" stroke="#FF9346" stroke-width="10" stroke-linecap="round"/>
</svg>
