<svg width="36" height="31" viewBox="0 0 36 31" fill="none" xmlns="http://www.w3.org/2000/svg">
<path d="M8.5533 0.0452213C5.31939 0.536102 2.67731 2.50664 1.13433 5.57114C0.704555 6.43369 0.408642 7.28221 0.19023 8.3341C0.0281822 9.09847 0.00704555 9.38599 0 10.515C0 11.609 0.0211367 11.9316 0.155002 12.5487C0.612963 14.6524 1.66275 16.7913 3.29027 18.9512C4.9178 21.104 7.5951 23.7618 10.3499 25.9497C12.3227 27.5205 15.2536 29.5682 16.9446 30.564C17.9098 31.132 18.0718 31.139 18.9525 30.6201C22.8346 28.32 27.6256 24.5332 30.3804 21.5949C33.5721 18.1868 35.2559 15.3256 35.8689 12.2752C36.0591 11.3495 36.038 9.45611 35.8337 8.42526C35.1784 5.16441 33.2409 2.45755 30.5425 1.06205C29.697 0.620255 29.2743 0.458965 28.3865 0.234562C27.4283 -0.0108795 25.7444 -0.0739918 24.7581 0.0943108C23.6237 0.290663 22.2428 0.816607 21.348 1.38463C20.2489 2.08588 19.0723 3.21491 18.403 4.2107C18.1987 4.51224 18.0155 4.76469 17.9943 4.76469C17.9732 4.76469 17.783 4.50523 17.5716 4.18265C17.0643 3.42529 15.7398 2.10692 14.9648 1.595C13.8022 0.830631 12.5552 0.325726 11.2588 0.101322C10.7022 0.00314713 9.0324 -0.0319176 8.5533 0.0452213Z" fill="currentColor"/>
</svg>
