<svg width="1355" height="538" viewBox="0 0 1355 538" fill="none" xmlns="http://www.w3.org/2000/svg">
<path d="M1236.98 390.779C1230.38 396.912 1229.03 400.911 1225.37 426.139C1223.57 437.531 1223.57 437.531 1230.74 445.306C1236.18 451.123 1239.22 452.492 1242.2 450.965C1251.22 446.609 1260.96 444.969 1265.08 446.774C1270.92 449.573 1272.03 454.61 1273.65 486.907C1274.36 502.233 1275.94 518.056 1277.15 522.58L1279.27 530.497L1331.53 516.496L1384.01 502.433L1379.44 490.808C1371.11 468.793 1330.2 413.809 1309.16 395.928C1291.42 381.286 1277.94 377.138 1259.15 381.204C1247.72 383.782 1242.08 386.263 1236.98 390.779ZM1292.5 388.028C1295.3 389.458 1297.78 391.461 1298.08 392.592C1298.75 395.08 1233.77 412.25 1231.29 410.247C1230.31 409.298 1231.39 406.098 1233.62 403.561C1239.63 396.132 1285.16 384.175 1292.5 388.028ZM1261.63 410.361L1268.07 411.787L1262.4 415.972C1259.15 418.299 1251.53 421.552 1245.43 423.188L1234.34 426.158L1236.45 419.533C1238.99 411.822 1250.67 407.478 1261.63 410.361ZM1319.22 409.96L1323.79 414.315L1300.94 420.437C1280.35 425.953 1277.97 426.106 1277 422.487C1275.18 415.7 1277.26 414.416 1296.22 410.063C1312.24 406.499 1314.91 406.511 1319.22 409.96ZM1337.78 432.144C1339.57 434.33 1341.37 436.515 1341.55 437.194C1341.74 437.872 1327.67 442.369 1310.25 447.037L1278.58 455.523L1277.06 449.867L1275.55 444.212L1304.95 436.332C1331.65 429.18 1334.48 428.905 1337.78 432.144ZM1354.82 455.944C1356.05 457.798 1357.39 460.105 1357.69 461.236C1358 462.367 1341.27 467.818 1318.65 473.879C1281.78 483.759 1279 484.26 1277.97 480.415C1277.37 478.152 1277.32 475.256 1278.04 474.335C1278.48 473.248 1295.49 467.963 1315.85 462.508C1347.06 454.143 1352.84 453.08 1354.82 455.944ZM1369.12 478.54C1370.66 478.855 1372.68 480.98 1373.35 483.468C1374.5 487.766 1373.2 488.356 1328.41 500.358C1300.59 507.813 1281.35 512 1280.08 510.885C1279.1 509.936 1278.76 506.874 1279.22 504.082C1280.4 499.405 1282.82 498.512 1323.17 488.914C1346.81 483.063 1367.41 478.512 1369.12 478.54Z" fill="black" fill-opacity="0.3"/>
<path d="M1240.71 416.451C1238.39 420.467 1240.75 422.018 1246.86 420.381C1255.23 418.139 1259.52 413.351 1253.77 412.71C1248.31 412.233 1241.98 413.931 1240.71 416.451Z" fill="black" fill-opacity="0.3"/>
<path d="M180.011 244.401C177.515 244.192 173.659 244.737 171.274 245.669L166.867 247.435L167.94 251.442C168.641 253.695 170.315 256.663 171.781 258.124C178.73 264.754 176.059 270.448 161.944 279.696C155.541 283.852 149.499 288.985 145.126 294.158C134.052 307.472 134.106 306.579 143.344 311.912L151.195 316.445L157.337 307.674C160.617 302.794 164.856 297.851 166.664 296.586C169.601 294.432 169.05 295.654 163.063 306.823L156.209 319.494L164.146 323.614L172.082 327.735L182.034 310.232C199.021 280.01 202.459 265.521 195.182 254.392C191.075 248.172 186.474 245.207 180.011 244.401ZM186.072 253.905L188.785 257.472L183.61 257.102C179.923 256.821 177.067 255.634 174.216 253.372L170.228 250.146L174.831 249.108C180.21 248.057 182.306 248.96 186.072 253.905Z" fill="black" fill-opacity="0.3"/>
<path d="M177.304 250.69C175.168 251.458 175.381 251.889 178.383 253.622C182.309 255.889 185.156 255.224 182.985 252.584C180.929 250.012 180.054 249.661 177.304 250.69Z" fill="black" fill-opacity="0.3"/>
<path d="M912.09 97.8788C907.727 102.639 909.71 106.605 915.263 104.82C918.833 103.829 919.23 104.225 918.04 108.589C917.048 113.15 918.833 127.629 921.808 136.752C924.188 143.694 912.883 129.612 908.718 120.29C904.752 111.365 900.388 109.977 899.397 117.514C898.008 126.835 915.065 148.454 928.75 154.602C933.113 156.585 936.683 158.767 936.683 159.362C936.683 161.742 925.378 167.493 920.817 167.493C918.635 167.493 913.875 166.105 910.702 164.32C903.958 160.948 899 161.742 899 166.303C899 170.27 911.297 175.427 921.213 175.427C927.56 175.427 932.518 173.84 939.261 169.477C944.418 166.105 949.376 163.527 950.17 163.527C950.963 163.527 955.525 166.303 960.483 169.477C966.83 173.84 971.788 175.427 977.936 175.427C989.836 175.427 1000.15 170.865 1000.15 165.312C1000.15 162.138 999.356 161.345 996.778 162.138C978.135 168.287 976.35 168.485 969.408 164.717C961.276 160.353 960.681 158.37 967.028 156.387C974.961 154.007 987.456 144.09 992.415 136.355C999.753 125.249 1002.93 115.53 999.753 113.547C995.39 110.969 994.398 111.762 990.035 121.679C987.853 127.034 983.886 133.38 981.308 135.76L976.548 140.124L979.523 130.802C981.11 125.447 982.3 117.514 982.3 112.952C982.3 105.614 982.895 104.82 986.861 104.82C993.01 105.019 992.415 99.8621 985.87 96.0938C976.35 90.9372 973.573 94.7055 972.383 114.142C970.796 135.562 966.235 144.685 952.946 151.429C949.178 153.412 947.591 153.214 942.633 149.644C932.915 142.702 928.155 131.199 926.965 111.96C925.775 95.6972 925.577 95.1022 920.618 94.5072C917.643 94.1105 914.272 95.4988 912.09 97.8788Z" fill="black" fill-opacity="0.3"/>
<path d="M928.749 189.111C927.163 190.301 923.593 190.499 920.618 189.904C916.453 189.111 914.469 189.904 912.089 193.474C908.321 199.424 906.139 213.308 908.718 216.877C912.089 222.034 916.849 217.671 916.849 209.539C916.849 200.614 923.196 192.879 927.163 196.846C933.113 202.796 941.839 196.648 936.683 190.301C933.906 186.929 932.716 186.731 928.749 189.111Z" fill="black" fill-opacity="0.3"/>
<path d="M946.798 189.309C943.029 191.491 945.013 198.234 949.574 198.234C952.153 198.234 953.739 196.648 954.136 194.069C954.731 189.508 950.764 186.731 946.798 189.309Z" fill="black" fill-opacity="0.3"/>
<path d="M962.466 190.301C960.482 192.681 960.482 193.871 962.466 196.251C967.424 202.201 975.754 197.639 972.184 190.896C969.804 186.533 965.837 186.334 962.466 190.301Z" fill="black" fill-opacity="0.3"/>
<path d="M976.35 193.276C976.35 195.26 977.54 197.838 979.126 198.631C980.713 199.623 982.3 203.986 982.696 209.143C983.093 216.481 983.886 218.068 987.258 218.068C994.001 218.068 994.001 199.226 987.06 192.483C982.696 187.921 976.35 188.318 976.35 193.276Z" fill="black" fill-opacity="0.3"/>
<path d="M775.136 165.482C767.928 170.472 768.378 182.722 776.037 188.846C779.191 191.341 782.795 193.837 784.372 194.29C786.174 194.971 785.723 196.786 782.57 200.415C778.29 205.179 778.064 208.581 778.064 255.764C778.064 298.863 778.515 305.895 781.443 305.895C784.372 305.895 785.047 298.636 785.948 258.259C786.624 231.946 787.976 209.262 788.877 207.674C792.931 201.549 794.734 205.632 795.409 221.284C795.86 234.894 796.761 237.843 800.14 238.524C803.519 239.204 803.969 237.163 803.969 221.965C803.969 206.766 804.42 204.725 808.024 205.405C811.403 206.086 811.853 210.396 812.529 253.495C812.979 301.812 814.556 309.978 821.089 304.534C823.566 302.492 824.242 292.058 824.242 256.217C824.242 213.798 823.792 210.169 819.512 202.683C815.908 196.786 815.457 194.744 817.71 193.837C823.566 192.022 831 182.268 831 176.824C831 165.936 818.16 159.13 806.447 164.121C801.717 165.936 798.563 166.162 795.409 164.348C788.877 160.945 780.993 161.172 775.136 165.482ZM791.355 172.287C793.607 173.194 794.959 176.37 794.959 180.453C794.959 186.351 794.283 187.031 790.003 185.67C782.57 183.402 778.29 178.638 779.867 174.555C781.443 170.699 785.498 170.019 791.355 172.287ZM819.962 174.555C822.44 177.731 821.99 178.865 817.485 182.495C809.601 188.619 806.222 187.939 806.222 180.226C806.222 171.153 814.331 167.75 819.962 174.555Z" fill="black" fill-opacity="0.3"/>
<path d="M1064.66 191.131C1058.68 191.531 1043.88 195.779 1038.24 198.857L1032.96 201.605L1036.6 206.552C1038.59 209.201 1043.93 214.537 1048.24 218.405C1055.63 224.9 1056.97 225.62 1067.23 227.988C1076.46 230.117 1079.57 230.287 1086.2 228.808C1094.42 227.009 1109.96 220.742 1110.32 219.183C1110.71 217.494 1097.1 203.543 1090.38 198.846C1083.66 194.149 1072.02 190.642 1064.66 191.131ZM1090.78 206.601C1098.1 212.807 1102.03 217.135 1100.91 217.834C1100.56 218.164 1096.29 219.503 1091.53 221.142C1079.83 225.01 1070.15 224.83 1061.67 220.683C1054.39 217.225 1041.89 205.583 1043.18 203.554C1044.09 201.985 1059.66 197.368 1065.53 196.808C1072.93 196.188 1083.35 200.235 1090.78 206.601Z" fill="black" fill-opacity="0.3"/>
<path d="M1065.07 201.765C1058.19 207.291 1060.44 218.894 1068.75 220.813C1076.29 222.551 1083.26 216.635 1082.44 208.92C1081.83 203.853 1079.27 201.345 1073.16 199.936C1069.78 199.156 1067.75 199.646 1065.07 201.765Z" fill="black" fill-opacity="0.3"/>
<path d="M218.776 179.318C214.698 188.146 219.445 203.349 227.655 207.647C230.126 209.065 231.276 208.492 236.673 203.376C242.69 197.467 255.645 189.624 261.169 188.44C263.334 187.957 263.513 186.5 261.93 181.815C259.864 175.539 255.718 171.027 248.656 167.305C239.432 162.343 223.829 168.503 218.776 179.318ZM238.841 172.679C244.938 172.07 249.264 173.976 252.437 178.752L254.729 182.201L241.463 191.015L228.197 199.829L225.906 196.38C222.821 191.737 225.447 178.71 230.09 175.625C232.08 174.303 236.014 173.028 238.841 172.679Z" fill="black" fill-opacity="0.3"/>
<path d="M267.469 171.443C270.676 182.314 269.068 193.709 263.223 202.755C254.058 216.302 232.937 220.2 218.993 210.725C214.933 208.069 211.71 206.959 210.251 207.929C208.393 209.163 208.702 209.914 212.143 212.791C232.038 229.785 265.538 219.766 273.308 194.334C275.218 187.711 275.099 178.611 272.859 170.921C272.2 168.49 271.009 167.561 269.197 168C267.606 168.483 266.897 169.719 267.469 171.443Z" fill="black" fill-opacity="0.3"/>
<path d="M228.749 242.104C229.497 244.093 232.007 249.309 234.209 253.774C237.555 260.538 238.702 261.688 240.294 260.631C241.753 259.661 241.271 256.922 238.365 250.821L234.535 242.466L262.395 223.383L290.21 204.52L294.84 209.475C301.896 217.216 303.705 218.5 305.827 217.09C308.083 215.591 307.818 215.193 298.205 204.753L290.531 196.658L259.091 217.547L227.518 238.524L228.749 242.104Z" fill="black" fill-opacity="0.3"/>
<path d="M260.385 237.912C259.579 244.758 261.34 248.56 266.637 251.351C272.021 254.275 275.865 254.016 281.525 250.447C292.27 243.307 289.465 229.3 276.791 226.63C267.738 224.804 261.326 229.256 260.385 237.912Z" fill="black" fill-opacity="0.3"/>
<path d="M325.541 344.101C325.062 344.896 324.263 347.599 323.784 350.461C322.826 354.437 323.305 356.186 325.86 358.73C330.172 363.023 330.012 365.568 325.7 372.405C322.666 377.016 321.069 377.97 316.118 377.97C312.924 377.97 308.293 377.175 305.897 376.38C300.148 374.154 296.156 375.426 298.871 378.766C299.989 380.038 301.266 380.833 301.905 380.356C302.544 380.038 307.654 380.674 313.403 381.946C322.187 383.695 323.944 383.695 326.18 381.628C328.575 379.561 328.894 380.038 329.533 387.034C329.853 391.168 329.214 399.596 328.096 405.638C326.818 411.522 326.18 416.769 326.499 417.087C326.978 417.564 332.248 417.723 338.477 417.405L349.815 416.928L345.982 405.479C342.788 396.257 342.15 391.009 342.309 379.243C342.629 355.709 341.83 351.257 336.72 346.804C332.408 343.147 326.978 341.875 325.541 344.101Z" fill="black" fill-opacity="0.3"/>
<path d="M325.861 433.148C325.542 452.865 324.743 454.773 316.918 456.522C307.016 458.749 308.454 460.657 320.112 460.657C329.215 460.657 330.013 460.339 330.173 456.999C330.333 455.091 330.972 446.187 331.61 437.123C332.888 421.222 332.888 420.904 329.534 420.904C326.181 420.904 326.021 421.699 325.861 433.148Z" fill="black" fill-opacity="0.3"/>
<path d="M341.991 421.54C341.991 421.858 344.865 428.219 348.379 435.692C351.892 443.166 354.767 449.844 354.767 450.639C354.767 451.593 352.212 453.501 349.177 455.251C343.428 458.272 341.352 461.929 346.462 459.862C347.9 459.385 352.212 457.954 356.044 457C361.155 455.728 362.592 454.615 361.794 452.706C361.315 451.434 359.558 446.346 357.961 441.576C353.17 426.628 349.816 420.904 345.664 420.904C343.588 420.904 341.991 421.222 341.991 421.54Z" fill="black" fill-opacity="0.3"/>
<path d="M561.272 412.419C556.139 417.567 555.477 419.228 555.477 426.702C555.477 436.5 558.457 444.472 563.589 449.122C567.894 452.942 568.06 455.101 564.252 454.769C562.596 454.603 559.119 454.769 556.636 454.769L552 455.101L552.497 469.55C552.993 483.335 553.159 484.165 556.801 484.663C560.278 485.161 560.444 484.663 560.444 474.366C560.444 464.568 560.775 463.405 563.755 463.405C567.894 463.405 567.894 463.239 562.596 489.646C559.45 505.589 558.788 512.232 560.113 513.561C564.417 517.879 566.735 513.229 571.371 489.313C573.854 476.027 576.503 465.066 577 465.066C577.662 465.066 579.815 475.031 581.967 486.988C586.106 511.07 587.43 514.889 591.238 514.889C595.377 514.889 595.377 511.568 590.411 486.988L585.775 463.405H589.748C593.391 463.405 593.556 463.903 593.556 474.366C593.556 484.663 593.722 485.161 597.364 484.663C600.841 484.165 601.007 483.335 601.503 469.55L602 455.101H595.212C591.57 455.101 588.589 454.769 588.589 454.271C588.589 453.773 590.576 450.285 593.225 446.465C597.033 440.652 597.695 437.829 597.695 428.196C597.695 418.232 597.199 416.571 593.225 412.419C589.417 408.599 586.934 407.769 577.828 407.271C567.397 406.606 566.901 406.772 561.272 412.419ZM583.457 416.073C586.106 417.401 588.589 419.726 589.252 421.055C592.397 429.359 587.927 443.31 580.808 447.96C576.834 450.617 576.503 450.451 570.874 444.804C566.073 439.822 564.748 437.331 564.086 430.355C563.258 421.387 564.914 417.733 571.205 415.242C576.007 413.083 578.325 413.249 583.457 416.073Z" fill="black" fill-opacity="0.3"/>
<path d="M1074.83 51.5928C1074.27 54.7619 1073.71 57.931 1073.71 58.8631C1073.71 60.9137 1093.66 66.6927 1096.08 65.2014C1099.44 63.1508 1098.13 61.2866 1086.95 53.6434L1075.95 46.0002L1074.83 51.5928Z" fill="black" fill-opacity="0.3"/>
<path d="M1198.24 62.9641C1183.88 68.5567 1185.75 72.2851 1202.15 70.6073C1213.15 69.3024 1213.71 69.116 1213.15 64.6419C1212.41 58.3036 1210.73 58.1172 1198.24 62.9641Z" fill="black" fill-opacity="0.3"/>
<path d="M1072.22 72.0992L1072.78 80.1152L1083.59 80.6745C1094.22 81.2338 1094.22 81.2338 1094.22 75.8276C1094.22 71.1671 1093.28 70.235 1086.39 68.1844C1081.91 66.8795 1076.88 65.3881 1075.01 64.8288C1072.03 64.0832 1071.66 65.0153 1072.22 72.0992Z" fill="black" fill-opacity="0.3"/>
<path d="M1101.67 66.8791C1101.67 68.7433 1103.16 69.8618 1105.77 69.8618C1108.01 69.8618 1109.32 69.6754 1108.94 69.3026C1108.57 69.1161 1106.71 67.6248 1105.03 66.3198C1102.23 64.0828 1101.67 64.2692 1101.67 66.8791Z" fill="black" fill-opacity="0.3"/>
<path d="M1178.48 71.1671C1177.36 71.5399 1176.61 72.8448 1177.17 73.5905C1178.48 75.6411 1183.7 73.9633 1183.7 71.5399C1183.7 69.6757 1182.21 69.6757 1178.48 71.1671Z" fill="black" fill-opacity="0.3"/>
<path d="M1099.81 73.5904C1099.81 74.7089 1101.11 75.4546 1102.6 75.4546C1104.1 75.4546 1105.4 75.0818 1105.4 74.7089C1105.4 74.3361 1104.1 73.5904 1102.6 72.8447C1101.11 72.2855 1099.81 72.6583 1099.81 73.5904Z" fill="black" fill-opacity="0.3"/>
<path d="M1110.99 80.1153C1110.99 89.9956 1118.08 92.7918 1143.62 92.9783C1160.58 93.1647 1165.24 92.6054 1169.34 89.8091C1173.63 87.0128 1174.56 85.3351 1174 80.4882C1173.63 77.1326 1172.7 74.8956 1171.58 75.4548C1170.65 76.0141 1170.09 77.8783 1170.28 79.5561C1170.65 81.2338 1168.78 84.0301 1166.17 85.8943C1162.26 88.3178 1157.6 88.877 1141.01 88.1314C1119.2 87.3857 1114.72 85.7079 1114.72 78.0647C1114.72 75.6413 1113.98 73.5906 1112.86 73.5906C1111.93 73.5906 1110.99 76.5734 1110.99 80.1153Z" fill="black" fill-opacity="0.3"/>
<path d="M1197.31 74.8953C1193.02 75.4545 1191.15 76.7595 1191.15 78.8101C1191.15 84.5891 1193.95 86.2668 1204.2 86.8261L1214.46 87.5718L1215.02 80.4878C1215.57 73.7767 1215.39 73.5903 1209.42 73.9632C1206.07 73.9632 1200.47 74.5224 1197.31 74.8953Z" fill="black" fill-opacity="0.3"/>
<path d="M1098.88 79.1832C1099.44 80.1153 1101.49 81.0474 1103.16 81.0474C1105.96 81.0474 1105.96 80.6745 1103.54 79.1832C1099.81 76.7597 1097.38 76.7597 1098.88 79.1832Z" fill="black" fill-opacity="0.3"/>
<path d="M1179.97 79.1832C1179.97 80.1153 1181.27 81.0474 1182.77 81.0474C1184.26 81.0474 1185.56 80.1153 1185.56 79.1832C1185.56 78.0647 1184.26 77.319 1182.77 77.319C1181.27 77.319 1179.97 78.0647 1179.97 79.1832Z" fill="black" fill-opacity="0.3"/>
<path d="M1098.88 84.7755C1099.44 85.7076 1101.49 86.6396 1103.16 86.6396C1105.96 86.6396 1105.96 86.2668 1103.54 84.7755C1099.81 82.352 1097.38 82.352 1098.88 84.7755Z" fill="black" fill-opacity="0.3"/>
<path d="M1074.64 92.2327C1075.39 95.7746 1076.51 99.3166 1077.07 99.8758C1078.93 101.74 1096.08 95.7746 1096.08 93.3512C1096.08 88.6907 1092.73 87.0129 1083.4 86.4537L1073.52 85.708L1074.64 92.2327Z" fill="black" fill-opacity="0.3"/>
<path d="M1181.46 86.0802C1182.58 86.4531 1184.82 86.4531 1186.12 86.0802C1187.24 85.521 1186.31 85.1481 1183.7 85.1481C1181.09 85.1481 1180.16 85.521 1181.46 86.0802Z" fill="black" fill-opacity="0.3"/>
<path d="M1099.81 91.3003C1099.81 92.6052 1105.4 93.7237 1106.15 92.6052C1106.71 91.8595 1105.4 90.9275 1103.35 90.9275C1101.49 90.741 1099.81 90.9275 1099.81 91.3003Z" fill="black" fill-opacity="0.3"/>
<path d="M1178.1 91.1135C1178.1 91.4864 1179.22 92.7913 1180.71 93.9098C1182.58 95.5876 1183.51 95.4012 1184.44 93.1641C1185.19 91.2999 1184.26 90.3679 1181.83 90.3679C1179.78 90.3679 1178.1 90.7407 1178.1 91.1135Z" fill="black" fill-opacity="0.3"/>
<path d="M1189.85 93.9102C1187.98 96.8929 1188.36 97.6386 1192.65 99.6892C1195.44 100.994 1200.1 102.672 1202.9 103.604C1207.75 104.909 1208.49 104.536 1210.73 99.13L1213.15 93.1645L1206.44 91.8596C1195.26 89.809 1192.09 90.1818 1189.85 93.9102Z" fill="black" fill-opacity="0.3"/>
<path d="M1108.2 95.7743C1107.08 97.8249 1109.87 100.062 1111.74 98.3841C1113.42 96.7064 1113.04 94.0965 1111.18 94.0965C1110.06 94.0965 1108.94 94.8422 1108.2 95.7743Z" fill="black" fill-opacity="0.3"/>
<path d="M1115.84 97.6384C1115.1 98.9433 1114.91 100.435 1115.47 100.994C1117.15 102.672 1119.01 100.248 1118.08 97.6384C1117.33 95.5877 1116.96 95.5877 1115.84 97.6384Z" fill="black" fill-opacity="0.3"/>
<path d="M1171.58 97.8251C1172.14 98.7572 1174.56 99.6893 1176.8 99.5029C1180.71 99.5029 1180.71 99.3164 1177.17 97.8251C1171.95 95.5881 1170.28 95.5881 1171.58 97.8251Z" fill="black" fill-opacity="0.3"/>
<path d="M1088.06 102.112L1079.3 106.213L1084.34 112.365L1089.56 118.517L1097.76 110.874C1104.47 104.722 1105.4 103.044 1103.54 100.621C1100.55 97.0789 1099.06 97.2653 1088.06 102.112Z" fill="black" fill-opacity="0.3"/>
<path d="M1122.18 100.621C1122.18 102.113 1123.11 103.417 1124.04 103.417C1125.16 103.417 1125.91 102.113 1125.91 100.621C1125.91 99.1298 1125.16 97.8249 1124.04 97.8249C1123.11 97.8249 1122.18 99.1298 1122.18 100.621Z" fill="black" fill-opacity="0.3"/>
<path d="M1130.01 101.553C1130.01 104.163 1130.38 105.095 1130.94 103.79C1131.31 102.672 1131.31 100.435 1130.94 99.1299C1130.38 98.0114 1130.01 98.9435 1130.01 101.553Z" fill="black" fill-opacity="0.3"/>
<path d="M1155.73 101.366C1155.73 103.603 1156.67 105.281 1157.6 105.281C1158.72 105.281 1159.46 104.163 1159.46 102.671C1159.46 101.18 1158.72 99.3158 1157.6 98.7566C1156.67 98.1973 1155.73 99.3158 1155.73 101.366Z" fill="black" fill-opacity="0.3"/>
<path d="M1163.56 99.8757C1163.94 101.181 1165.43 102.672 1166.73 103.045C1168.22 103.604 1168.97 102.858 1168.41 101.367C1168.04 100.062 1166.55 98.5707 1165.24 98.1979C1163.75 97.6386 1163 98.3843 1163.56 99.8757Z" fill="black" fill-opacity="0.3"/>
<path d="M1135.23 102.485C1135.23 103.976 1136.16 105.281 1137.09 105.281C1138.21 105.281 1138.96 103.976 1138.96 102.485C1138.96 100.994 1138.21 99.6887 1137.09 99.6887C1136.16 99.6887 1135.23 100.994 1135.23 102.485Z" fill="black" fill-opacity="0.3"/>
<path d="M1142.87 102.672C1142.87 104.722 1143.43 105.282 1143.99 103.79C1144.55 102.485 1144.36 100.808 1143.8 100.248C1143.24 99.5026 1142.68 100.621 1142.87 102.672Z" fill="black" fill-opacity="0.3"/>
<path d="M1148.28 102.485C1148.28 103.976 1149.21 105.281 1150.14 105.281C1151.26 105.281 1152.01 103.976 1152.01 102.485C1152.01 100.994 1151.26 99.6887 1150.14 99.6887C1149.21 99.6887 1148.28 100.994 1148.28 102.485Z" fill="black" fill-opacity="0.3"/>
<path d="M1182.39 102.858C1181.09 103.231 1179.97 104.536 1179.97 105.282C1179.97 108.078 1191.34 120.195 1193.76 120.195C1195.07 120.195 1198.42 117.772 1201.41 114.603C1206.25 109.569 1206.44 109.01 1203.08 107.892C1201.22 107.146 1196.75 105.468 1193.2 104.163C1186.49 101.367 1185.93 101.367 1182.39 102.858Z" fill="black" fill-opacity="0.3"/>
<path d="M1100.18 113.298L1092.17 121.5L1099.81 124.856C1103.91 126.72 1107.64 127.839 1108.01 127.466C1108.38 127.093 1110.81 122.432 1113.42 117.026C1117.7 108.824 1117.89 107.332 1115.47 106.4C1110.06 104.35 1108.01 105.282 1100.18 113.298Z" fill="black" fill-opacity="0.3"/>
<path d="M1167.67 108.637C1164.68 110.501 1171.77 129.516 1175.5 129.516C1176.99 129.516 1180.72 128.211 1183.88 126.72L1189.48 123.737L1182.58 115.535C1176.05 107.519 1172.14 105.654 1167.67 108.637Z" fill="black" fill-opacity="0.3"/>
<path d="M1117.52 118.704C1115.09 124.11 1113.6 129.143 1114.35 129.703C1115.09 130.448 1118.64 131.38 1122.18 131.753C1128.52 132.312 1128.52 132.312 1130.01 122.992C1131.69 111.62 1130.94 109.01 1125.91 109.01C1123.11 109.01 1120.87 111.62 1117.52 118.704Z" fill="black" fill-opacity="0.3"/>
<path d="M1154.99 110.502C1150.14 111.061 1149.77 111.62 1150.89 116.84C1151.45 120.009 1152.01 124.856 1152.01 127.839C1152.01 133.618 1155.18 134.55 1164.68 132.126C1169.34 130.821 1169.16 128.957 1163.38 116.467C1160.77 110.874 1159.65 109.942 1154.99 110.502Z" fill="black" fill-opacity="0.3"/>
<path d="M1135.23 114.975C1135.23 117.398 1134.67 122.432 1134.11 126.16L1132.8 133.244H1140.82H1148.84L1147.53 126.16C1146.97 122.432 1146.41 117.398 1146.41 114.975C1146.41 111.619 1145.29 110.874 1140.82 110.874C1136.35 110.874 1135.23 111.619 1135.23 114.975Z" fill="black" fill-opacity="0.3"/>
<path d="M1133.55 143.498C1136.91 149.091 1137.09 150.768 1135.23 156.361C1133.18 162.699 1129.45 164.936 1120.87 164.936C1118.45 164.936 1116.59 166.055 1116.59 167.546C1116.59 169.597 1118.26 169.97 1123.67 169.224C1129.82 168.105 1130.38 168.292 1128.14 170.902C1126.65 172.766 1126.47 174.444 1127.4 175.003C1128.52 175.562 1130.57 173.884 1132.25 171.461C1134.11 168.478 1136.35 167.173 1137.65 168.105C1138.96 168.851 1142.31 169.224 1145.3 168.851C1149.58 168.478 1150.51 169.037 1149.58 171.274C1147.72 176.121 1151.26 176.308 1153.5 171.461C1155.18 167.919 1157.04 166.8 1161.33 166.8C1164.31 166.8 1166.92 165.868 1166.92 164.936C1166.92 163.818 1165.24 163.072 1163.19 163.072C1158.9 163.072 1158.9 163.072 1161.33 156.547C1162.82 152.819 1162.45 150.023 1159.46 144.244C1157.41 140.329 1154.43 136.973 1152.75 136.973C1150.33 136.973 1150.51 137.905 1153.68 141.82C1158.34 147.786 1158.72 155.056 1154.62 160.835C1152.57 163.818 1149.96 164.936 1144.36 164.936C1136.35 164.936 1135.6 163.258 1139.7 155.615C1141.94 151.7 1141.94 150.209 1138.77 144.057C1136.72 140.142 1133.92 136.973 1132.43 136.973C1130.38 136.973 1130.57 138.278 1133.55 143.498Z" fill="black" fill-opacity="0.3"/>
<path d="M148.623 58.3161C144.646 62.293 141.605 68.8433 139.967 77.499C138.563 84.751 136.926 92.0031 136.458 93.4067C135.99 94.8103 124.995 103.466 111.895 112.824C95.2851 124.754 88.5009 130.837 89.4367 133.41C90.1385 135.281 90.8403 137.387 90.8403 137.855C90.8403 138.323 95.0512 136.685 100.198 134.112C105.11 131.538 110.491 129.433 111.661 129.433C115.872 129.433 121.486 143.469 121.954 154.698C122.422 164.992 122.89 165.693 128.972 165.927C136.458 166.161 137.16 163.354 130.61 159.845C124.059 156.336 121.954 142.534 127.101 135.048C130.376 130.135 131.545 129.667 134.587 132.24C139.031 135.749 146.985 153.763 146.985 159.845C146.985 162.418 149.091 164.29 152.834 164.992C155.875 165.693 157.98 165.459 157.512 164.29C156.811 163.354 159.15 161.95 162.659 161.482C168.741 160.547 168.741 160.547 161.489 160.079C155.641 159.845 152.834 158.207 149.325 152.125C141.839 140.194 143.944 132.006 155.875 124.988C173.888 114.461 176.929 101.595 166.402 82.4117C160.788 72.3524 160.32 70.4809 163.361 68.3754C165.232 67.2057 170.379 66.5039 174.59 66.9718C183.479 67.9075 183.713 66.7379 177.163 58.3161C170.613 49.8944 157.045 49.8944 148.623 58.3161Z" fill="black" fill-opacity="0.3"/>
<path d="M106.28 103.934C102.069 106.507 96.9222 107.677 93.1792 106.741C87.0969 105.571 45.2221 116.566 40.7773 120.309C35.3967 124.988 42.6488 124.754 56.919 120.076C65.3407 117.268 72.8267 115.397 73.5285 115.865C73.9964 116.566 67.6801 120.076 59.2583 123.819C51.0705 127.562 44.0524 131.772 44.0524 133.41C44.0524 135.047 52.2402 132.474 64.171 126.86C75.4 121.713 84.7575 117.97 85.2254 118.438C85.6932 118.906 79.3769 123.819 70.9552 129.199C57.6208 138.089 52.4741 143.469 57.1529 143.469C58.0886 143.469 107.683 109.548 114 104.636C114.234 104.402 114.234 102.998 114 101.828C113.532 100.659 110.023 101.594 106.28 103.934Z" fill="black" fill-opacity="0.3"/>
<path d="M826.702 337.017C824.918 338.132 818.453 339.247 812.656 339.247C801.062 339.247 800.171 342.37 811.095 344.378C820.013 346.162 819.567 350.4 810.649 350.623L803.292 350.846L809.98 353.3C813.771 354.861 819.121 357.538 822.243 359.768C825.364 361.776 831.161 364.006 834.951 364.899C842.977 366.46 853.456 377.39 853.456 384.081C853.456 392.111 849.22 396.572 834.728 404.825C819.567 413.301 805.076 425.792 780.328 451.22C766.059 465.942 758.702 475.979 767.843 468.396C781.889 456.574 780.328 460.589 762.938 482.448L748 500.739L752.905 504.753C757.81 508.545 758.033 508.545 765.836 498.062C779.436 479.771 798.164 461.927 803.738 461.927C809.758 461.927 810.203 463.488 805.076 469.065C801.508 473.08 801.954 473.749 812.21 484.233C819.79 492.039 822.02 495.385 819.344 495.385C816.669 495.385 815.554 497.17 815.554 502.523C815.554 508.992 815.777 509.215 819.567 505.869C824.695 501.185 829.823 500.962 834.059 505.423C836.958 508.322 837.626 508.322 838.741 505.423C840.302 501.185 855.686 500.739 855.908 504.753C855.908 506.315 856.8 505.423 857.915 502.523C860.367 496.724 867.279 496.054 872.184 501.185C875.528 504.307 875.751 504.307 875.751 500.069C875.751 494.27 868.617 490.478 861.259 492.262C855.017 493.824 843.646 487.132 832.722 475.756C827.594 470.403 827.148 469.065 829.6 464.158C831.161 461.035 837.181 456.351 842.977 453.674C862.82 444.083 878.872 423.339 881.548 403.041C882.663 395.234 881.771 390.55 877.089 380.512C873.968 373.375 871.292 366.906 871.292 365.791C871.292 364.899 874.859 365.568 879.318 367.352C886.007 370.029 886.899 370.252 885.338 367.575C881.771 361.33 861.036 345.047 850.112 340.139C838.072 334.34 832.053 333.671 826.702 337.017ZM824.472 461.258C824.472 461.927 822.689 464.604 820.682 466.834C817.115 470.626 817.561 471.518 829.154 482.002C838.964 490.924 840.302 492.932 836.512 493.155C833.836 493.155 827.148 488.917 821.351 484.009C812.433 475.979 811.095 473.749 812.21 468.842C813.102 465.719 814.885 462.373 816.223 461.481C819.567 459.25 824.472 459.25 824.472 461.258Z" fill="black" fill-opacity="0.3"/>
<path d="M929.764 345.416C927.917 348.472 928.347 353.654 930.843 359.518C933.038 364.442 930.337 366.148 927.981 361.247C925.372 355.728 923.454 358.303 925.378 364.742C926.536 368.178 926.641 372.261 925.846 374.671C924.323 378.828 926.213 381.666 927.92 377.646C928.535 376.245 929.216 374.179 929.42 373.329C929.827 371.631 937.576 377.546 938.088 379.929C938.182 380.571 936.605 382.113 934.522 383.565C930.037 386.515 931.535 388.919 936.804 386.837C940.354 385.335 940.561 385.632 941.711 393.495C942.626 399.754 943.549 401.586 945.314 401.328C947.079 401.07 947.44 399.05 946.525 392.792L945.328 384.608L950.307 385.027C956.111 385.49 956.585 383.126 951.141 380.644L947.443 378.89L950.281 370.28C953.825 359.764 954.632 354.073 952.706 354.354C951.904 354.472 950.197 358.491 948.744 363.129C944.684 376.835 941.157 378.497 934.364 370.148C930.932 365.733 930.932 365.733 934.783 365.17L938.795 364.583L934.878 359.092C929.901 351.952 929.666 350.347 933.553 346.665C935.702 344.548 937.444 344.129 939.854 344.924C944.884 346.811 945.811 349.79 943.313 357.367C940.975 364.92 942.728 367.942 945.895 361.579C948.812 355.743 946.802 344.236 942.645 342.713C937.8 340.963 931.612 342.359 929.764 345.416Z" fill="black" fill-opacity="0.3"/>
<path d="M964.653 339.659C961.701 341.894 962.256 350.172 965.785 356.376C968.485 361.39 972.223 361.171 969.868 356.271C965.434 347.249 965.145 343.029 968.394 340.588C971.209 338.537 972.355 338.533 975.506 341.023C979.552 344.037 979.529 343.877 976.29 356.479C975.703 359.187 976.071 359.461 978.039 358.354C981.977 356.139 982.019 362.034 977.999 367.047C973.842 372.244 971.224 371.151 965.71 361.468C963.68 357.667 961.285 354.739 960.482 354.856C957.915 355.232 959.511 359.424 965.823 367.843L971.814 376.31L968.221 378.638C962.979 382.027 963.973 384.34 969.563 382.212L974.212 380.385L975.409 388.569C976.066 393.062 977.408 396.635 978.21 396.518C979.975 396.26 980.011 393.141 978.38 385.348C977.124 380.123 977.261 379.939 982.24 380.358C988.525 380.751 988.745 377.768 982.73 375.861C978.644 374.82 978.597 374.499 980.648 370.593C983.338 365.447 984.598 365.099 986.492 369.083C987.231 370.778 989.047 371.988 990.17 371.823C992.096 371.542 991.955 370.579 989.189 366.23C986.375 361.561 986.188 360.277 987.824 355.776C989.461 351.275 987.36 346.993 985.516 351.197C984.059 354.688 982.357 353.134 982.319 348.386C982.332 338.386 972.43 333.441 964.653 339.659Z" fill="black" fill-opacity="0.3"/>
<path d="M924.839 410.385C925.719 413.043 928.791 412.758 963.453 407.69C998.115 402.623 1001.14 402.017 1001.22 399.218C1001.33 396.58 998.738 396.795 962.632 402.074C926.526 407.352 923.982 407.888 924.839 410.385Z" fill="black" fill-opacity="0.3"/>
<path d="M927.835 421.912C928.281 424.96 929.267 424.98 946.438 422.47L964.434 420.003L961.189 423.591C957.235 427.939 948.808 431.957 940.624 433.154C933.403 434.21 926.854 437.626 927.23 440.193C927.418 441.477 931.637 441.188 941.516 439.252C952.357 437.175 956.87 435.532 960.965 432.147L966.386 427.749L973.297 430.18C982.275 433.293 1006.22 432.251 1007.17 428.67C1007.96 425.113 1003.69 423.934 994.222 425.318C986.038 426.515 976.147 425.01 970.747 421.702C968.587 420.379 971.405 419.475 985.432 416.769C999.46 414.063 1002.74 412.928 1002.45 411.002C1002.15 408.916 996.647 409.393 964.803 413.557C928.168 418.585 927.366 418.702 927.835 421.912Z" fill="black" fill-opacity="0.3"/>
<path d="M25.9397 357.477C21.4559 359.006 14.3658 363.981 10.4346 368.436C3.63216 376.538 3.17704 378.139 -1.52548 410.996C-6.81886 449.949 -6.02161 454.571 8.17078 470.753C18.502 482.134 25.2776 484.718 51.5283 487.335C68.6823 488.715 72.2761 488.491 80.5325 483.674C97.5118 474.104 101.219 466.055 106.544 426.87C111.837 387.917 110.752 380.168 97.8552 368.438C91.4917 362.822 88.0564 361.88 62.6322 358.425C41.1732 355.509 32.4162 355.269 25.9397 357.477ZM89.8004 373.52C102.548 382.854 104.206 391.631 99.5146 426.152C95.7426 453.909 94.8641 456.877 88.2632 465.245C79.2891 477.091 70.9579 480.71 55.3416 480.251C34.9969 479.624 22.5802 474.849 13.5534 464.357C2.10801 450.687 1.40584 445.365 7.22017 409.571C12.199 378.178 12.2307 377.944 20.2108 371.665C31.1687 362.701 35.0591 362.042 60.2501 365.465C77.5422 367.578 84.1797 369.43 89.8004 373.52Z" fill="black" fill-opacity="0.3"/>
<path d="M52.6911 389.619C51.2241 403.911 51.6182 408.003 54.4172 408.383C57.2162 408.763 58.3914 405.36 60.2932 391.365C62.3218 376.437 61.9708 373.776 58.5671 372.601C54.9302 371.394 54.2418 372.963 52.6911 389.619Z" fill="black" fill-opacity="0.3"/>
<path d="M39.3311 383.052C37.2164 395.118 37.1847 395.351 29.954 394.369C23.423 393.481 22.8183 392.686 24.4487 387.681C25.5922 384.511 25.7076 381.914 24.7746 381.787C22.9086 381.533 18.2281 393.25 19.4374 394.84C19.6073 395.338 24.5055 396.004 30.1669 396.298L40.525 396.993L40.8688 383.974L41.2126 370.955L39.3311 383.052Z" fill="black" fill-opacity="0.3"/>
<path d="M73.0939 379.326C67.5301 383.558 69.1742 385.445 78.7374 386.744C83.8689 387.442 88.1942 387.079 88.3209 386.146C88.7647 382.881 83.9705 377.953 80.0053 377.414C77.906 377.129 74.9485 377.915 73.0939 379.326Z" fill="black" fill-opacity="0.3"/>
<path d="M69.0647 398.496C66.5331 403.14 64.7378 418.1 66.1397 423.517C66.9573 426.241 68.4949 427.163 70.5194 426.25C72.7771 425.369 74.1425 420.566 74.9439 411.172C76.0509 397.782 73.1113 391.444 69.0647 398.496Z" fill="black" fill-opacity="0.3"/>
<path d="M85.1429 413.033C84.2781 422.893 84.8535 429.148 86.6244 430.101C88.6286 431.086 89.8989 426.983 91.5471 414.854C93.3538 401.559 93.0978 398.198 90.2989 397.818C87.2666 397.406 86.4197 400.141 85.1429 413.033Z" fill="black" fill-opacity="0.3"/>
<path d="M17.6409 409.8C9.84207 418.242 11.2212 420.33 26.3824 422.39C41.7769 424.482 44.7547 421.799 37.2973 411.996C31.8553 404.842 22.9602 403.871 17.6409 409.8ZM34.1179 414.414C38.3505 419.978 36.2626 421.357 26.6994 420.058C21.5679 419.36 17.4962 417.857 17.623 416.924C18.0668 413.658 24.0021 410.189 27.9673 410.728C30.0665 411.013 32.707 412.56 34.1179 414.414Z" fill="black" fill-opacity="0.3"/>
<path d="M49.2265 418.606C46.3552 422.254 51.1176 427.415 54.8269 424.593C58.0063 422.174 56.8059 417.023 53.3072 416.547C52.1409 416.389 50.3497 417.333 49.2265 418.606Z" fill="black" fill-opacity="0.3"/>
<path d="M33.4945 439.985C30.5801 442.202 27.9103 446.115 27.5617 448.681C26.9594 453.113 28.5605 453.568 49.0864 456.357C69.6124 459.147 71.2768 459.135 71.8791 454.704C73.0835 445.84 65.6171 439.599 51.6222 437.697C41.8257 436.366 37.4687 436.962 33.4945 439.985ZM65.674 447.921L70.2463 454.482L49.9536 451.724C30.8272 449.125 29.9259 448.765 32.8289 444.883C36.3886 439.666 39.5793 438.912 51.5068 440.295C58.7692 441.044 62.0777 442.919 65.674 447.921Z" fill="black" fill-opacity="0.3"/>
<path d="M32.4994 464.794C32.119 467.593 35.2894 468.736 48.3514 470.511C61.4133 472.286 64.7739 472.03 65.1543 469.231C65.5347 466.432 62.3643 465.289 49.3023 463.514C36.2403 461.739 32.8797 461.995 32.4994 464.794Z" fill="black" fill-opacity="0.3"/>
<path d="M-3.96056 488.346C-10.7744 494.785 -5.06995 496.51 41.8132 502.881C85.8973 508.872 88.2615 508.956 88.8321 504.757C89.149 502.425 87.8966 499.404 85.8925 498.419C83.8883 497.434 63.6907 493.976 40.8323 490.87C7.47762 486.337 -1.2477 485.864 -3.96056 488.346Z" fill="black" fill-opacity="0.3"/>
<path d="M148.528 405.468C145.837 406.711 145.733 406.918 147.7 407.021C150.909 407.021 155.981 411.783 158.776 417.27C161.468 422.549 163.538 424.723 168.197 426.793C169.853 427.621 171.923 429.381 172.648 430.83L174.097 433.418L173.476 430.623L172.855 427.828L179.377 428.035C184.553 428.243 186.83 428.864 190.143 431.038C193.559 433.211 194.594 433.522 195.525 432.487C196.354 431.555 193.869 429.588 184.967 424.102C178.548 420.168 170.785 415.717 167.679 413.957C160.019 409.92 157.017 407.125 158.466 405.261C159.398 404.226 158.88 403.916 155.671 404.019C153.393 404.019 150.288 404.744 148.528 405.468Z" fill="black" fill-opacity="0.3"/>
<path d="M176.064 430.519C176.789 431.762 177.617 432.59 177.927 432.279C178.238 432.072 177.617 431.037 176.582 430.002C174.822 428.346 174.718 428.346 176.064 430.519Z" fill="black" fill-opacity="0.3"/>
<path d="M173.476 440.768C173.062 442.01 171.923 442.321 169.75 442.01C167.99 441.7 166.644 441.907 166.644 442.424C166.644 442.838 168.507 443.252 170.785 443.252C174.201 443.252 174.926 442.942 174.926 441.182C174.926 438.698 174.304 438.491 173.476 440.768Z" fill="black" fill-opacity="0.3"/>
<path d="M143.352 452.569C141.696 455.364 145.008 455.675 172.441 455.675C200.08 455.675 200.805 455.675 200.805 453.604C200.805 451.534 200.08 451.534 172.441 451.534C154.532 451.534 143.766 451.948 143.352 452.569Z" fill="black" fill-opacity="0.3"/>
<path d="M160.95 463.335C157.534 464.681 152.565 466.026 149.874 466.44C144.698 467.268 142.938 468.614 144.801 470.478C145.526 471.202 147.596 471.202 151.737 470.478C156.292 469.649 158.259 469.753 160.433 470.788C167.368 474.308 178.031 474.308 184.967 470.892C186.933 469.96 189.211 469.753 192.006 470.271C198.527 471.513 200.805 471.409 200.805 469.649C200.805 467.89 196.768 466.026 192.937 466.026C191.488 466.026 187.658 464.888 184.242 463.438C176.478 460.126 169.335 460.126 160.95 463.335ZM178.859 465.612C180.101 466.026 181.136 466.647 181.136 467.061C181.136 469.339 170.474 470.167 165.609 468.304L163.021 467.268L165.609 466.233C168.507 464.991 175.339 464.681 178.859 465.612Z" fill="black" fill-opacity="0.3"/>
<path d="M1227.18 150.244C1226.48 151.433 1222.86 153.039 1219.28 153.762C1213.96 155.003 1213.41 155.481 1216.63 155.724C1221.05 155.925 1221.76 158.16 1217.57 158.304C1216.06 158.426 1217.7 159.076 1221.08 159.948C1227.88 161.551 1227.86 160.951 1220.75 171.926C1218.48 175.604 1216.92 179.435 1217 181.832C1217.2 187.826 1221.84 195.362 1227.83 199.322C1238.64 206.541 1227.49 212.041 1209.86 208.268C1200.47 206.26 1199.41 206.332 1198.86 208.892C1198.26 211.737 1199.25 211.95 1237.37 220.104C1275.49 228.258 1276.49 228.471 1277.09 225.626C1277.64 223.066 1276.71 222.568 1265.04 220.073C1247.69 216.361 1243.49 214.423 1244.89 210.704C1245.6 208.773 1248.75 207.218 1255.34 205.651C1260.52 204.379 1266.8 202.152 1269.53 200.505C1274.13 197.771 1276.23 194.204 1273.67 193.657C1271.11 193.109 1234.35 179.296 1234.01 178.778C1233.79 178.433 1236.49 174.846 1240.02 170.842C1247.18 162.407 1247.09 160.751 1238.74 153.907C1232.16 148.485 1228.95 147.501 1227.18 150.244ZM1242.39 207.048C1242.15 208.185 1239.91 209.639 1237.22 210.402C1231.69 211.897 1229.81 211.644 1232.57 209.855C1233.78 209.072 1234.89 207.375 1235.19 205.953C1235.59 204.104 1236.88 203.636 1239.3 204.153C1241.43 204.61 1242.67 205.767 1242.39 207.048Z" fill="black" fill-opacity="0.3"/>
<path d="M1219.74 226.744C1215.56 227.487 1208.62 227.936 1204.32 227.908C1199.27 227.869 1196.12 228.683 1195.88 229.82C1195.21 232.95 1197.36 234.005 1204.81 233.962C1210.94 233.787 1212.73 234.467 1218.41 238.508C1227.2 244.702 1239.58 247.349 1249.42 245.141C1255.69 243.656 1257.6 243.767 1263.75 246.274C1269.48 248.689 1271.08 248.882 1272.01 247.297C1273.76 244.695 1271.47 242.868 1263.47 239.965C1259.89 238.605 1254.39 235.793 1251.31 233.498C1244 228.066 1229.92 225.054 1219.74 226.744ZM1247.18 237.523C1249 240.143 1244.95 240.317 1234.28 238.035C1222.9 235.601 1219.45 233.672 1223.69 231.903C1226.44 230.856 1245.84 235.451 1247.18 237.523Z" fill="black" fill-opacity="0.3"/>
<path d="M208.866 336.3C205.133 337.767 204.066 339.5 202.866 346.167C201.666 352.567 202.466 354.967 205.8 354.967C207.8 354.967 208.333 354.033 208.333 349.767C208.333 344.3 211 340.833 214.2 342.033C217 343.1 220.866 339.767 219.933 337.1C219 334.833 213.666 334.3 208.866 336.3Z" fill="black" fill-opacity="0.3"/>
<path d="M225.266 335.9C224.733 336.3 224.333 337.9 224.333 339.234C224.333 342.167 230.333 342.7 231.4 339.767C232.6 336.567 227.666 333.5 225.266 335.9Z" fill="black" fill-opacity="0.3"/>
<path d="M235.4 337.1C234.867 338.567 235.534 340.034 237 341.234C239.134 342.7 239.8 342.7 241.4 341.1C242.467 340.034 243 338.167 242.6 337.1C241.534 334.3 236.467 334.3 235.4 337.1Z" fill="black" fill-opacity="0.3"/>
<path d="M247.934 335.9C245.934 337.767 247 341.634 249.667 341.634C252.734 341.634 255 345.367 255 350.7C255 355.234 255.934 356.434 258.467 355.367C260.867 354.434 261 343.234 258.6 340.167C255.667 336.3 249.8 333.9 247.934 335.9Z" fill="black" fill-opacity="0.3"/>
<path d="M199.933 367.9C199.4 368.3 199 373.767 199 379.9C199 389.9 199.267 390.967 201.533 390.967C204.733 390.967 206.067 387.233 205.4 379.9L205 374.3L231.933 373.9L258.867 373.633L259.267 381.9C259.667 389.233 259.933 390.3 262.333 390.3C264.733 390.3 265 389.233 265.4 378.567L265.8 366.967H233.267C215.4 366.967 200.333 367.367 199.933 367.9Z" fill="black" fill-opacity="0.3"/>
<path d="M545.297 157.104C551.413 177.622 569.203 189 595.147 189C624.056 189 642.402 178.181 648.703 157.104L650 153H597H544L545.297 157.104Z" fill="black" fill-opacity="0.3"/>
<path d="M61.7603 210.813C56.1961 212.999 49.8369 215.979 47.8497 217.768C45.6637 219.755 39.9007 221.146 32.5479 221.544C23.6054 221.941 20.6245 222.935 20.6245 225.121C20.6245 227.307 23.8041 228.3 32.5479 229.095C39.9007 229.691 47.8497 231.877 53.4139 235.057C66.1323 242.012 88.1906 242.012 101.108 235.057C106.473 232.076 114.82 229.89 121.974 229.095C130.718 228.3 133.897 227.307 133.897 225.121C133.897 222.935 131.314 221.941 123.961 221.544C117.8 221.345 109.454 218.762 102.101 215.185C86.4021 207.236 75.0748 206.043 61.7603 210.813ZM66.9272 220.948C64.9399 224.326 64.9399 225.916 66.9272 229.095C68.3182 231.281 68.517 233.07 67.3246 233.07C63.9463 233.07 51.4267 226.512 51.4267 224.723C51.4267 222.935 67.7221 214.986 68.9144 216.178C69.3119 216.576 68.3182 218.563 66.9272 220.948ZM95.146 219.159C99.5179 221.345 103.095 223.928 103.095 224.723C103.095 226.512 90.3766 233.07 86.9983 233.07C85.8059 233.07 85.8059 231.679 87.197 229.095C88.5881 226.313 88.7868 223.928 87.197 221.345C83.4212 213.992 84.4149 213.595 95.146 219.159Z" fill="black" fill-opacity="0.3"/>
<path d="M20.2268 250.16C19.6306 251.948 20.2268 254.134 21.8166 255.128C23.4064 256.122 49.2405 256.718 79.2478 256.32C132.506 255.923 133.897 255.724 133.897 251.948C133.897 248.173 132.307 247.974 77.658 247.378C27.5796 246.98 21.4191 247.179 20.2268 250.16Z" fill="black" fill-opacity="0.3"/>
<path d="M65.5362 272.019C56.7923 279.372 56.7923 290.103 65.7349 297.655C70.9017 302.027 73.4851 302.822 78.8507 301.828C91.3703 299.841 97.5307 289.507 92.9601 278.379C90.5754 272.417 82.229 266.853 75.4724 266.853C73.2864 266.853 68.9145 269.237 65.5362 272.019Z" fill="black" fill-opacity="0.3"/>
<path d="M1309.03 24.9999C1302.1 28.3333 1295.3 30.9999 1294.1 30.9999C1292.5 30.9999 1291.7 32.0666 1291.7 33.7999C1291.7 36.3333 1292.23 36.4666 1296.23 35.7999C1299.3 35.1333 1303.56 35.7999 1308.9 37.6666C1319.16 41.1333 1330.76 41.1333 1340.76 37.6666C1345.16 36.1999 1350.63 35.1333 1353.16 35.2666C1356.5 35.5333 1357.7 35.1333 1358.1 33.2666C1358.36 31.7999 1357.7 30.9999 1356.1 30.9999C1354.63 30.9999 1347.96 28.3333 1341.16 24.9999C1334.36 21.6666 1327.3 18.9999 1325.3 18.9999C1323.3 18.9999 1315.96 21.6666 1309.03 24.9999ZM1334.76 27.9333L1341.7 31.3999L1337.7 33.1333C1332.76 35.2666 1318.5 35.5333 1313.43 33.5333C1309.83 32.1999 1309.7 32.0666 1312.36 30.0666C1315.96 27.2666 1322.5 24.4666 1325.43 24.3333C1326.76 24.3333 1330.9 25.9333 1334.76 27.9333Z" fill="black" fill-opacity="0.3"/>
<path d="M1322.36 53.9333C1322.36 57.1333 1321.16 62.3333 1319.56 65.5333C1317.7 69.7999 1317.3 71.7999 1318.36 72.8666C1319.43 73.9333 1320.23 73.7999 1321.03 72.3333C1323.96 67.5333 1325.3 66.3333 1325.83 67.7999C1327.3 71.3999 1330.1 73.9333 1331.43 73.1333C1332.63 72.4666 1332.23 70.5999 1330.23 66.5999C1328.63 63.5333 1327.16 58.3333 1327.03 54.9999C1326.9 50.5999 1326.23 48.8666 1324.63 48.5999C1322.76 48.1999 1322.36 49.2666 1322.36 53.9333Z" fill="black" fill-opacity="0.3"/>
<path d="M1315.43 84.8663C1307.7 86.9997 1300.9 92.0663 1295.96 99.3997C1289.96 108.333 1289.83 108.333 1293.3 108.333C1295.56 108.333 1297.96 106.333 1301.3 101.8C1313.03 86.0663 1333.96 85.3997 1346.76 100.333C1349.43 103.533 1351.7 106.6 1351.7 107.266C1351.7 107.8 1353.56 108.333 1355.83 108.333H1359.83L1354.1 100.066C1344.9 86.8663 1329.7 80.8663 1315.43 84.8663Z" fill="black" fill-opacity="0.3"/>
<path d="M1318.23 99.3997C1316.23 100.866 1313.03 105.933 1313.03 107.533C1313.03 107.933 1318.36 108.333 1324.89 108.333C1336.23 108.333 1336.76 108.2 1336.09 105.666C1334.36 99.2663 1323.43 95.3997 1318.23 99.3997Z" fill="black" fill-opacity="0.3"/>
<path d="M1010.04 4.36898C999.847 10.3789 1001.91 22.2066 1013.39 23.4217C1015.3 23.5582 1016.86 24.1464 1016.94 24.6746C1017.01 25.2027 1015.63 32.6665 1013.88 41.2608C1010.22 59.2787 1010.21 61.1644 1013.95 59.9664C1016.16 59.3871 1017.26 56.6744 1019.26 46.9681C1020.61 40.3151 1022 34.8689 1022.4 34.8133C1022.79 34.7577 1025.63 39.6104 1028.78 45.765C1033.38 54.544 1035.04 56.7353 1037.32 56.6841C1041.5 56.7694 1040.96 54.8259 1032.4 38.9287C1028.38 31.4145 1025.02 24.7503 1024.91 23.958C1024.8 23.1658 1026.52 21.9819 1028.56 21.1571C1036.49 18.1588 1037.32 7.80872 1029.88 3.73705C1025.36 1.27506 1014.63 1.57025 1010.04 4.36898ZM1023.86 7.81461C1032.04 9.49329 1029.23 16.3503 1019.72 17.6855C1007.97 19.3359 1007.18 10.8299 1018.65 7.19891C1019.03 7.01124 1021.37 7.35618 1023.86 7.81461Z" fill="black" fill-opacity="0.3"/>
<path d="M444.667 260.333V267.8L440.4 265.4C433.733 261.933 423.733 262.6 416.4 266.867C412.267 269.267 408.533 270.333 404.267 270.333C398.933 270.333 398 270.733 398 273C398 275.4 398.933 275.667 405.2 275.667C409.467 275.667 414.667 276.733 418.133 278.333C425.067 281.4 434.533 281.8 439.867 279C441.867 277.933 443.867 277 444.133 277C444.4 277 444.667 280.867 444.667 285.667C444.667 293.4 444.933 294.333 447.333 294.333C449.6 294.333 450 293.4 450 288.333C450 281.8 450.533 281.267 454.133 284.467C455.467 285.667 457.2 286.2 457.867 285.667C460.133 284.333 459.6 281.133 456.667 279.4C453.067 277.133 453.333 275.667 457.333 275.667C459.733 275.667 460.667 275 460.667 273C460.667 271 459.733 270.333 457.067 270.2H453.333L456.4 268.067C458 267 459.333 264.867 459.333 263.4C459.333 260.733 458.133 260.6 452.4 263C450.4 263.8 450 263.133 450 258.467C450 253.933 449.6 253 447.333 253C444.933 253 444.667 253.933 444.667 260.333ZM438 271C439.333 272.6 439.067 273.133 436 274.333C431.467 276.067 428.8 276.067 423.333 274.067C419.2 272.733 419.067 272.467 421.333 270.733C424.8 268.333 435.867 268.467 438 271Z" fill="black" fill-opacity="0.3"/>
<path d="M400.001 316.067C399.601 317.667 399.334 323 399.601 327.667C400.001 335.4 400.267 336.333 402.934 336.733C405.734 337.133 405.867 336.6 406.267 328.067L406.667 319H428.667H450.667L451.334 327.667C451.867 335.4 452.267 336.333 455.067 336.733C457.867 337.133 458.001 336.867 458.001 325.133V313H429.334H400.667L400.001 316.067Z" fill="black" fill-opacity="0.3"/>
<path d="M480.035 35.0561C478.568 35.7228 476.168 37.4561 474.835 39.0561C472.435 41.7228 472.435 41.9895 474.568 44.3895C475.901 45.7228 479.501 47.5895 482.701 48.3895C485.901 49.1895 489.368 50.7895 490.568 51.8561C492.435 53.7228 492.168 54.7895 488.035 62.6561C485.501 67.4561 483.368 72.9228 483.368 74.6561C483.368 82.7895 489.235 87.7228 501.635 90.5228C504.035 90.9228 506.301 91.8561 506.701 92.3895C507.768 94.2561 504.301 110.389 502.301 112.789C500.968 114.389 498.435 115.189 494.568 115.189C489.101 115.189 486.035 116.789 488.568 118.389C489.235 118.923 490.301 118.523 490.701 117.723C491.235 117.056 492.568 116.789 493.901 117.189C497.635 118.789 501.235 118.656 503.901 116.923C505.635 115.856 507.235 115.723 508.968 116.656C510.701 117.589 511.368 117.456 511.368 116.123C511.368 115.056 510.168 113.856 508.701 113.456C505.768 112.656 505.768 113.189 508.701 99.4561C510.568 91.5895 511.635 91.1895 520.168 95.0561C526.035 97.7228 530.568 102.923 535.235 112.123C537.901 117.456 538.301 117.723 541.368 116.256L544.568 114.789L541.635 110.656C540.168 108.389 532.435 97.8561 524.835 87.1895C512.435 69.9895 510.568 66.9228 509.101 59.1895C506.568 47.0561 502.301 39.0561 496.701 36.2561C491.768 33.7228 484.568 33.3228 480.035 35.0561ZM489.235 40.3895C490.301 41.9895 486.835 43.1895 481.768 43.1895C478.301 43.1895 477.901 42.9228 479.368 41.1895C481.235 39.0561 488.035 38.3895 489.235 40.3895Z" fill="black" fill-opacity="0.3"/>
<path d="M483.102 41.4562C484.035 41.8562 485.235 41.7229 485.635 41.3229C486.168 40.9229 485.368 40.5229 483.902 40.6562C482.435 40.6562 482.035 41.0562 483.102 41.4562Z" fill="black" fill-opacity="0.3"/>
<path d="M40.7013 12.5724C30.0135 13.7252 21.0126 24.1343 20.4998 35.7673C20.2108 38.9528 21.9834 47.6306 24.1438 55.2296C27.9245 68.5278 27.986 69.0372 25.4613 71.2972C24.0519 72.4961 20.5994 73.9352 17.7512 74.3733C8.40185 75.8855 9.93279 77.4105 27.2618 83.6399C44.5908 89.8693 46.7423 89.6681 40.4955 82.5494C38.5782 80.3983 36.8321 77.0903 36.4391 75.1216C35.9311 71.7715 36.1946 71.3789 45.8812 64.5057C60.3764 54.1225 62.1268 52.3152 65.1826 44.1547C67.4628 38.152 67.6501 36.2701 66.463 30.7266C63.8883 18.8366 53.0686 11.1704 40.7013 12.5724ZM57.8628 24.7112C60.9781 28.6331 62.2399 37.371 60.4559 42.3338C59.7578 44.2757 57.7974 47.3476 56.1941 49.086C51.9805 53.6627 33.4363 66.1234 32.8494 64.6941C32.5713 64.1069 30.951 58.4076 29.1997 52.0521C23.9992 33.8577 25.7393 25.9553 36.1987 20.3345C44.5213 15.8948 51.802 17.4156 57.8628 24.7112Z" fill="black" fill-opacity="0.3"/>
<path d="M1324.13 334.596C1319.84 338.507 1318.48 347.781 1321.29 353.502C1323.11 357.209 1327.2 360.503 1335.41 364.969C1343.86 369.518 1344.22 369.843 1343.9 372.201C1343.78 373.561 1342.78 376.152 1341.67 377.9C1340.63 379.61 1340.07 381.285 1340.59 381.531C1341.03 381.817 1345.64 379.952 1350.8 377.412C1355.97 374.873 1360.26 372.363 1360.3 371.842C1360.42 371.283 1358.76 370.702 1356.77 370.477C1354.71 370.292 1352.05 369.498 1350.93 368.844C1348.87 367.657 1348.83 367.176 1350 359.101C1351.72 347.549 1351.6 344.905 1349.31 340.231C1345.86 333.221 1341.38 330.323 1334.15 330.474C1329.86 330.581 1327.47 331.553 1324.13 334.596ZM1336.29 334.225C1340.66 334.679 1344.19 337.646 1346.05 342.234C1347.51 345.816 1347.59 347.979 1346.5 355.815C1345.86 360.933 1345.02 365.247 1344.78 365.364C1344.47 365.521 1342.68 364.698 1340.73 363.553C1338.83 362.488 1335.3 360.522 1333.08 359.214C1325.02 354.669 1322.01 348.746 1324.32 342.006C1326.32 336.425 1330.65 333.595 1336.29 334.225Z" fill="black" fill-opacity="0.3"/>
<path d="M345.093 281.787C341.443 279.898 341.136 279.269 342.646 277.886C343.551 276.943 344.046 274.972 343.668 273.512C342.773 270.059 338.355 269.645 337.058 272.957C335.66 276.437 334.414 276.618 319.145 277.031C299.561 277.428 288.969 282.581 282.458 294.613L279.353 300.377L274.995 298.531C272.562 297.46 268.671 294.642 266.567 292.07C264.363 289.665 261.859 287.763 261.185 287.937C260.378 288.147 261.8 295.856 264.828 307.542C267.993 319.759 270.355 326.658 271.163 326.448C271.971 326.239 273.572 322.99 274.631 319.314C275.791 315.471 277.894 311.384 279.169 310.203C281.383 308.212 282.463 308.499 288.346 311.793C299.335 318.157 312.61 316.702 328.708 307.288C339.194 301.17 342.796 300.096 344.561 302.472C346.192 304.884 349.928 303.775 350.317 300.84C350.411 299.54 349.422 297.387 348.101 296.17C346.001 294.164 345.963 293.465 348.109 291.208C351.226 287.708 350.266 284.556 345.093 281.787ZM337.637 293.496C319.818 309.025 299.011 314.132 289.256 305.322C286.276 302.693 286.173 302.295 287.871 298.312C291.002 290.982 296.474 286.589 305.53 284.384C317.719 281.51 343.724 284.267 342.329 288.313C342.097 289.081 339.986 291.471 337.637 293.496Z" fill="black" fill-opacity="0.3"/>
<path d="M403.116 366.977C399.102 370.475 396.92 375.253 395.219 383.943C393.961 390.558 391.326 400.81 389.118 406.591C384.642 418.964 384.164 425.442 384.929 462.08C385.509 495.352 385.306 494.189 391.16 493.167C395.844 492.349 395.971 491.927 393.838 479.71C392.078 469.625 392.402 464.572 395.112 455.906L398.621 444.901L401.003 450.481C405.172 460.544 408.134 479.812 405.766 481.225C401.973 483.685 422.557 479.493 427.521 476.827C431.577 474.72 431.348 474.561 424.874 475.491C418.986 476.319 417.485 475.782 416.061 472.233L414.536 468.103L414.89 472.437C415.575 477.514 412.783 478.801 410.248 474.647C407.417 469.945 405.362 454.716 407.508 454.341C408.679 454.137 410.001 457.104 410.712 461.176C411.389 465.055 412.254 467.702 412.933 466.984C413.416 466.3 412.791 460.414 411.64 453.82C410.176 444.283 410.501 439.23 413.533 430.108C416.915 419.525 417.026 416.708 413.935 402.459C410.329 384.103 412.105 376.999 422.255 370.63C425.692 368.432 428.348 366.369 428.246 365.787C427.975 364.236 415.548 361.01 412.035 361.623C410.084 361.963 406.095 364.458 403.116 366.977ZM416.165 365.698C416.267 366.28 415.655 367.386 414.586 368.172C413.712 368.924 412.669 368.707 412.499 367.737C412.296 366.573 413.103 365.433 414.078 365.263C415.249 365.059 416.097 365.31 416.165 365.698Z" fill="black" fill-opacity="0.3"/>
<path d="M237.655 412.831C231.276 419.554 228 429.035 228 440.93C228 458.168 235.586 470.752 253.517 482.819C269.552 493.851 269.034 495.575 248.862 496.264C232.138 496.782 227.483 498.333 229.207 502.815C229.897 504.884 236.103 505.228 266.621 504.884C298.517 504.366 303 504.022 303 501.608C303 500.057 297.31 493.851 290.241 487.818C272.483 472.476 250.759 447.308 248.345 439.034C246.448 432.828 246.621 432.138 251.103 428.346C253.69 426.105 256.448 424.209 257.138 424.209C258 424.209 261.103 429.208 264.034 435.414C268 443.86 269.379 449.204 269.379 456.272C269.379 465.063 269.724 465.753 272.828 464.891C274.724 464.374 277.828 463.339 279.724 462.822C283 461.96 283 461.616 278 452.135C275.241 446.791 272.828 441.102 272.828 439.723C273 438.344 274.207 439.206 275.586 441.792C276.966 444.55 278.862 446.618 279.724 446.618C283.517 446.618 283 442.481 278.172 434.552C274.897 429.208 272.828 423.519 272.828 419.899C272.828 413.521 272.483 413.176 258.862 408.867C248.345 405.591 243.517 406.453 237.655 412.831ZM254.724 414.038C256.621 416.796 254.552 417.831 249.552 416.624C247.138 415.934 245.586 414.728 246.103 413.866C247.483 411.625 253.345 411.625 254.724 414.038Z" fill="black" fill-opacity="0.3"/>
<path d="M1150.4 412.354V426.708H1138.58H1126.75V431.774V436.84H1138.58H1150.4V455.416V473.992H1155.46H1160.53V455.416V436.84H1172.35H1184.17V431.774V426.708H1172.35H1160.53V412.354V398H1155.46H1150.4V412.354Z" fill="black" fill-opacity="0.3"/>
<path d="M1132.67 482.436C1130.13 486.489 1134.69 487.502 1156.48 487.502C1177.42 487.502 1179.27 487.165 1178.77 484.463C1178.26 481.93 1175.56 481.592 1155.97 481.085C1142.12 480.748 1133.34 481.254 1132.67 482.436Z" fill="black" fill-opacity="0.3"/>
<path d="M1124.39 495.608C1116.29 498.31 1111.22 503.038 1113.58 505.403C1114.26 505.909 1117.97 505.065 1122.03 503.545C1127.43 501.181 1135.37 500.167 1152.09 499.661C1172.18 498.985 1176.23 499.492 1185.69 502.701C1193.63 505.403 1197.01 505.74 1198.36 504.389C1200.89 501.856 1195.82 498.31 1185.18 495.101C1173.03 491.386 1135.37 491.724 1124.39 495.608Z" fill="black" fill-opacity="0.3"/>
<path d="M1041 243.652C1035.8 248.852 1035.93 257.785 1041.13 265.252L1044.07 269.252L1039.93 279.119L1035.8 288.985H1039.53C1042.6 288.985 1043.67 288.052 1045.53 283.252L1047.93 277.652L1050.33 283.252C1052.47 287.919 1053.53 288.985 1056.47 288.985C1058.73 288.985 1059.67 288.452 1059.27 287.252C1058.87 286.452 1057 281.919 1055 277.385L1051.4 269.119L1054.2 265.519C1057.4 261.519 1059 254.452 1057.8 249.652C1055.8 241.652 1046.47 238.185 1041 243.652ZM1051.4 252.985C1051.67 255.652 1050.87 258.719 1049.67 260.319C1047.67 262.985 1047.67 262.985 1045.67 260.452C1043.67 257.785 1043 250.185 1044.6 248.452C1045.13 247.919 1046.73 247.652 1048.33 247.919C1050.33 248.185 1051.13 249.519 1051.4 252.985Z" fill="black" fill-opacity="0.3"/>
<path d="M1035.67 294.985C1035.67 298.185 1035.8 298.185 1050.07 298.585L1064.33 298.985L1058.73 304.719L1053.13 310.452L1044.07 310.185C1035.27 309.919 1035 309.919 1035 313.119C1035 316.185 1035.27 316.319 1045.67 316.319C1054.6 316.319 1057 315.785 1060.6 313.252L1064.73 310.319L1071.13 313.652C1075.93 316.185 1079.4 316.985 1085.8 316.985C1094.07 316.985 1094.33 316.852 1094.33 313.652C1094.33 310.452 1093.93 310.319 1087 310.319C1078.33 310.319 1073 307.919 1069 302.319L1066.2 298.319H1080.2H1094.33V294.985V291.652H1065H1035.67V294.985Z" fill="black" fill-opacity="0.3"/>
<path d="M659.236 289.275C652.054 290.488 641.679 302.17 639.263 311.736C638.709 313.934 631.06 321.354 617.224 333.126C605.494 343.091 595.353 351.67 594.511 352.282C593.506 352.991 594.021 354.221 595.861 355.648C598.605 357.854 598.928 357.66 603.532 352.497C609.174 345.945 619.341 340.536 625.323 340.809C630.335 341.111 631.011 342.245 630.151 350.554C629.885 353.787 629.65 357.44 629.81 358.443C629.936 359.575 628.576 360.607 626.182 360.828C624.209 361.017 622.719 362.016 622.944 362.761C623.329 363.958 624.105 364.154 625.529 363.413C627.569 362.416 631.478 364.365 630.988 366.304C630.694 367.468 637.676 368.68 640.233 367.813C641.139 367.492 642.593 368.271 643.399 369.437C645.043 371.64 647.081 371.192 646.181 368.765C645.989 367.891 643.179 366.494 640.076 365.711C635.552 364.568 634.034 363.498 633.2 360.812C632.204 357.673 632.209 341.859 633.406 341.474C633.568 341.377 638.452 341.098 644.047 340.723C652.262 340.321 654.657 339.551 657.153 336.743C661.012 332.354 661.511 326.017 658.625 315.662C657.503 311.391 657.06 307.153 657.709 306.217C658.358 305.281 662.273 304.481 666.445 304.297C677.279 303.869 680.423 300.675 675.1 295.068C672.165 291.989 662.956 288.702 659.236 289.275ZM667.076 296.893C666.525 297.441 666.879 298.218 668.043 298.512C669.206 298.806 669.886 298.29 669.565 297.384C669.276 296.348 669.762 296.058 670.569 296.675C671.538 297.194 672.311 298.49 672.374 299.331C672.467 301.142 667.327 300.257 664.163 298.083C661.483 296.169 662.361 294.327 665.593 295.143C667.015 295.502 667.66 296.215 667.076 296.893Z" fill="black" fill-opacity="0.3"/>
<path d="M216.35 39.5644C216.357 41.1935 220.949 51.7362 226.753 63.2571C235.191 80.0762 237.481 83.7185 239.05 82.7572C241.207 81.2318 232.982 33.487 230.168 32.1781C229.183 31.7607 227.838 32.4683 227.03 34.1007C225.915 36.1836 224.933 36.5808 223.358 35.913C220.01 34.4939 216.197 36.363 216.35 39.5644Z" fill="black" fill-opacity="0.3"/>
<path d="M229.515 93.4687C218.474 100.057 216.151 101.977 217.115 104.36C217.853 106.183 219.732 105.586 229.965 100.629C236.468 97.3451 242.41 94.2878 243.278 93.6102C244.51 92.6222 267.962 85.2535 272.986 84.3627C273.941 84.3027 274.526 82.924 274.436 81.4919C274.035 79.6958 272.319 79.0848 267.996 79.6919C259.433 80.7093 237.5 88.6056 229.515 93.4687Z" fill="black" fill-opacity="0.3"/>
<path d="M234.24 102.326C226.255 107.189 221.637 111.505 222.545 113.748C223.283 115.571 224.518 115.398 229.786 112.287C246.488 102.754 255.462 99.1232 265.65 97.2848C276.597 95.3029 279.959 93.1266 275.342 90.5891C270.782 88.1918 246.626 95.0296 234.24 102.326Z" fill="black" fill-opacity="0.3"/>
<path d="M227.729 124.541C225.098 126.911 222.47 130.096 221.803 131.671C219.743 136.258 225.187 135.197 230.699 129.866C237.974 122.843 271.739 109.507 282.748 109.294C290.023 109.124 291.061 108.867 290.967 106.621C290.901 104.037 287.92 103.122 279.437 103.128C272.163 103.297 233.718 119.181 227.729 124.541Z" fill="black" fill-opacity="0.3"/>
<path d="M1166.05 276.301C1155.28 279.63 1129.63 302.149 1132.18 306.065C1134.92 310.569 1139.81 308.415 1150.19 298.624C1162.53 286.875 1170.95 282.959 1183.28 282.959C1195.42 282.959 1203.26 286.679 1216.38 298.428C1223.23 304.694 1228.32 307.827 1230.28 307.24C1235.57 305.086 1233.41 301.17 1221.47 290.008C1204.04 274.147 1187.2 269.839 1166.05 276.301Z" fill="black" fill-opacity="0.3"/>
<path d="M1172.71 299.212C1168.01 301.953 1162.92 309.394 1162.72 313.702C1162.72 315.66 1168.01 316.248 1183.09 316.248H1203.65L1201.69 310.569C1200.52 307.436 1197.97 303.324 1196.01 301.561C1191.12 297.253 1178.58 295.883 1172.71 299.212Z" fill="black" fill-opacity="0.3"/>
<path d="M1132.96 339.746C1132.76 346.208 1132.57 353.844 1132.57 356.782C1132.37 361.09 1133.35 362.46 1136.88 362.852C1140.99 363.439 1141.18 362.852 1141.18 350.711V337.788H1181.33H1221.47V350.711C1221.47 362.852 1221.66 363.439 1225.97 362.852C1230.08 362.264 1230.28 361.285 1230.87 345.033L1231.45 327.997H1182.3H1133.35L1132.96 339.746Z" fill="black" fill-opacity="0.3"/>
<path d="M694.825 18.8725C691.889 21.4529 694.145 22.8057 708.538 27.0363C730.389 33.4523 729.559 35.849 703.435 41.195C690.943 43.8338 684.257 47.8413 682.807 53.2517C681.732 57.266 684.001 57.8739 688.788 54.6672C692.644 52.1462 692.772 52.3675 696.059 57.5508C699.219 62.5129 699.871 62.8745 703.143 61.1325C707.697 58.7985 709.966 59.4064 711.87 63.4708C713.135 66.4286 713.833 66.6157 718.374 65.0266C723.043 63.6587 723.567 63.799 725.832 67.212C727.923 70.5782 729.145 70.9056 735.07 70.4355C740.995 69.9654 742.693 70.6075 751.949 77.9513C757.531 82.2528 762.648 85.4946 763.487 85.1581C766.364 83.4971 763.821 78.3263 757.332 73.2206C747.472 65.3407 740.992 62.2952 736.196 63.4417C732.808 64.2175 731.679 63.541 729.903 59.698C727.791 55.0165 727.663 54.7953 722.109 56.6741C716.95 58.472 716.427 58.3317 714.08 54.5229C711.687 50.8887 711.338 50.7951 707.448 52.7458C703.337 54.8243 699.591 53.4464 700.479 50.1303C700.76 49.0832 706.489 47.251 713.392 45.9208C720.168 44.3693 728.621 42.1447 732.196 40.6708C740.01 37.3397 755.908 38.0454 764.784 41.9202C772.613 45.5145 775.954 44.9132 773.922 40.6276C772.146 36.7846 750.329 30.9389 740.761 31.7422C735.407 32.178 732.963 31.5233 728.544 28.4686C721.962 23.7119 697.098 16.6754 694.825 18.8725Z" fill="black" fill-opacity="0.3"/>
<path d="M700.117 89.8773C683.181 90.9511 661.594 97.513 660.378 102.051C659.115 106.763 662.269 106.86 674.565 102.859L686.908 98.684L694.359 106.479C706.413 119.437 718.898 122.408 736.003 116.516L743.409 114.01L750.941 122.202C755.161 126.7 759.206 131.151 760.066 132.129C761.101 133.155 763.033 132.924 764.408 131.983C768.31 129.288 763.907 122.683 748.571 109.408C737.56 99.5361 734.478 97.7749 721.877 93.8374C713.244 91.15 704.68 89.6034 700.117 89.8773ZM733.583 106.701C734.988 109.135 725.684 112.441 718.55 111.839C713.953 111.543 710.126 109.769 705.196 105.829C697.37 99.4297 697.025 96.5312 704.286 97.3546C711.246 97.91 732.433 104.709 733.583 106.701Z" fill="black" fill-opacity="0.3"/>
<path d="M680.37 125.179C679.481 128.495 680.482 128.95 706.661 135.965C731.619 142.652 733.76 143.039 734.032 139.932C734.21 137.173 731.336 136.029 707.74 129.146C682.178 121.922 681.305 121.688 680.37 125.179Z" fill="black" fill-opacity="0.3"/>
<path d="M428.516 142.946C419.649 140.573 368.569 144.195 369.194 147.317C369.568 148.941 374.314 149.44 382.182 149.066C388.926 148.816 394.171 148.816 393.922 149.315C393.422 149.815 388.551 151.938 382.682 154.061C376.937 156.309 371.816 159.431 371.192 160.805C370.318 162.429 377.936 160.805 391.424 156.309C410.407 150.065 413.155 149.565 416.652 152.313C421.148 155.81 423.271 163.178 421.647 170.547C419.399 181.537 408.409 182.786 357.329 178.165C331.477 175.792 325.607 176.167 324.733 180.038C324.483 181.037 337.347 194.9 353.582 211.136C379.31 236.863 383.181 240.235 385.679 239.236C390.3 237.113 387.802 232.866 371.941 217.005C353.458 198.522 353.707 196.524 373.565 202.393C397.419 209.262 413.529 205.641 429.64 189.53C449.123 170.297 448.623 148.816 428.516 142.946ZM435.01 157.933C431.139 157.059 426.268 151.938 427.767 150.439C429.89 148.316 435.51 150.939 436.759 154.935C437.633 157.808 437.258 158.432 435.01 157.933Z" fill="black" fill-opacity="0.3"/>
<path d="M335.348 199.645C330.727 199.52 332.85 202.892 345.714 215.756C360.076 230.118 366.071 234.614 367.944 232.741C369.193 231.492 337.846 199.645 335.348 199.645Z" fill="black" fill-opacity="0.3"/>
<path d="M671.507 196.495C669.441 198.078 666.825 201.95 666.039 205.078C661.954 220.941 667.165 256.678 675.249 267.054L680.212 273.456L673.932 274.65C670.506 275.3 667.108 277.137 666.031 278.731C663.597 283.561 668.9 285.531 678.987 283.615L688.122 281.88L691.726 300.849L695.366 320.01L685.579 322.465C677.849 324.33 675.557 325.758 675.686 328.513C675.697 331.687 677.446 331.554 700.972 326.687C721.797 322.136 726.065 320.729 725.628 318.43C725.228 316.322 722.382 315.87 715.077 316.861L704.881 318.202L701.241 299.041L697.637 280.072L705.821 278.518C710.198 277.686 714.81 276.016 716.151 274.768C719.982 271.063 715.61 266.732 709.139 267.961C702.478 269.226 702.778 269.765 704.8 259.653C706.778 250.344 702.791 227.278 696.797 212.337C689.905 195.779 680.302 189.861 671.507 196.495ZM686.064 209.81C688.197 213.772 691.794 224.404 694.113 233.493C697.794 247.683 698.032 251.013 695.682 259.4C694.308 264.624 692.028 269.226 690.696 269.48C687.27 270.13 679.122 258.377 676.168 248.019C673.397 238.62 672.482 216.162 674.452 207.847C676.223 200.562 681.308 201.383 686.064 209.81Z" fill="black" fill-opacity="0.3"/>
<path d="M1071.66 352.324C1062.08 357.019 1053.88 363.381 1047.82 370.604C1041.72 378.014 1036.42 394.943 1037.45 404.319C1038.45 413.88 1045.36 426.503 1052.25 431.334C1056.94 434.706 1057.29 435.757 1055.22 438.996C1053.94 441.245 1048.11 444.82 1042.37 447.056C1036.6 449.477 1031.56 452.062 1030.98 452.908C1029.57 454.93 1083.23 466.793 1085.25 464.708C1086.01 463.903 1084.28 461.185 1081.32 458.779C1074.41 453.164 1067.66 443.303 1068.35 440.149C1068.68 438.664 1070.49 437.507 1072.51 437.174C1079.7 436.234 1090.16 430.178 1095.69 423.615C1109.45 407 1108.08 379.839 1092.32 359.812C1087.94 354.172 1083.17 349.419 1081.87 349.133C1080.58 348.847 1075.97 350.359 1071.66 352.324ZM1088.13 368.228C1099.6 385.747 1099.65 406.584 1087.89 419.361C1080.7 427.308 1069.07 430.77 1061.48 427.341C1043.88 419.168 1040.51 393.123 1054.71 375.436C1059.74 369.348 1076.68 357.715 1079.82 358.411C1080.93 358.656 1084.82 363.019 1088.13 368.228Z" fill="black" fill-opacity="0.3"/>
<path d="M480.003 253.52C479.831 267.013 497.277 283.248 514.38 285.669C543.754 289.65 569.864 264.396 563.64 237.613L561.695 229.243L520.893 238.725L480.092 248.206L480.003 253.52ZM554.394 245.275C556.096 252.598 547.841 266.426 538.527 271.898C529.373 277.113 519.826 277.788 509.098 274.326C502.154 271.97 492.254 262.582 490.941 256.933C490.552 255.259 500.45 252.297 521.792 247.338L553.178 240.044L554.394 245.275Z" fill="black" fill-opacity="0.3"/>
<path d="M495.942 325.902C499.151 339.712 500.946 344.588 503.442 344.89C508.901 345.606 510.245 340.001 507.328 327.446L504.508 315.31L536.94 307.774L569.372 300.237L572.581 314.047C575.596 327.02 575.951 327.599 580.408 325.902C584.656 324.253 584.671 323.367 580.732 306.419L576.599 288.633L534.187 297.828L491.614 307.28L495.942 325.902Z" fill="black" fill-opacity="0.3"/>
<path d="M702.238 368.925C695.656 373.101 686.947 382.177 687.5 384.175C688.31 387.238 692.308 386.133 697.118 381.727L701.425 377.599L696.301 396.764C692.294 411.585 691.418 416.564 692.514 418.154C695.484 422.55 697.081 419.476 704.258 394.683C710.377 373.544 711.136 369.945 709.498 368.763C706.706 366.683 706.016 366.624 702.238 368.925Z" fill="black" fill-opacity="0.3"/>
<path d="M664.866 415.95C661.834 418.608 666.511 420.527 697.904 429.332C725.812 436.986 730.585 438.085 731.077 436.389C731.568 434.692 726.945 433.071 698.873 424.521C676.112 417.65 665.69 415.057 664.866 415.95Z" fill="black" fill-opacity="0.3"/>
<path d="M662.614 425.198C661.68 425.493 661.041 426.722 661.092 428.01C661.346 430.064 665.186 431.458 694.024 439.806C722.341 448.002 726.853 449.026 728.127 447.556C728.858 446.495 729.198 445.32 728.92 444.816C728.309 443.507 664.444 424.738 662.614 425.198Z" fill="black" fill-opacity="0.3"/>
<path d="M678.671 443.988C674.993 444.479 668.293 444.661 663.761 444.198C658.108 443.693 655.289 444.15 654.911 445.454C654.345 447.412 655.742 447.958 666.892 450.478C669.447 450.935 673.657 453.002 676.188 455.008C682.572 459.825 695.006 463.283 702.362 462.301C707.104 461.553 709.23 462.026 714.185 464.451C718.488 466.686 720.576 467.291 722.09 466.456C724.82 464.842 721.42 460.464 716.462 459.029C714.374 458.424 709.7 455.516 705.923 452.442C697.437 445.602 687.987 442.584 678.671 443.988ZM700.521 454.98C702.599 458.551 686.895 456.127 681.349 451.835C679.172 450.073 679.172 450.073 682.105 449.225C685.298 448.452 699.316 452.793 700.521 454.98Z" fill="black" fill-opacity="0.3"/>
<path d="M478.072 367.239C475.755 368.059 472.189 369.898 470.212 371.135C468.234 372.372 462.754 374.544 457.944 375.902C451.679 377.7 449.122 379.142 449.01 381.099C448.687 383.974 452.289 384.078 460.991 381.15C465.342 379.685 467.743 379.755 473.043 381.942C482.058 385.42 496.729 383.865 504.759 378.606C509.412 375.615 511.609 375.106 516.455 375.69C525.865 377.034 529.397 376.397 528.506 373.338C528.038 371.587 525.403 370.641 519.504 370.008C514.969 369.544 506.894 368.072 501.68 366.775C491.888 364.569 485.749 364.558 478.072 367.239ZM498.249 371.594L502.559 372.828L498.308 375.331C492.912 378.393 484.902 379.16 479.023 377.178L474.374 375.527L477.941 373.688C482.637 371.143 492.858 370.015 498.249 371.594Z" fill="black" fill-opacity="0.3"/>
<path d="M484.581 399.25C480.105 405.666 480.444 406.083 490.532 405.117C501.064 404.109 502.687 402.306 497.041 398.057C493.168 395.134 487.087 395.716 484.581 399.25Z" fill="black" fill-opacity="0.3"/>
<path d="M478.835 422.105C476.589 423.668 470.663 425.882 465.988 427.078C455.626 429.866 454.779 430.397 456.249 433.25C457.013 434.973 458.956 434.937 465.574 433.704C472.178 432.323 475.039 432.499 480.014 434.418C488.125 437.832 499.399 436.753 506.729 432.009C510.952 429.21 514.603 428.262 521.307 427.919C528.604 427.52 530.207 427.067 530.468 425.096C530.58 423.139 529.011 422.391 522.71 422.246C518.351 422.064 511.357 420.938 507.358 419.824C498.28 417.25 484.604 418.26 478.835 422.105ZM499.067 423.911C504.74 425.314 505.342 426.903 500.871 428.678C494.069 431.126 481.926 430.941 481.671 428.271C481.557 427.084 488.57 423.718 492.547 423.038C493.422 422.805 496.312 423.276 499.067 423.911Z" fill="black" fill-opacity="0.3"/>
<path d="M490.949 450.137C489.537 451.02 487.956 453.268 487.208 454.836C485.994 457.797 486.453 457.902 495.65 457.022C506.183 456.013 508.046 453.589 501.404 449.884C497.292 447.583 494.296 447.571 490.949 450.137Z" fill="black" fill-opacity="0.3"/>
<path d="M1304.07 153.148L1300 156.201L1305.26 157.219C1312.38 158.746 1315.27 162.139 1316.63 171.47C1318.32 183.006 1321.38 189.453 1326.3 192.168C1334.1 196.239 1334.95 200.989 1330.88 218.464C1328.67 226.946 1326.81 234.241 1326.64 234.581C1326.3 234.92 1323.58 235.768 1320.53 236.447L1314.93 237.804L1320.19 237.974C1326.97 238.143 1328.33 236.447 1331.89 221.687C1333.42 214.901 1335.46 209.642 1336.14 210.151C1336.81 210.66 1338.34 214.222 1339.36 218.464C1340.38 222.535 1341.56 226.946 1342.07 228.304C1342.75 230.17 1341.56 231.188 1337.49 232.206C1333.42 233.054 1332.74 233.732 1334.95 234.241C1336.64 234.75 1339.87 234.581 1341.9 234.072L1345.81 233.054L1341.9 219.312C1337.66 205.061 1336.98 199.123 1339.19 199.123C1343.43 199.123 1351.91 206.927 1355.65 214.392C1359.21 221.517 1360.57 222.705 1362.43 221.178C1365.32 218.803 1365.49 219.482 1351.74 195.9C1346.65 187.078 1338.68 175.881 1334.27 170.961C1329.86 166.041 1324.94 159.764 1323.58 157.05C1319.51 149.246 1311.37 147.549 1304.07 153.148Z" fill="black" fill-opacity="0.3"/>
<path d="M1319.85 246.965C1312.72 251.716 1312.04 252.564 1315.27 253.073C1317.3 253.412 1321.37 251.885 1324.26 249.68C1331.72 244.251 1345.64 244.251 1352.93 249.51C1358.53 253.751 1363.96 254.6 1362.94 251.207C1361.24 246.456 1349.03 241.536 1338.51 241.536C1329.69 241.536 1326.97 242.385 1319.85 246.965Z" fill="black" fill-opacity="0.3"/>
<path d="M375.831 31.079C370.14 39.0901 369.313 41.941 372.705 42.3399C373.513 42.4349 375.775 39.9166 377.951 36.7331L381.885 31.1358L379.424 53.4485C377.03 73.8035 377.126 75.7801 379.767 75.5995C382.248 75.3998 382.894 72.6915 386.152 49.1624L389.553 23.0296L385.837 22.5926C382.768 22.2316 380.602 23.9422 375.831 31.079Z" fill="black" fill-opacity="0.3"/>
<path d="M351.753 88.1916C342.326 90.3586 334.116 96.1081 325.497 106.723L318 116.16L322.362 116.673C325.916 117.091 327.845 116.007 330.62 111.911C338.307 100.859 354.186 92.5723 365.009 93.8452C375.025 95.0232 387.674 105.846 394.004 118.874C396.379 123.74 398.29 125.602 401.197 125.944L405.398 126.438L402.48 119.216C393.233 96.1818 372.459 83.4204 351.753 88.1916Z" fill="black" fill-opacity="0.3"/>
<path d="M875.476 241.853C870.697 247.012 871.401 249.245 877.288 247.029C880.253 245.759 882.685 246.07 887.386 247.989C895.368 251.315 913.534 253.634 923.069 252.543C928.77 251.788 930.878 252.057 932.617 253.927C936.683 258.237 938.864 254.065 935.002 249.451C931.706 245.569 931.078 245.324 924.991 246.525C916.001 248.509 892.383 245 885.336 240.804L879.504 237.422L875.476 241.853Z" fill="black" fill-opacity="0.3"/>
<path d="M875.224 260.612C869.658 264.188 862.097 278.223 862.242 284.835C862.328 290.615 866.69 290.018 869.14 283.737C875.224 268.36 881.933 262.293 889.083 265.678C895.16 268.432 896.03 277.115 893.111 307.732C891.044 330.38 890.927 336.464 892.79 337.362C894.026 338.014 895.548 337.713 896.483 336.844C897.277 335.791 899.765 322.757 902.156 307.897C906.673 278.968 908.899 273.153 916.308 270.637C925.118 267.476 932.213 276.458 931.792 290.086C931.447 297.954 933.849 302.382 936.959 299.977C939.153 298.279 939.333 283.961 937.283 276.776C935.091 269.408 928.131 263.245 920.832 262.313C916.29 261.733 907.804 264.936 905.586 268.114C903.815 270.361 903.046 269.933 898.435 264.729C891.661 257.106 883.127 255.522 875.224 260.612Z" fill="black" fill-opacity="0.3"/>
</svg>
