<svg width="149" height="131" viewBox="0 0 149 131" fill="none" xmlns="http://www.w3.org/2000/svg">
<path d="M32.8489 68.0779C25.3294 69.6745 18.0669 70.2376 10.5518 72.2513" stroke="#FAFF5F" stroke-width="5" stroke-linecap="round"/>
<path d="M10.5517 72.251C21.9597 55.219 36.0045 40.8954 50.0827 26.3355C51.876 24.4808 54.9985 22.6187 56.476 20.3196C57.2074 19.1814 61.5424 14.9607 59.0133 17.8385" stroke="#FAFF5F" stroke-width="5" stroke-linecap="round"/>
<path d="M59.0129 17.8387C65.1748 19.506 71.2558 21.3743 77.2562 23.5573C82.5359 25.4782 87.7104 28.5028 93.2088 29.6897C97.9672 30.7169 102.491 31.5796 107.165 32.8546C111.918 34.151 116.693 37.1668 121.257 39.1355C124.527 40.5461 132.317 41.8678 134.581 44.4211" stroke="#FAFF5F" stroke-width="5" stroke-linecap="round"/>
<path d="M134.581 44.4211C132.26 45.0431 102.64 52.9345 101.525 48.7754" stroke="#FAFF5F" stroke-width="5" stroke-linecap="round"/>
<path d="M101.525 48.7754C105.244 62.6553 108.963 76.5352 112.683 90.4151C113.275 92.6271 114.176 100.207 116.325 100.647" stroke="#FAFF5F" stroke-width="5" stroke-linecap="round"/>
<path d="M48.0706 123.219L116.487 104.886" stroke="#FAFF5F" stroke-width="5" stroke-linecap="round"/>
<path d="M32.8481 68.0779L47.4828 122.695" stroke="#FAFF5F" stroke-width="5" stroke-linecap="round"/>
<path d="M19.9386 68.4122C21.477 67.1257 22.4231 64.8235 23.6346 63.2192C24.6534 61.87 25.6158 60.4685 26.6162 59.1024C27.3608 58.0856 28.1085 57.5087 29.12 56.7799C29.757 56.321 30.112 55.5768 30.6943 55.0604C31.8197 54.0625 32.9389 53.3212 34.0452 52.1571C34.7984 51.3646 35.3908 50.3491 36.1791 49.6093C37.2636 48.5917 38.4807 47.7137 39.4482 46.5657C41.0816 44.6277 42.699 42.6244 44.4087 40.7537C44.4823 40.6732 47.1352 37.5424 46.1722 37.7596C44.8464 38.0586 44.3344 39.9576 43.7989 41.0646C42.931 42.8588 42.6573 44.6765 42.1678 46.5891C41.5382 49.0484 40.5392 51.3961 39.8643 53.842C38.9983 56.9804 38.5436 60.2718 37.8077 63.4472C37.1234 66.4002 36.536 69.3729 35.8668 72.3283C35.6686 73.2035 34.9904 74.3214 35.0482 75.2167C35.1181 76.3005 35.5531 73.1038 35.838 72.0559C36.4291 69.882 37.6124 67.8129 38.6877 65.851C40.8864 61.8395 42.7397 57.6872 45.2299 53.8347C49.5084 47.2157 55.2552 41.1874 57.8252 33.5902C58.9498 30.266 59.9639 26.899 61.1365 23.6046C61.3301 23.0608 63.0797 20.527 62.9156 21.3289C62.7475 22.1502 62.357 22.9662 62.0578 23.7411C61.1467 26.1015 60.7928 28.6649 60.1224 31.1019C57.8879 39.226 53.9453 46.8941 51.1656 54.8543C47.8422 64.3717 45.6051 74.1811 42.1277 83.6421C41.6507 84.9399 41.8209 86.603 41.3197 87.781C40.886 88.8006 41.3471 87.6817 41.6558 87.2191C42.934 85.3037 44.2935 83.6654 45.2227 81.5446C46.8541 77.821 48.4349 74.1499 50.2889 70.5136C52.9616 65.2718 55.7214 60.0745 58.2818 54.776C59.7269 51.7854 61.0421 48.7202 62.7339 45.8561C65.18 41.7153 68.0904 37.8802 70.2878 33.5982C71.2841 31.6568 75.1519 26.4369 74.3545 28.4681C73.46 30.7471 72.1677 32.8582 71.0547 35.0296C70.4921 36.1274 70.1787 37.3479 69.7101 38.4865C67.6879 43.401 65.5311 48.2523 63.5969 53.2044C61.403 58.8215 59.5442 64.5782 56.9072 70.0084C54.6521 74.6523 53.305 79.4552 51.522 84.251C50.0469 88.2185 49.9406 92.599 48.7283 96.6638C47.8962 99.4538 46.673 102.117 45.781 104.871C45.466 105.843 45.2192 106.638 45.3026 107.653C45.3294 107.98 45.2023 107.846 45.3977 107.348C46.0863 105.589 47.0253 103.879 47.8642 102.189C49.3894 99.1176 51.1861 96.2236 53.0082 93.3198C57.1474 86.7235 61.2949 80.1324 65.4315 73.5343C69.2819 67.3929 73.6758 61.3331 77.0451 54.9095C79.2661 50.6753 80.8301 46.2338 83.3259 42.1376C84.4967 40.2159 85.3911 38.2167 86.1336 36.1061C86.4347 35.2501 87.0881 34.3258 87.2994 33.5228C87.4367 33.0011 87.8261 33.5086 87.7549 33.9021C87.3644 36.0612 86.2378 37.93 85.5841 39.9989C84.7231 42.7237 83.784 45.4053 82.8458 48.1056C80.2309 55.6317 78.0176 63.2581 75.61 70.8513C74.1563 75.4358 72.8299 80.1352 71.216 84.666C70.2166 87.4719 68.7124 90.0518 67.5694 92.795C65.0529 98.835 63.1387 105.066 59.6074 110.574C58.7762 111.871 57.4526 114.897 55.7697 115.348C55.3762 115.453 56.061 114.577 56.3005 114.247C57.5221 112.566 58.5307 110.942 59.5066 109.097C64.1646 100.292 68.4975 91.3182 73.1769 82.5186C76.1401 76.9464 79.8279 71.8794 82.9081 66.3889C85.0219 62.6209 86.3795 58.5649 87.9852 54.5735C88.6503 52.9202 89.4947 51.3548 90.1768 49.7099C91.448 46.6446 92.2596 43.4291 93.4292 40.3299C93.6988 39.6154 94.631 38.6883 94.598 37.9228C94.5689 37.2497 95.8779 36.9269 95.867 37.9809C95.8404 40.549 94.7491 43.0483 94.1208 45.4974C91.0651 57.4079 87.4423 69.2047 83.4795 80.8492C80.8969 88.4381 77.989 96.0081 74.813 103.374C73.8742 105.551 72.4982 107.498 71.5543 109.703C70.6575 111.797 69.8242 113.918 68.924 116.011C68.7275 116.468 68.0495 118.747 67.3899 119.091C67.17 119.206 67.0371 118.442 67.0311 118.303C67.0018 117.622 67.3409 117.025 67.7088 116.484C69.5541 113.769 72.0058 111.479 73.9791 108.847C79.2277 101.844 83.7866 94.3062 87.9088 86.593C90.4899 81.7637 93.5151 76.5767 94.6249 71.1533C95.356 67.5807 96.397 64.1456 97.8192 60.7861C98.6835 58.7447 99.9442 56.6421 100.578 54.5171C100.594 54.464 100.722 53.2546 100.809 53.2314C101.042 53.1689 100.795 54.5946 100.777 54.6554C99.8551 57.8167 99.3464 61.1305 98.6116 64.3488C97.4891 69.2661 95.9846 73.9476 94.3064 78.7149C92.3486 84.2767 90.8359 89.9816 89.1666 95.6346C88.5702 97.6542 87.8795 99.5264 87.6433 101.617C87.5238 102.674 87.395 104.392 87.0083 105.355C86.793 105.892 86.5554 106.032 86.7153 106.628C86.8118 106.989 87.1032 105.989 87.2481 105.645C87.788 104.366 88.6113 103.066 89.2988 101.851C92.5554 96.0979 96.6052 90.8143 100.722 85.6519C102.244 83.7429 104.218 82.0291 105.56 79.9906C105.725 79.7405 107.422 78.2695 107.311 78.7104C107.155 79.3363 106.553 80.0624 106.294 80.6934C105.512 82.6012 104.996 84.5596 104.312 86.5037C103.888 87.7091 103.939 89.0302 103.747 90.2827C103.31 93.1242 102.497 95.8032 102.43 98.6869C102.398 100.066 101.95 101.347 101.869 102.701C101.86 102.855 101.479 103.867 101.777 103.787C103.116 103.428 104 100.872 104.813 99.8768C106.624 97.6625 108.597 95.7813 109.977 93.3911" stroke="#FAFF5F" stroke-width="5" stroke-linecap="round"/>
<path d="M105.595 47.3185C106.216 44.6024 107.444 41.8616 108.793 39.4424C108.82 39.3943 110.59 35.9597 110.906 36.4873C111.263 37.0837 111.11 38.183 111.299 38.8889C111.554 39.8418 112.218 40.8682 112.722 41.7223C113.381 42.8408 113.923 43.7303 114.262 44.996C114.418 45.5788 115.233 46.9785 115.95 46.3427C117.224 45.2129 118.154 42.7144 119.097 41.356C119.493 40.7857 121.199 39.0433 121.24 38.3485" stroke="#FAFF5F" stroke-width="5" stroke-linecap="round"/>
</svg>
