<svg width="34" height="34" viewBox="0 0 34 34" fill="none" xmlns="http://www.w3.org/2000/svg">
<path d="M11.1894 0.0607872C10.2795 0.0873528 9.23016 0.140484 8.86487 0.186977C6.18167 0.505772 4.27553 1.38911 2.71475 3.02294C1.00786 4.81617 0.283928 6.86843 0.0647556 10.4815C-0.0215852 11.9227 -0.0215852 21.8253 0.0647556 23.3396C0.277287 27.0855 1.00786 29.1576 2.74132 30.9841C4.28881 32.6113 6.30122 33.4946 9.23016 33.8333C11.1562 34.0591 22.9318 34.0259 25.004 33.7935C27.7071 33.488 29.5269 32.6976 31.1009 31.1501C32.5687 29.7022 33.4454 27.7828 33.7709 25.2922C34.0764 22.9942 34.0764 10.9862 33.7709 8.67494C33.2063 4.36454 30.988 1.65477 27.1691 0.578831C26.0201 0.260033 24.8778 0.127201 22.5997 0.0541458C20.3083 -0.0189133 13.7265 -0.0189133 11.1894 0.0607872ZM23.41 3.11592C28.0989 3.42808 30.1446 5.03535 30.7091 8.84098C30.8951 10.0564 30.9681 13.2776 30.9283 18.4514C30.8951 23.24 30.8618 24.017 30.6427 25.3918C30.1711 28.3606 28.4111 30.1339 25.4357 30.6321C24.207 30.838 23.2971 30.8778 19.0929 30.911C12.7236 30.9708 9.41613 30.8446 7.92841 30.4992C5.53079 29.948 4.00986 28.4271 3.37891 25.963C3.03355 24.6148 3.02027 24.2893 3.02027 17.1231C3.02027 11.0991 3.03355 10.3553 3.13982 9.4985C3.51174 6.51642 4.46149 4.8693 6.34107 3.93948C7.01187 3.6074 8.09445 3.30189 9.09733 3.16905C10.3327 3.00965 21.1983 2.96317 23.41 3.11592Z" fill="#1D7C2B"/>
<path d="M25.4156 5.99132C23.9943 6.50272 23.5825 8.28267 24.6451 9.34533C25.0702 9.76375 25.4421 9.9165 26.0664 9.9165C26.5114 9.9165 26.6575 9.88994 26.9763 9.73054C27.6471 9.39846 28.0257 8.82064 28.0788 8.05021C28.1253 7.36613 27.9726 6.96763 27.501 6.48944C27.2486 6.23706 27.0228 6.0843 26.8037 6.01124C26.4118 5.87841 25.7676 5.87177 25.4156 5.99132Z" fill="#1D7C2B"/>
<path d="M15.4732 8.39611C13.8128 8.69498 12.252 9.49197 11.0233 10.6609C9.7548 11.8697 8.95116 13.2511 8.51946 14.9779C8.35342 15.6222 8.34014 15.8148 8.3335 16.9239C8.3335 18.5976 8.53939 19.554 9.20355 20.869C10.5053 23.4593 12.9693 25.2193 15.8651 25.6311C16.7152 25.7506 18.2029 25.6709 19.0398 25.465C21.5968 24.8274 23.6357 23.2002 24.8246 20.8425C25.4223 19.6603 25.7013 18.4116 25.7013 16.9505C25.7013 14.6392 24.8777 12.6135 23.2638 10.9398C21.9488 9.58496 20.3083 8.70827 18.5018 8.38947C17.7779 8.26328 16.1772 8.26992 15.4732 8.39611ZM18.1564 11.4446C19.2523 11.6704 20.1622 12.1685 20.9924 12.9987C22.0418 14.0481 22.5664 15.2303 22.6329 16.6981C22.6661 17.6346 22.593 18.1593 22.3074 18.9563C21.6499 20.7694 20.0227 22.1442 18.0701 22.5427C17.645 22.6224 17.3196 22.6423 16.7418 22.6158C15.8053 22.5693 15.3736 22.4564 14.5102 22.038C13.0756 21.3472 11.9997 20.0588 11.548 18.5046C11.3488 17.8073 11.3023 16.6516 11.4484 15.921C11.9067 13.6762 13.6136 11.9361 15.8385 11.4446C16.3831 11.3251 17.5653 11.3251 18.1564 11.4446Z" fill="#1D7C2B"/>
</svg>
