<?xml version="1.0" standalone="no"?>
<!DOCTYPE svg PUBLIC "-//W3C//DTD SVG 20010904//EN"
 "http://www.w3.org/TR/2001/REC-SVG-20010904/DTD/svg10.dtd">
<svg version="1.0" xmlns="http://www.w3.org/2000/svg"
 width="512.000000pt" height="512.000000pt" viewBox="0 0 512.000000 512.000000"
 preserveAspectRatio="xMidYMid meet">

<g transform="translate(0.000000,512.000000) scale(0.100000,-0.100000)"
fill="#000000" stroke="none">
<path d="M685 4868 c-154 -29 -314 -155 -385 -302 -48 -100 -60 -166 -60 -318
0 -113 1 -120 25 -143 29 -30 74 -32 106 -6 23 18 24 27 29 168 6 139 8 152
37 215 43 92 100 151 191 196 l76 37 1856 0 1856 0 76 -37 c91 -45 147 -103
191 -196 l32 -67 3 -327 3 -328 -240 0 -241 0 0 216 c0 141 -4 231 -12 258
-16 55 -99 138 -154 154 -59 17 -1049 17 -1108 0 -55 -16 -138 -99 -154 -154
-8 -27 -12 -117 -12 -258 l0 -216 -240 0 -240 0 0 216 c0 141 -4 231 -12 258
-16 55 -99 138 -154 154 -59 17 -1049 17 -1108 0 -55 -16 -138 -99 -154 -154
-8 -27 -12 -117 -12 -258 l0 -216 -295 0 -296 0 -24 -25 -25 -24 0 -1479 c0
-1005 3 -1497 11 -1538 17 -95 78 -210 149 -282 70 -70 121 -103 219 -141 l66
-26 1593 -3 1593 -2 24 24 c30 30 33 74 6 107 l-19 24 -1589 5 -1588 5 -67 32
c-93 44 -151 100 -196 191 l-37 76 -3 1048 -2 1048 1975 0 1976 0 24 25 c33
32 33 78 0 110 l-24 25 -1976 0 -1975 0 0 320 0 320 249 0 249 0 12 -30 c17
-42 90 -104 138 -118 55 -17 1049 -17 1104 0 48 14 121 76 138 118 l12 30 258
0 258 0 12 -30 c17 -42 90 -104 138 -118 55 -17 1049 -17 1104 0 48 14 121 76
138 118 l12 30 249 0 249 0 -2 -1448 -3 -1448 -37 -76 c-65 -130 -182 -212
-324 -225 -52 -5 -74 -12 -91 -29 -31 -32 -30 -78 3 -111 25 -24 30 -25 99
-20 79 7 177 38 246 79 101 60 199 183 241 306 l23 67 0 1865 c0 1796 -1 1867
-19 1920 -31 92 -76 166 -136 229 -65 66 -121 102 -219 140 l-66 26 -1850 1
c-1130 1 -1869 -2 -1900 -8z m1450 -653 l25 -24 0 -271 0 -271 -25 -24 -24
-25 -511 0 -511 0 -24 25 -25 24 0 271 0 271 25 24 24 25 511 0 511 0 24 -25z
m1920 0 l25 -24 0 -271 0 -271 -25 -24 -24 -25 -511 0 -511 0 -24 25 -25 24 0
271 0 271 25 24 24 25 511 0 511 0 24 -25z"/>
</g>
</svg>
