<?xml version="1.0" standalone="no"?>
<!DOCTYPE svg PUBLIC "-//W3C//DTD SVG 20010904//EN"
 "http://www.w3.org/TR/2001/REC-SVG-20010904/DTD/svg10.dtd">
<svg version="1.0" xmlns="http://www.w3.org/2000/svg"
 width="512.000000pt" height="512.000000pt" viewBox="0 0 512.000000 512.000000"
 preserveAspectRatio="xMidYMid meet">

<g transform="translate(0.000000,512.000000) scale(0.100000,-0.100000)"
fill="#000000" stroke="none">
<path d="M3790 4961 c-91 -29 -142 -61 -211 -130 -74 -74 -113 -146 -135 -249
-17 -84 -17 -120 0 -204 22 -103 61 -175 135 -249 103 -103 213 -149 355 -149
45 0 104 6 132 14 213 57 374 266 374 486 0 222 -160 429 -375 486 -71 19
-208 17 -275 -5z m291 -169 c74 -36 125 -87 161 -160 30 -60 33 -76 33 -152 0
-76 -3 -92 -33 -152 -36 -73 -87 -124 -161 -160 -38 -19 -62 -23 -146 -23 -86
0 -106 3 -145 24 -106 57 -159 123 -187 235 -43 174 59 349 237 407 49 16 192
5 241 -19z"/>
<path d="M1588 4358 c-11 -10 -1271 -1812 -1521 -2177 -43 -62 -48 -110 -17
-141 27 -27 75 -26 103 3 12 12 348 491 746 1065 398 574 727 1039 731 1035 4
-4 317 -465 695 -1023 379 -558 704 -1034 722 -1057 28 -35 41 -43 67 -43 58
0 101 63 75 112 -7 12 -154 231 -326 486 -173 255 -313 467 -311 471 4 11 511
481 519 481 3 0 221 -281 483 -625 263 -344 488 -632 499 -640 52 -36 117 1
117 66 -1 29 -29 71 -180 269 -99 129 -179 237 -179 240 0 3 102 94 227 202
l226 198 351 -530 c380 -574 375 -568 440 -537 37 17 51 50 41 90 -10 43 -761
1151 -788 1165 -19 9 -34 9 -53 2 -14 -5 -134 -103 -267 -217 -132 -115 -250
-216 -263 -225 l-23 -18 -263 342 c-325 422 -322 418 -365 418 -39 0 -20 16
-367 -302 -143 -131 -262 -238 -266 -238 -3 0 -175 253 -381 561 -206 308
-383 565 -392 570 -24 13 -61 11 -80 -3z"/>
<path d="M1578 3663 c-39 -42 -524 -745 -533 -771 -17 -57 44 -114 96 -88 13
6 125 156 249 333 124 177 228 324 231 327 3 3 21 -17 40 -44 33 -50 62 -67
104 -61 28 3 65 47 65 76 0 24 -117 206 -152 238 -30 25 -70 21 -100 -10z"/>
<path d="M1873 2988 c-11 -13 -23 -28 -27 -35 -7 -12 79 -345 96 -372 6 -10
57 -46 114 -82 l102 -64 31 -97 c34 -104 61 -138 111 -138 29 0 64 31 75 68 6
22 -41 183 -72 245 -9 18 -55 55 -123 98 -69 44 -110 78 -114 92 -3 12 -20 76
-37 142 -35 134 -55 165 -104 165 -20 0 -39 -8 -52 -22z"/>
<path d="M640 2120 c-18 -18 -20 -33 -20 -175 l0 -155 -120 -150 c-101 -127
-120 -156 -120 -185 0 -48 29 -75 80 -75 38 0 42 4 97 77 l58 77 3 -79 3 -78
-150 -151 c-87 -88 -152 -162 -156 -178 -13 -51 41 -106 92 -93 15 3 69 47
120 98 l93 91 0 -96 c0 -92 1 -97 26 -117 35 -27 67 -26 101 3 26 22 28 31 33
115 l5 92 70 -76 c72 -79 120 -115 149 -115 10 0 31 13 47 29 53 54 46 67
-121 236 l-151 152 3 78 3 79 44 -60 c56 -74 68 -83 109 -84 43 0 72 30 72 76
0 32 -16 56 -114 179 l-115 143 -3 160 c-3 141 -5 163 -22 181 -26 28 -88 29
-116 1z"/>
<path d="M1728 1980 c-9 -6 -75 -85 -147 -176 -109 -137 -131 -172 -131 -199
0 -53 60 -90 114 -69 9 3 39 38 68 77 l53 71 3 -119 3 -119 -145 -146 c-80
-80 -150 -157 -155 -173 -22 -57 39 -118 96 -96 15 5 67 49 116 97 l87 87 0
-190 0 -190 -180 3 c-434 9 -787 -88 -1208 -331 -87 -50 -185 -106 -220 -124
-34 -19 -67 -43 -72 -53 -17 -32 -11 -75 13 -98 37 -35 81 -29 172 24 290 167
428 234 604 295 577 199 1087 163 1631 -114 324 -165 520 -231 815 -273 141
-19 415 -22 550 -5 426 55 830 229 1185 512 112 89 131 110 137 156 4 32 1 43
-22 66 -45 44 -75 37 -154 -37 -192 -181 -473 -344 -747 -434 -67 -22 -135
-43 -152 -47 l-32 -7 0 273 0 273 128 -127 c115 -114 132 -127 164 -127 45 0
78 34 78 80 0 31 -19 52 -190 225 l-191 191 3 132 3 132 84 -106 c46 -58 95
-110 108 -115 53 -20 103 17 103 76 0 24 -34 72 -165 238 -96 121 -175 211
-190 217 -16 6 -34 6 -50 0 -15 -6 -94 -96 -190 -217 -144 -182 -165 -213
-165 -244 0 -38 18 -62 58 -73 39 -13 60 3 144 107 45 56 85 106 90 112 4 5 8
-52 8 -126 l0 -136 -179 -185 c-105 -108 -183 -196 -187 -212 -13 -54 49 -106
103 -85 15 6 83 65 150 132 l123 121 0 -291 0 -291 -77 -9 c-132 -14 -407 -9
-532 11 -241 37 -447 104 -673 220 -226 116 -446 198 -628 233 l-90 18 0 200
0 200 94 -94 c78 -78 100 -94 125 -94 42 0 81 37 81 77 0 26 -22 53 -150 181
l-151 151 3 122 3 123 53 -70 c54 -73 80 -89 128 -77 32 8 58 64 45 98 -11 28
-234 315 -265 340 -23 19 -62 23 -88 8z"/>
<path d="M1305 349 c-169 -13 -365 -46 -395 -68 -36 -26 -48 -66 -29 -99 24
-43 55 -48 177 -29 308 49 576 48 869 -2 116 -20 150 -13 171 33 30 66 4 101
-93 121 -200 41 -494 60 -700 44z"/>
</g>
</svg>
