<svg width="20" height="18" viewBox="0 0 20 18" fill="none" xmlns="http://www.w3.org/2000/svg">
<path d="M10.0332 16.7915C10.0826 16.7711 10.1529 16.7336 10.2744 16.6616C12.3949 15.3992 15.018 13.3141 16.5127 11.7124C18.2516 9.84677 19.1211 8.33062 19.4365 6.75342L19.4375 6.75146C19.4798 6.54452 19.5038 6.19233 19.5 5.8042C19.4962 5.41997 19.4652 5.04673 19.417 4.80127C19.0791 3.11187 18.0865 1.73765 16.7373 1.03662L16.7354 1.03564C16.2995 0.806852 16.1014 0.731013 15.6475 0.615723L15.6455 0.614746C15.1831 0.495827 14.319 0.463101 13.8389 0.54541H13.8398C13.3419 0.632058 12.7405 0.850061 12.3047 1.09033L12.1289 1.19482C11.5715 1.55237 10.9699 2.1348 10.6396 2.62842L10.6387 2.63037L10.4756 2.86279C10.4533 2.89334 10.4299 2.92518 10.4082 2.95166C10.3985 2.96355 10.3817 2.98375 10.3613 3.00439C10.3522 3.0136 10.3308 3.03412 10.3018 3.05615C10.2873 3.06706 10.2599 3.08721 10.2227 3.10596C10.2005 3.11707 10.1486 3.14121 10.0762 3.15283L9.99707 3.15967C9.88131 3.15967 9.79719 3.11956 9.76855 3.10498C9.73163 3.08614 9.70453 3.06594 9.69043 3.05518C9.66175 3.03329 9.64086 3.01259 9.63184 3.00342C9.61175 2.98299 9.59504 2.96301 9.58496 2.95068C9.56267 2.9234 9.53816 2.89034 9.51465 2.85791C9.46691 2.79207 9.40696 2.70561 9.3457 2.61182C9.23193 2.44124 9.00464 2.17849 8.74023 1.91455C8.47588 1.6507 8.21146 1.42283 8.03711 1.30713C7.44483 0.91603 6.81628 0.661895 6.16895 0.549316H6.16797C6.05557 0.529399 5.78082 0.510764 5.47656 0.504395C5.16717 0.497923 4.91366 0.505924 4.83203 0.519043L4.82715 0.52002C3.30268 0.752548 2.03431 1.63793 1.23145 3.04541L1.07715 3.3335C0.858699 3.77431 0.708611 4.20709 0.595703 4.75342L0.594727 4.75537C0.514542 5.13541 0.503821 5.25916 0.5 5.86963C0.500006 6.46861 0.512316 6.60659 0.575195 6.89795C0.810884 7.98574 1.35492 9.11547 2.22656 10.2778L2.22754 10.2769C3.10029 11.4367 4.55513 12.8912 6.06152 14.0933L6.0625 14.0942C7.14449 14.9598 8.7531 16.0881 9.66797 16.6294C9.80215 16.7087 9.88571 16.7545 9.94727 16.7817C10.0039 16.8068 10.0152 16.8036 10.0039 16.8032C9.98898 16.8028 9.9915 16.8088 10.0332 16.7915Z" fill="currentColor" stroke="white"/>
</svg>
