<svg width="34" height="34" viewBox="0 0 34 34" fill="none" xmlns="http://www.w3.org/2000/svg">
<path d="M29.9524 0H4.04762C1.81333 0 0 1.81333 0 4.04762V29.9524C0 32.1867 1.81333 34 4.04762 34H29.9524C32.1867 34 34 32.1867 34 29.9524V4.04762C34 1.81333 32.1867 0 29.9524 0ZM10.5238 12.9524V28.3333H5.66667V12.9524H10.5238ZM5.66667 8.47571C5.66667 7.34238 6.6381 6.47619 8.09524 6.47619C9.55238 6.47619 10.4671 7.34238 10.5238 8.47571C10.5238 9.60905 9.61714 10.5238 8.09524 10.5238C6.6381 10.5238 5.66667 9.60905 5.66667 8.47571ZM28.3333 28.3333H23.4762C23.4762 28.3333 23.4762 20.8371 23.4762 20.2381C23.4762 18.619 22.6667 17 20.6429 16.9676H20.5781C18.619 16.9676 17.8095 18.6352 17.8095 20.2381C17.8095 20.9748 17.8095 28.3333 17.8095 28.3333H12.9524V12.9524H17.8095V15.0248C17.8095 15.0248 19.3719 12.9524 22.5129 12.9524C25.7267 12.9524 28.3333 15.1624 28.3333 19.639V28.3333Z" fill="#1D7C2B"/>
</svg>
