<svg width="42" height="41" viewBox="0 0 42 41" fill="none" xmlns="http://www.w3.org/2000/svg">
<path d="M22.4832 6.05859C23.2629 5.5153 24.3183 5.59574 25.0067 6.25098L40.8358 21.3223C42.1426 22.5672 41.2619 24.7701 39.4569 24.7705H37.2615V39C37.2611 40.1041 36.3656 40.9997 35.2615 41H7.26154C6.15733 40.9999 5.26194 40.1041 5.26154 39V24.7705H2.00373C0.0462673 24.7704 -0.745756 22.2492 0.860172 21.1299L8.44904 15.8398V9.04199C8.44904 8.76599 8.6731 8.54223 8.94904 8.54199H14.783C15.0591 8.54211 15.283 8.76592 15.283 9.04199V11.0762L22.4832 6.05859ZM11.6717 0C12.6093 8.44122e-05 13.4043 0.451806 13.6971 1.08008C13.7368 1.07562 13.7773 1.07422 13.8182 1.07422C14.4112 1.07422 14.8923 1.55451 14.8924 2.14746C14.8924 2.19549 14.8868 2.2427 14.8807 2.28906C15.5287 2.47393 15.9656 2.82193 15.9656 3.22168C15.9653 3.81457 15.004 4.29492 13.8182 4.29492C13.7868 4.29492 13.7555 4.29266 13.7244 4.29199C13.5039 4.91874 12.909 5.36914 12.2069 5.36914C11.5048 5.36897 10.9097 4.91875 10.6893 4.29199C10.6588 4.29264 10.6282 4.29492 10.5975 4.29492C9.41162 4.29492 8.44943 3.81456 8.44904 3.22168C8.44904 2.78913 8.96099 2.41621 9.69806 2.24609C9.58626 2.05107 9.52423 1.8361 9.52423 1.61035C9.5245 0.720945 10.4858 0 11.6717 0Z" fill="white"/>
</svg>
