<svg width="82" height="43" viewBox="0 0 82 43" fill="none" xmlns="http://www.w3.org/2000/svg">
<path d="M3.65632 35.7894C13.1289 35.7894 22.2012 34.1118 31.6215 33.2806C36.0273 32.8919 40.4913 31.2684 44.8294 31.1408C51.5554 30.943 58.3176 31.1408 65.0469 31.1408C65.8529 31.1408 68.3934 31.303 66.8178 29.8126C63.2831 26.469 57.3852 25.6449 52.7614 25.8651C42.3583 26.3604 32.0399 26.4922 21.5865 26.4922C14.4603 26.4922 8.1972 24.5 1 24.5" stroke="#FF1100" stroke-width="2" stroke-linecap="round"/>
<path d="M8.30518 37.1177C18.6522 37.1177 29.1116 38.0369 39.2587 40.1429C43.6332 41.0508 47.684 41.7662 52.1345 41.7662C55.0122 41.7662 57.8899 41.7662 60.7676 41.7662" stroke="#FF1100" stroke-width="2" stroke-linecap="round"/>
<path d="M21.8384 6.5C22.3798 9.20703 23.6978 11.9775 23.6978 14.7513C23.6978 15.2947 23.5233 16.218 23.7495 16.7269C23.9672 17.2168 23.7398 20.1923 24.6275 19.7485" stroke="#FF1100" stroke-width="3" stroke-linecap="round"/>
<path d="M31.8384 18.5C30.2093 18.8882 28.542 19.8333 26.8728 19.8333C26.5458 19.8333 25.9901 19.7082 25.6838 19.8704C25.389 20.0265 23.5983 19.8635 23.8654 20.5" stroke="#FF1100" stroke-width="3" stroke-linecap="round"/>
<path d="M44.1083 8.23183C42.8062 8.23183 41.5195 8.13423 40.2733 8.59339C40.0363 8.68067 38.839 9.06813 38.7754 9.29068C38.5265 10.1618 38.1345 11.1289 37.7294 11.9507C37.3273 12.7664 36.2558 13.7894 36.2057 14.7399C36.1501 15.7966 37.5318 17.6828 38.53 17.9681C39.2626 18.1774 40.8783 18.1124 41.5516 17.8131C42.6161 17.34 44.0667 17.5724 45.0381 16.9479C46.2374 16.177 47.4483 16.6407 48.008 15.0239C48.4988 13.6061 48.0805 12.7769 46.8975 11.8474C46.3315 11.4027 45.0381 10.8554 45.0381 10.0913" stroke="#FF1100" stroke-width="3" stroke-linecap="round"/>
<path d="M50.3843 7.7667C52.1098 9.49221 54.0031 10.9193 55.8335 12.5057C56.4554 13.0447 56.9276 13.2409 57.4605 13.9261C57.75 14.2983 58.4409 14.6771 58.5322 15.0882C58.6508 15.6218 59.2239 16.2488 59.7977 16.1213C60.6672 15.928 60.3128 14.1009 60.4304 13.5258C60.7238 12.0912 61.8221 10.5517 62.5998 9.34205C63.4994 7.94267 64.0976 6.6574 64.0976 4.97754" stroke="#FF1100" stroke-width="3" stroke-linecap="round"/>
<path d="M77.5784 14.0429C76.6661 14.0429 75.827 14.4131 74.97 14.6885C74.2829 14.9094 73.2162 14.7402 72.5166 14.7402C72.0899 14.7402 70.0665 15.0276 69.7274 14.6885C69.3123 14.2734 69.7914 12.7173 69.6241 12.1318C69.3664 11.2296 69.2109 10.5156 69.2109 9.57506C69.2109 8.71298 69.5903 8.04871 69.6758 7.25076C69.7834 6.24604 70.5533 4.96828 70.8896 3.99675C71.1131 3.35098 72.1812 2.7312 72.8007 2.52469C74.2532 2.04051 78.7541 0.476301 79.6703 2.5376C79.7815 2.78793 80.1194 2.85064 80.1351 3.11868C80.1532 3.42591 80.1206 3.65733 80.2514 3.94509C80.5291 4.55614 80.4284 5.7088 80.3547 6.37269C80.1666 8.06512 78.1511 8.29465 77.0102 8.81321C76.4258 9.07885 75.7131 8.86859 75.0862 8.94234C73.6351 9.11306 72.2905 10.0916 70.8379 10.0916" stroke="#FF1100" stroke-width="3" stroke-linecap="round"/>
</svg>
