<svg width="4" height="6" viewBox="0 0 4 6" fill="none" xmlns="http://www.w3.org/2000/svg">
<path d="M1.75458 0.0127668C1.31163 0.0772719 0.903075 0.302453 0.586237 0.656644C0.266272 1.01553 0.0682478 1.47762 0.0140518 1.98896C-0.0140885 2.25754 -0.000539488 2.49679 0.05991 2.78062C0.238132 3.61097 0.818655 4.64305 1.69934 5.69507C1.92655 5.96599 1.9599 6 2.00055 6C2.04015 6 2.10164 5.9355 2.34344 5.64229C3.31376 4.46478 3.8849 3.37172 3.98496 2.50149C4.06104 1.83884 3.8453 1.14571 3.41173 0.656644C3.11365 0.321218 2.74783 0.108938 2.31738 0.0244951C2.18502 -0.00247955 1.89632 -0.0083437 1.75458 0.0127668ZM2.22358 1.24774C2.56231 1.35212 2.80098 1.62305 2.89165 2.00773C2.91979 2.12853 2.91875 2.37365 2.88853 2.49914C2.82704 2.75364 2.68946 2.97179 2.50394 3.10666C1.90987 3.53943 1.13132 3.09962 1.08547 2.3068C1.06879 2.01594 1.16572 1.73212 1.35332 1.51984C1.49089 1.3662 1.64723 1.27237 1.83796 1.23132C1.93593 1.21021 2.1277 1.21842 2.22358 1.24774Z" fill="#E54F4F" fill-opacity="0.8"/>
</svg>
