<svg width="49" height="67" viewBox="0 0 49 67" fill="none" xmlns="http://www.w3.org/2000/svg">
<path d="M22.3401 0.033371C19.3693 0.372276 17.6699 0.737244 15.7499 1.45415C10.6645 3.37026 6.40945 6.8766 3.5165 11.5561C0.792206 15.9748 -0.46616 21.6971 0.156537 26.8067C1.16842 35.0316 7.0062 46.3718 16.6839 58.9373C18.9672 61.9092 21.912 65.4677 22.5866 66.0803C23.4817 66.8884 24.5714 66.8884 25.4666 66.0803C26.1412 65.4677 29.086 61.9092 31.3692 58.9373C40.074 47.6362 45.6653 37.3648 47.4296 29.3876C47.8836 27.3411 48.0263 26.0116 48.0263 23.8739C48.0134 17.6172 45.5226 11.6343 41.021 7.12426C37.3108 3.38329 32.9389 1.12829 27.7887 0.281029C26.5693 0.0855103 23.2223 -0.0709076 22.3401 0.033371ZM25.5444 12.0905C30.3833 12.7422 34.3919 16.2355 35.7021 20.9411C36.0524 22.1794 36.1821 24.669 35.9746 26.0246C35.3648 29.8829 32.8481 33.2719 29.2806 35.0186C27.179 36.0483 25.0255 36.4393 22.8331 36.1917C21.1207 35.9962 20.2515 35.7485 18.7726 35.0186C15.205 33.2719 12.6883 29.8829 12.0786 26.0246C11.871 24.669 12.0007 22.1794 12.351 20.9411C13.9726 15.1276 19.6936 11.2823 25.5444 12.0905Z" fill="currentColor"/>
</svg>
