<svg width="16" height="19" viewBox="0 0 16 19" fill="none" xmlns="http://www.w3.org/2000/svg">
<path d="M6.90237 0.0473461C5.91777 0.198823 5.03777 0.66768 4.34891 1.39982C3.59152 2.20409 3.19841 3.13459 3.14431 4.24902C3.06857 5.80707 3.83316 7.29659 5.15318 8.15856C5.80236 8.58414 6.4263 8.80054 7.18369 8.86185C8.58665 8.97005 9.78404 8.53004 10.7506 7.54544C11.5188 6.76642 11.9083 5.91527 12.0021 4.82968C12.1319 3.37983 11.5837 2.03097 10.4909 1.08604C9.78404 0.480137 9.13485 0.177183 8.23681 0.0473461C7.80402 -0.0139656 7.2991 -0.0175724 6.90237 0.0473461Z" fill="#3D3D3D" fill-opacity="0.7"/>
<path d="M3.62769 8.94123C1.99751 9.11435 0.86504 10.2829 0.338478 12.3459C-0.0113612 13.72 -0.101526 15.3718 0.122083 16.277C0.306019 17.002 0.908319 17.7377 1.60439 18.0911C1.91816 18.2498 2.36899 18.3797 2.74768 18.423C2.97129 18.4518 4.6736 18.459 7.93035 18.4518L12.7812 18.441L13.0878 18.3544C14.2275 18.0443 15.0065 17.2797 15.2914 16.2049C15.4393 15.6459 15.4212 14.3114 15.2481 13.2583C14.8694 10.914 13.9101 9.50746 12.3917 9.06746C12.0455 8.96648 11.4251 8.89074 11.2412 8.9268C11.0645 8.95926 10.8192 9.0891 10.2638 9.44615C9.67233 9.82845 9.58938 9.87173 9.14577 10.0376C8.63363 10.2288 8.21166 10.3117 7.71756 10.3117C7.21264 10.3117 6.82312 10.2396 6.31099 10.0593C5.82771 9.88616 5.80607 9.87534 5.04868 9.39566C4.65196 9.1432 4.35622 8.9809 4.24081 8.94844C4.03884 8.89795 4.03884 8.89795 3.62769 8.94123Z" fill="#3D3D3D" fill-opacity="0.7"/>
</svg>
