<svg width="27" height="30" viewBox="0 0 27 30" fill="none" xmlns="http://www.w3.org/2000/svg">
<path d="M17.4731 0.082983C15.9241 0.365741 14.5594 1.26934 13.7235 2.56634C13.1825 3.39617 12.9797 4.25059 13.1334 5.06198C13.2256 5.55988 13.41 5.8119 13.8464 6.03934C14.2214 6.23604 14.2828 6.3098 14.6762 7.00441C15.0389 7.65598 15.5307 7.90185 16.2867 7.83424C17.7251 7.70515 18.5488 6.7155 18.5672 5.09272C18.5795 4.24444 18.4996 3.74654 18.3336 3.58058C18.1369 3.38387 17.8542 3.38387 17.6513 3.58672C17.4977 3.7404 17.4977 3.75884 17.5468 4.21985C17.7313 5.92255 17.3317 6.72165 16.2498 6.85073C15.8011 6.90605 15.6782 6.82 15.3647 6.24219C15.0205 5.62135 14.8545 5.4308 14.4611 5.24639C14.1722 5.11116 14.123 5.06198 14.0861 4.87143C13.9509 4.15839 14.289 3.29782 15.002 2.5356C15.9056 1.56439 16.9506 1.06649 18.2169 0.992726C19.8028 0.900522 20.9953 1.61356 21.401 2.90442C21.4932 3.19947 21.5608 3.29167 21.8312 3.48837C22.3168 3.85719 22.7533 4.04774 23.5278 4.2383C24.4314 4.46573 24.5297 4.57638 24.2593 5.10501C23.915 5.78732 23.2204 6.22989 22.3599 6.33439C20.9953 6.49421 20.6449 6.611 20.2884 7.02285C19.8827 7.47772 19.8704 7.95103 20.2392 8.93454C20.6142 9.93648 20.7432 10.1885 20.9092 10.2623C21.0813 10.3422 21.3272 10.2991 21.4624 10.1578C21.6591 9.96722 21.6468 9.78281 21.3887 9.16197C21.0444 8.31984 20.9276 7.93874 20.9707 7.77277C21.026 7.55148 21.3764 7.4224 22.0771 7.36093C23.245 7.26258 23.9089 6.98596 24.5482 6.34669C25.421 5.47382 25.6054 4.50876 25.0215 3.85719C24.7264 3.5314 24.5789 3.46378 23.8905 3.31011C23.2635 3.17488 22.4336 2.80607 22.3783 2.64625C22.366 2.58478 22.2492 2.33275 22.1263 2.08073C21.6653 1.10952 20.5773 0.291978 19.4524 0.082983C18.8746 -0.0276613 18.0632 -0.0276613 17.4731 0.082983Z" fill="black"/>
<path d="M14.3996 8.28911C14.2029 8.36287 14.1537 8.45508 13.7972 9.33409C13.2009 10.8216 12.4449 12.217 11.5474 13.4833C11.0618 14.1656 11.0188 14.35 11.2647 14.5897C11.4183 14.7495 11.6519 14.7864 11.8425 14.688C11.9777 14.6143 12.7522 13.5078 13.2686 12.6534C13.9755 11.4732 15.045 9.10665 15.045 8.71939C15.045 8.57187 14.7315 8.22764 14.6024 8.23379C14.5594 8.23379 14.4672 8.25838 14.3996 8.28911Z" fill="black"/>
<path d="M22.7595 10.4161C21.4133 10.6497 20.4544 11.2521 19.9688 12.1557C19.6245 12.8073 19.5323 13.3113 19.4709 14.9587C19.3848 17.3806 19.3172 17.4974 17.2272 18.6776C16.004 19.366 15.0205 20.0606 14.3505 20.6999L13.7481 21.2777L14.0001 20.8474C14.5042 19.9684 14.6394 19.2677 14.4673 18.3702C14.3136 17.5404 13.9755 16.9073 13.367 16.311C12.8138 15.7701 12.3404 15.4935 11.6581 15.3214C10.2874 14.971 8.28348 15.9852 8.07449 17.1409C8.01302 17.4851 8.18513 17.9523 8.44945 18.1858C8.65844 18.3702 8.69532 18.3825 9.0457 18.3579C9.32231 18.3395 9.59277 18.2534 10.0968 18.0322C11.1541 17.5588 11.652 17.6142 11.9225 18.235C11.9962 18.3948 12.0638 18.7022 12.0823 18.9235C12.1069 19.2923 12.0884 19.3599 11.8917 19.741C11.7688 19.9684 11.2832 20.7429 10.8099 21.4683C9.48213 23.4845 9.17478 24.1791 9.17478 25.1011C9.18093 25.5806 9.20552 25.7219 9.38378 26.1461C9.98618 27.6275 11.6889 29.3855 12.9736 29.8588C13.3178 29.9818 13.4162 29.9879 16.4958 29.9879H19.6614L19.8089 29.8342L19.9626 29.6867L20.1163 29.8342L20.2638 29.9879H21.862C22.9193 29.9879 23.5094 29.9633 23.6139 29.9203C23.9458 29.7666 23.9643 29.2933 23.6631 28.6171C23.4295 28.0885 23.0053 27.7504 22.3169 27.5537C22.114 27.4984 22.0464 26.4043 22.2062 25.7773C22.3845 25.0827 22.5812 24.7815 23.4356 23.9025C24.6404 22.6608 24.8494 22.1629 24.8433 20.5217C24.8371 19.2062 24.5851 17.8969 24.1978 17.1286C24.1302 16.9995 24.081 16.8827 24.081 16.8642C24.081 16.8458 24.2655 16.8335 24.499 16.8335C25.458 16.8274 26.2509 16.6307 26.5705 16.311C26.9885 15.8869 26.9148 15.3951 26.2939 14.5284C25.8882 13.9506 25.8821 13.9383 25.8452 13.4589C25.7837 12.6536 25.5256 12.2356 24.9293 11.9775C24.7634 11.9098 24.6466 11.8238 24.665 11.793C24.6834 11.7685 24.7388 11.5287 24.7941 11.2706C24.9047 10.7296 24.8556 10.5022 24.5974 10.3854C24.3884 10.2932 23.3619 10.3116 22.7595 10.4161ZM23.7737 11.3566C23.7737 11.4734 23.6262 11.8361 23.5155 11.9713C23.3741 12.1557 23.3741 12.4139 23.5217 12.5983C23.6077 12.7089 23.7245 12.7458 24.0626 12.7827C24.3023 12.8073 24.5544 12.8626 24.6281 12.9118C24.7941 13.0163 24.8801 13.2745 24.8801 13.6924C24.8801 14.0981 25.04 14.4792 25.4457 15.0263C25.9005 15.6349 25.9067 15.6472 25.6362 15.7271C25.5071 15.764 24.9846 15.8131 24.4683 15.8316C23.4295 15.8684 23.2635 15.9238 23.0361 16.2926C22.864 16.5815 22.8762 16.6983 23.1897 17.3068C23.9274 18.7636 24.1179 21.0933 23.5831 22.1752C23.4356 22.4764 23.2266 22.7345 22.7902 23.1648C21.8313 24.1115 21.5915 24.4741 21.3026 25.3777C21.0936 26.0477 21.0998 27.1911 21.3088 27.7996C21.487 28.3159 21.6592 28.5126 21.9419 28.5126C22.2062 28.5188 22.6365 28.7155 22.7287 28.8753C22.7963 29.0044 22.7902 29.0044 21.8743 29.0044C20.9646 29.0044 20.9461 29.0044 20.9215 28.863C20.9092 28.7893 20.8662 28.5311 20.8232 28.2975C20.6695 27.3324 20.5097 27.0374 20.147 27.0374C19.9688 27.0374 19.7475 27.2156 19.686 27.4062C19.6676 27.4738 19.7044 27.7566 19.7721 28.0332C19.8397 28.3159 19.9073 28.7093 19.9257 28.9122L19.9626 29.281L19.8458 28.9306C19.7106 28.5126 19.5385 28.2483 19.2065 27.9533L18.9607 27.7258L19.0898 27.5476C19.5323 26.9267 19.8643 25.9432 19.938 25.0519C19.9933 24.345 19.8581 24.0869 19.434 24.0869C19.1389 24.0869 19.0037 24.3143 18.9607 24.886C18.8746 25.9678 18.5365 26.7854 17.8911 27.4431C17.5899 27.7566 17.5038 27.8857 17.5038 28.027C17.5038 28.2729 17.7497 28.5126 17.9895 28.5126C18.3091 28.5126 18.7947 28.777 18.7947 28.9552C18.7947 28.9798 17.5838 29.0044 16.1085 29.0044H13.4162L13.0904 28.8507C12.6355 28.6417 12.1437 28.2483 11.5352 27.609C10.9574 26.9944 10.6439 26.5579 10.3673 25.9617C9.88168 24.9351 10.0907 24.3205 11.7319 21.8432C12.992 19.9377 13.1826 19.446 13.0228 18.5178C12.8814 17.731 12.488 17.1409 11.9102 16.8704C11.695 16.772 11.5168 16.7413 11.1111 16.7475C10.6562 16.7475 10.5271 16.772 10.1276 16.9503C9.18093 17.3621 9.07643 17.4052 9.0457 17.3683C8.96579 17.2884 9.23625 16.938 9.5313 16.7413C10.0108 16.4278 10.5087 16.268 11.0496 16.2557C11.4553 16.2496 11.5598 16.2741 11.9225 16.4524C12.949 16.9565 13.662 18.1858 13.5514 19.2677C13.5084 19.6795 13.1949 20.3434 12.7031 21.0564C11.1602 23.2939 10.8898 23.7549 10.7115 24.4311C10.4103 25.5867 10.9451 26.7669 12.0208 27.3079C12.2421 27.4185 12.3589 27.5291 12.4449 27.6951C12.6355 28.0947 13.1088 28.1315 13.2932 27.7689C13.3854 27.5968 13.3854 27.5414 13.2932 27.1111C13.1518 26.4596 13.1027 25.2425 13.1949 24.6647C13.5084 22.7591 14.6947 21.3023 17.092 19.9008C17.5038 19.6549 18.1308 19.2923 18.4874 19.0833C19.5508 18.4686 20.0733 17.8355 20.3007 16.8827C20.3622 16.643 20.4175 15.9484 20.4544 15.0509C20.4912 14.1104 20.5466 13.4773 20.608 13.2437C20.8355 12.3709 21.2842 11.8975 22.2001 11.5656C22.7164 11.3812 23.7737 11.2337 23.7737 11.3566ZM12.6171 23.1218C12.3281 23.7795 12.2114 24.3696 12.1745 25.3101L12.1376 26.2014L11.9347 25.9801C11.5598 25.5621 11.5106 24.929 11.8057 24.259C11.9716 23.8902 12.7093 22.71 12.7461 22.753C12.7646 22.7653 12.7031 22.9312 12.6171 23.1218Z" fill="black"/>
<path d="M5.13003 15.1492C3.52569 15.4381 1.94593 16.3786 1.12225 17.5342C-0.494391 19.8208 -0.353012 23.048 1.47262 25.5129C1.84758 26.0169 2.73274 26.9267 3.08926 27.1664C3.22449 27.2586 3.31669 27.3938 3.36587 27.5598C3.70395 28.6785 4.6014 29.4776 5.89225 29.8096C6.36556 29.9325 6.60529 29.9448 8.60304 29.9694L10.7975 30.0001L10.9573 29.8403C11.1417 29.6559 11.1602 29.3854 10.9942 29.1826L10.8774 29.035L8.70139 28.9982C6.36556 28.9551 6.0828 28.9244 5.44967 28.6048C4.82883 28.2851 4.47846 27.8487 4.26332 27.0926C4.17111 26.7791 4.12194 26.7177 3.66707 26.3611C2.42539 25.3838 1.55868 24.0868 1.17142 22.6238C1.03619 22.1198 1.0116 21.8985 1.0116 21.167C1.0116 20.1405 1.12839 19.618 1.55253 18.7636C2.0197 17.8108 2.76962 17.11 3.87606 16.5876C4.66901 16.2187 4.71819 16.2249 4.22029 16.6613C2.83724 17.86 2.01355 19.5565 2.01355 21.1977C2.01355 22.1751 2.26557 22.8451 2.89256 23.509L3.26137 23.9085L3.24908 24.2712C3.23064 24.7875 3.40275 25.0641 3.75312 25.0703C3.85148 25.0703 3.98671 25.0088 4.06047 24.9289C4.18956 24.806 4.208 24.6953 4.27561 23.7733C4.38011 22.3165 4.59525 21.5665 5.1915 20.5646C5.5849 19.8946 6.26721 19.2123 6.94952 18.7943C7.52733 18.4501 7.66871 18.3087 7.66871 18.0813C7.66871 17.8661 7.41054 17.6141 7.18925 17.6141C6.95567 17.6141 6.15042 18.0813 5.59105 18.5546C4.60755 19.3782 3.74083 20.915 3.43963 22.3656L3.38431 22.6423L3.20605 22.2734C3.06467 21.9661 3.02779 21.8063 3.00935 21.3145C2.92329 19.3352 4.31249 17.3744 6.52538 16.3355C6.81429 16.2003 7.0786 16.0405 7.11549 15.9729C7.3798 15.475 6.80199 15.0385 5.8984 15.057C5.73858 15.057 5.39435 15.1 5.13003 15.1492Z" fill="black"/>
</svg>
