<svg width="93" height="573" viewBox="0 0 93 573" fill="none" xmlns="http://www.w3.org/2000/svg">
<path d="M75.5151 7.05543C54.3197 7.05543 33.1322 6.03696 11.9168 6.03696C5.08297 6.03696 -0.945239 4 -8.00008 4" stroke="#7B1580" stroke-width="8" stroke-linecap="round"/>
<path d="M78.5708 99.8516H49.0349" stroke="#7B1580" stroke-width="8" stroke-linecap="round"/>
<path d="M81.248 121.631C60.0526 121.631 38.8651 120.612 17.6497 120.612C10.8159 120.612 4.78767 118.575 -2.26717 118.575" stroke="#7B1580" stroke-width="8" stroke-linecap="round"/>
<path d="M84.3037 214.312H54.7678" stroke="#7B1580" stroke-width="8" stroke-linecap="round"/>
<path d="M86.3408 142H32.3615" stroke="#7B1580" stroke-width="8" stroke-linecap="round"/>
<path d="M88.3774 168.48H71.0633" stroke="#7B1580" stroke-width="8" stroke-linecap="round"/>
<path d="M86.3408 192.924C67.5836 191.025 49.1055 190.887 30.3245 190.887" stroke="#7B1580" stroke-width="8" stroke-linecap="round"/>
<path d="M81.248 236.055C60.0526 236.055 38.8651 235.037 17.6497 235.037C10.8159 235.037 4.78767 233 -2.26717 233" stroke="#7B1580" stroke-width="8" stroke-linecap="round"/>
<path d="M84.3037 328.737H54.7678" stroke="#7B1580" stroke-width="8" stroke-linecap="round"/>
<path d="M86.3408 256.425H32.3615" stroke="#7B1580" stroke-width="8" stroke-linecap="round"/>
<path d="M88.3774 282.905H71.0633" stroke="#7B1580" stroke-width="8" stroke-linecap="round"/>
<path d="M86.3408 307.349C67.5836 305.45 49.1055 305.312 30.3245 305.312" stroke="#7B1580" stroke-width="8" stroke-linecap="round"/>
<path d="M81.248 358.055C60.0526 358.055 38.8651 357.037 17.6497 357.037C10.8159 357.037 4.78767 355 -2.26717 355" stroke="#7B1580" stroke-width="8" stroke-linecap="round"/>
<path d="M84.3037 450.737H54.7678" stroke="#7B1580" stroke-width="8" stroke-linecap="round"/>
<path d="M86.3408 378.425H32.3615" stroke="#7B1580" stroke-width="8" stroke-linecap="round"/>
<path d="M88.3774 404.905H71.0633" stroke="#7B1580" stroke-width="8" stroke-linecap="round"/>
<path d="M86.3408 429.349C67.5836 427.45 49.1055 427.312 30.3245 427.312" stroke="#7B1580" stroke-width="8" stroke-linecap="round"/>
<path d="M81.248 476.055C60.0526 476.055 38.8651 475.037 17.6497 475.037C10.8159 475.037 4.78767 473 -2.26717 473" stroke="#7B1580" stroke-width="8" stroke-linecap="round"/>
<path d="M84.3037 568.737H54.7678" stroke="#7B1580" stroke-width="8" stroke-linecap="round"/>
<path d="M86.3408 496.425H32.3615" stroke="#7B1580" stroke-width="8" stroke-linecap="round"/>
<path d="M88.3774 522.905H71.0633" stroke="#7B1580" stroke-width="8" stroke-linecap="round"/>
<path d="M86.3408 547.349C67.5836 545.45 49.1055 545.312 30.3245 545.312" stroke="#7B1580" stroke-width="8" stroke-linecap="round"/>
<path d="M80.6079 27.5391H26.6286" stroke="#7B1580" stroke-width="8" stroke-linecap="round"/>
<path d="M82.6445 54.0195H65.3304" stroke="#7B1580" stroke-width="8" stroke-linecap="round"/>
<path d="M80.6079 78.4632C61.8507 76.5638 43.3726 76.4263 24.5916 76.4263" stroke="#7B1580" stroke-width="8" stroke-linecap="round"/>
</svg>
