<svg width="302" height="14" viewBox="0 0 302 14" fill="none" xmlns="http://www.w3.org/2000/svg">
<path d="M2.5 9.2294C5.21645 9.17614 7.67523 8.28539 10.4169 8.43771C11.4808 8.49681 13.4879 11.654 14.3974 10.5929C18.6417 5.64118 27.8861 7.88936 33.3761 8.04186C34.5764 8.0752 35.3078 9.09705 36.4549 9.2294C37.2021 9.31562 37.033 10.3759 37.7304 10.4169C40.3865 10.5732 42.5625 7.27119 44.4378 5.8647C46.6406 4.21265 49.7913 5.93197 52.2228 6.26055C57.4775 6.97064 62.295 9.2294 67.6389 9.2294C70.2145 9.2294 71.6888 7.19308 73.5766 5.44686C74.8321 4.28554 76.9225 4.17793 78.5027 3.68754C80.5926 3.03893 82.8382 2.5 85.0341 2.5C86.3485 2.5 87.1513 3.75288 88.2669 4.28131C90.2203 5.20659 92.6745 5.61333 94.7324 6.43648C97.3136 7.46895 100.084 8.43771 102.869 8.43771C106.669 8.43771 110.27 6.85432 114.041 6.85432C116.78 6.85432 118.441 8.32956 120.88 9.42733C122.612 10.2067 124.833 11.1054 126.664 10.373C129.55 9.21847 131.595 7.36632 134.097 5.66678C134.845 5.1588 136.421 3.65135 137.176 3.37966C138.726 2.8216 141.831 3.08094 143.4 3.35767C145.893 3.79768 148.258 5.76268 150.371 7.03025C152.987 8.60012 156.05 9.68288 159.058 10.175C162.306 10.7065 165.715 10.6041 168.888 9.77919C172.477 8.84606 177.059 8.15067 179.928 5.57881C181.794 3.90501 184.935 5.33168 186.745 6.45847C189.386 8.10303 192.89 9.1042 195.761 10.329C198.456 11.478 202.276 11.6444 205.086 10.9887C211.283 9.5427 216.309 4.80275 222.569 3.29169C224.308 2.87192 225.816 2.5 227.583 2.5C229.994 2.5 231.429 3.29335 233.675 4.08339C236.68 5.1408 241.223 4.63013 243.571 6.85432C244.991 8.19953 247.168 8.36269 248.893 8.85555C249.112 8.9182 249.409 9.78271 249.707 10.0211C250.507 10.6617 251.03 10.8128 252.082 10.8128C253.565 10.8128 256.445 8.41236 257.558 7.44809C258.771 6.39645 259.005 6.06262 260.768 6.06262C262.183 6.06262 263.201 5.80485 264.243 6.76635C264.867 7.34218 266.106 7.76101 266.926 7.9539C267.568 8.10499 268.462 8.80893 268.905 8.83356C270.229 8.90708 271.583 8.83356 272.908 8.83356C275.436 8.83356 278.266 8.67549 280.583 7.64601C281.441 7.26458 285.167 4.29182 286.234 5.3589C286.622 5.74603 285.91 6.80675 286.718 6.85432C287.57 6.9044 288.439 6.85432 289.291 6.85432C290.549 6.85432 291.741 6.86165 292.986 7.07423C293.974 7.2429 298.55 7.16281 298.99 8.04186" stroke="white" stroke-width="5" stroke-linecap="round"/>
</svg>
