<svg width="388" height="87" viewBox="0 0 388 87" fill="none" xmlns="http://www.w3.org/2000/svg">
<path d="M63.814 72.6822C64.4938 65.2035 71.0862 59.5629 74.4916 53.2897C80.8647 41.5498 90.6789 31.0614 95.69 18.6657C98.8274 10.9046 105.261 -0.338156 107.938 13.641C110.782 28.4927 111.288 44.6913 111.863 59.6492C112.098 65.7466 116.626 61.0022 118.223 57.6864C122.883 48.007 128.521 37.0473 135.81 29.0294C138.31 26.2796 141.51 20.6178 145.781 20.393C152.294 20.0502 149.541 25.959 150.806 30.8351C151.189 32.3122 154.337 59.958 159.285 53.2112C165.98 44.0821 167.002 28.3175 178.599 22.9054C181.641 21.4856 185.351 20.5446 185.351 24.7112C185.351 38.3151 189.173 50.6459 195.244 62.9467C195.962 64.4026 198.778 69.2528 200.896 69.5417C206.808 70.3478 220.445 46.6766 223.508 42.8475C224.728 41.3226 235.015 27.7762 239.682 30.4426C243.245 32.479 242.598 40.3347 243.607 43.4756C246.649 52.9402 254.351 49.8262 260.566 45.831C263.416 43.9986 266.615 40.3633 270.066 42.3765C273.816 44.5639 270.128 51.0169 271.872 54.3103C274.056 58.436 299.418 54.3103 306.181 54.3103C313.37 54.3103 315.244 61.1277 321.02 54.9384C325.372 50.2763 332.518 32.5799 340.805 36.7236C354.756 43.6988 359.107 63.9355 366.871 76.1367C372.955 85.6969 378.201 69.2408 380.376 65.6161" stroke="#D13BBB" stroke-width="14" stroke-linecap="round"/>
<path d="M64.16 70.2088C62.9992 62.0829 55.1614 51.9112 48.8735 47.0207C41.8843 41.5846 32.5661 54.8402 31.0024 60.3133C27.8481 71.3535 31.8393 54.43 29.3039 51.8946C24.4944 47.0851 8.38797 63.3923 7.00195 67.5503" stroke="#D13BBB" stroke-width="14" stroke-linecap="round"/>
</svg>
