<?xml version="1.0" standalone="no"?>
<!DOCTYPE svg PUBLIC "-//W3C//DTD SVG 20010904//EN"
 "http://www.w3.org/TR/2001/REC-SVG-20010904/DTD/svg10.dtd">
<svg version="1.0" xmlns="http://www.w3.org/2000/svg"
 width="512.000000pt" height="512.000000pt" viewBox="0 0 512.000000 512.000000"
 preserveAspectRatio="xMidYMid meet">

<g transform="translate(0.000000,512.000000) scale(0.100000,-0.100000)"
fill="#000000" stroke="none">
<path d="M2495 5106 c-16 -8 -199 -131 -405 -274 l-375 -260 -8 50 c-15 103
-70 182 -152 219 -34 16 -68 19 -231 19 -188 0 -191 0 -245 -27 -60 -31 -112
-92 -129 -151 -6 -22 -10 -163 -10 -342 l0 -305 -444 -308 c-253 -175 -454
-321 -467 -338 -30 -43 -36 -116 -14 -160 10 -19 47 -76 82 -127 74 -105 112
-132 190 -132 33 0 60 8 88 25 22 13 43 25 47 25 4 0 9 -609 10 -1352 l3
-1353 34 -69 c37 -77 102 -148 171 -189 103 -60 -1 -57 1920 -57 1921 0 1817
-3 1920 57 69 41 134 112 171 189 l34 69 3 1353 c1 743 6 1352 10 1352 4 0 25
-12 47 -25 28 -17 55 -25 88 -25 78 0 116 27 190 132 35 51 72 108 82 127 24
47 16 120 -17 163 -24 31 -2377 1669 -2456 1710 -42 21 -95 23 -137 4z m1315
-1021 c619 -428 1128 -781 1132 -784 5 -4 -82 -133 -107 -159 -2 -2 -494 337
-1095 753 -601 416 -1103 761 -1117 766 -31 11 -95 12 -125 0 -13 -5 -515
-349 -1117 -766 -916 -634 -1096 -755 -1107 -743 -7 7 -33 42 -58 77 l-45 65
37 26 c20 15 291 202 602 417 311 215 832 575 1159 801 l594 411 61 -43 c34
-23 567 -393 1186 -821z m-2299 579 c21 -23 24 -36 27 -118 l4 -93 -210 -147
c-116 -80 -213 -146 -216 -146 -3 0 -6 108 -6 240 l0 241 25 24 c24 25 27 25
188 25 163 0 164 0 188 -26z m2039 -845 l970 -672 0 -1386 c-1 -1102 -4 -1393
-14 -1422 -20 -56 -61 -103 -118 -135 l-53 -29 -1775 0 -1775 0 -53 29 c-57
32 -98 79 -118 135 -10 29 -13 320 -14 1422 l0 1386 978 676 c537 372 982 674
989 672 7 -2 449 -306 983 -676z"/>
<path d="M2400 2979 c-308 -30 -622 -152 -867 -337 -90 -69 -105 -112 -54
-163 36 -35 67 -37 112 -5 195 139 323 208 483 261 321 107 651 107 972 0 160
-53 288 -122 483 -261 45 -32 76 -30 112 5 31 31 36 59 18 94 -15 27 -35 43
-140 117 -318 220 -730 327 -1119 289z"/>
<path d="M2336 2454 c-101 -18 -235 -63 -328 -110 -87 -44 -203 -121 -237
-158 -47 -50 -25 -127 39 -141 33 -7 51 1 134 62 83 61 222 127 336 159 135
37 353 45 490 16 161 -33 301 -97 455 -208 40 -29 55 -34 80 -30 43 9 69 39
69 81 0 43 -25 71 -119 135 -144 97 -311 165 -479 195 -110 19 -332 18 -440
-1z"/>
<path d="M2400 1945 c-124 -28 -238 -82 -317 -150 -36 -31 -43 -42 -43 -74 0
-26 7 -44 23 -59 38 -35 79 -29 161 26 109 73 194 97 341 97 104 -1 130 -4
192 -27 39 -14 103 -46 141 -72 49 -32 80 -46 104 -46 46 0 78 34 78 82 0 31
-7 43 -47 77 -57 49 -184 113 -268 136 -85 23 -283 29 -365 10z"/>
<path d="M2459 1435 c-193 -62 -292 -283 -208 -465 36 -77 77 -121 151 -161
59 -32 69 -34 158 -34 89 0 99 2 158 34 74 40 115 84 151 161 22 46 26 69 26
140 0 102 -28 173 -95 240 -84 84 -230 121 -341 85z m181 -178 c51 -27 90 -90
90 -145 0 -89 -80 -172 -167 -172 -60 0 -122 37 -150 90 -37 69 -28 137 25
194 56 59 130 71 202 33z"/>
</g>
</svg>
