<svg width="100" height="91" viewBox="0 0 100 91" fill="none" xmlns="http://www.w3.org/2000/svg">
<path d="M7.05044 31.2375C12.0509 35.8808 16.9587 40.8568 22.1669 45.2637C22.4595 45.5113 25.8681 48.7408 24.0233 48.7408C21.4393 48.7408 18.6054 43.8533 16.8628 42.1108C14.5124 39.7603 12.6937 38.7632 9.70244 37.1014C8.92017 36.6668 4.39844 35.4086 4.39844 33.8896C4.39844 33.6987 11.4417 38.92 13.15 39.724C16.0557 41.0913 17.9058 45.4089 20.3105 47.68C21.3839 48.6938 23.4929 47.8025 23.4929 49.8016" stroke="#F3F3F3" stroke-width="6" stroke-linecap="round"/>
<path d="M51.6996 34.0072C48.6998 31.9547 47.107 28.1517 44.5403 25.6801C42.2645 23.4886 39.6466 21.9542 37.4318 19.7394C35.2609 17.5685 33.0078 15.4015 30.9834 13.0879C28.6108 10.3764 35.9769 18.3102 38.7774 20.5772C41.4758 22.7616 43.7855 24.9294 46.2159 27.4065C47.2321 28.4422 49.121 29.7749 49.7955 31.0115C49.8678 31.144 50.3176 32.947 50.6841 32.5347C51.96 31.0994 47.3154 28.48 46.6475 28.0665C40.5568 24.2961 33.3788 21.0445 31.5927 13.9003" stroke="#F3F3F3" stroke-width="6" stroke-linecap="round"/>
<path d="M7.82961 78.3338C13.5539 78.6915 19.0955 80.4261 24.7885 81.0756C31.4343 81.8338 38.1136 81.9896 44.7938 81.9896C47.9449 81.9896 50.9647 81.4236 54.0095 80.5932C58.8871 79.263 63.7787 78.5402 68.0488 75.6935C71.5273 73.3744 74.7459 71.0754 78.0007 68.3819C82.6883 64.5024 85.5109 60.2228 88.8411 55.1296C90.8561 52.0478 91.512 47.2514 92.4715 43.756C94.2558 37.2562 94.0427 30.077 93.7155 23.3698C93.4393 17.7067 90.2438 14.1475 87.0894 9.88906C86.2262 8.7237 84.7208 8.11031 83.6875 7.04566C81.5041 4.79613 84.4602 6.72413 85.3123 7.73112C86.7792 9.46482 87.1516 11.2199 88.308 13.0371C90.1407 15.9171 91.9285 19.5912 92.7254 22.9382C93.6079 26.6445 93.5785 31.0231 93.7409 34.9211C93.8649 37.8959 94.1847 41.8805 92.5731 44.5176C91.3954 46.4447 90.6079 48.5788 89.8312 50.6868C88.7812 53.5369 84.9125 56.7835 82.8751 59.0393C79.5912 62.675 75.8278 66.8309 71.603 69.245C71.0903 69.538 71.3958 70.3771 70.6637 70.5398C69.9643 70.6952 69.6145 70.6118 68.9627 71.0222C67.0198 72.2454 64.6578 72.6072 62.6158 73.7894C59.8755 75.3759 56.8281 75.947 54.0349 77.5975C51.7917 78.923 49.0066 78.8375 46.6725 80.0601C45.1498 80.8577 44.1259 81.9146 42.3566 82.345C39.3183 83.084 35.9212 82.9006 32.7855 83.589C27.5805 84.7315 23.0857 84.2725 18.2385 82.2434C16.363 81.4584 14.4446 79.4151 12.5771 78.3084C10.41 77.0242 8.39553 75.4759 6.00171 74.678" stroke="#F3F3F3" stroke-width="12" stroke-linecap="round"/>
</svg>
