<svg width="26" height="15" viewBox="0 0 26 15" fill="none" xmlns="http://www.w3.org/2000/svg">
<path d="M15.693 0.0299149C14.5424 0.234737 13.6327 1.06005 13.3436 2.1685C13.2351 2.60826 13.2291 3.45165 13.3375 3.85527C13.4942 4.45769 13.8677 5.02396 14.2833 5.30107C14.4942 5.43963 14.5183 5.47577 14.5183 5.71072C14.5183 5.8553 14.5604 6.12638 14.6086 6.32518C14.8315 7.16857 15.1629 7.63845 15.7532 7.92761C16.1207 8.10834 16.1629 8.11436 16.699 8.09027C17.0484 8.07219 17.4039 8.01195 17.6508 7.92761L18.0424 7.79508L18.446 8.06015C19.1328 8.52401 19.4521 8.60232 20.6208 8.62039C21.5123 8.63244 21.6509 8.64449 21.7593 8.7469C21.9461 8.91558 22.0485 9.15655 22.0485 9.42161V9.6686H14.8677C10.9158 9.6686 6.01816 9.6686 3.98801 9.6686H0.295185L0.150604 9.81921L0 9.96379V12.3132V14.6626L0.14458 14.8313L0.289161 15H12.8315H25.3738L25.5184 14.8313L25.663 14.6626V12.3132V9.96379L25.5124 9.81921C25.404 9.71077 25.3016 9.6686 25.1208 9.6686H24.8799V9.04811C24.8799 8.41557 24.7714 7.81918 24.6027 7.48182C24.1329 6.56013 23.2594 6.0059 22.0907 5.89747L21.6449 5.8553L21.6087 5.39746C21.5304 4.27094 20.8376 3.34924 19.8316 3.042C19.6208 2.97574 19.3738 2.92152 19.2834 2.92152C19.1328 2.92152 19.1207 2.8914 19.0183 2.44561C18.6991 1.0239 17.7111 0.120277 16.3496 0.00581837C16.1508 -0.00623035 15.8617 -0.000205994 15.693 0.0299149ZM16.8255 1.11427C17.44 1.34319 17.8436 1.83717 18.0424 2.59019C18.0906 2.78899 18.1328 3.07815 18.1328 3.23478C18.1328 3.55406 18.2231 3.79503 18.3677 3.86129C18.4219 3.88539 18.693 3.90949 18.9762 3.91551C19.5726 3.92153 19.8497 4.03599 20.1991 4.42154C20.5304 4.78902 20.6087 5.02998 20.6449 5.78301C20.6569 6.14446 20.681 6.50591 20.6991 6.5782C20.7412 6.78904 21.0304 6.90953 21.3738 6.86133C21.5364 6.84326 21.8678 6.85531 22.1148 6.89145C22.9461 7.02399 23.4401 7.35532 23.7232 7.96978C23.8497 8.2469 23.8678 8.39148 23.8798 8.96377L23.8859 9.63848H23.4642H23.0425L23.0063 9.21076C22.9461 8.56015 22.675 8.11436 22.1569 7.8252C21.8437 7.6505 21.8256 7.6505 20.9943 7.66255C19.7955 7.68665 19.3015 7.54207 18.681 6.99387C18.5183 6.84929 18.3256 6.71073 18.2653 6.69266C18.193 6.66856 17.94 6.73483 17.6267 6.86736C16.9822 7.13242 16.4942 7.19266 16.1809 7.04808C15.7653 6.84929 15.4821 6.14446 15.4821 5.29505C15.4821 4.78902 15.3496 4.54805 15.0604 4.54805C14.94 4.54805 14.8315 4.47576 14.6689 4.30106C14.3255 3.92153 14.2532 3.69864 14.2472 3.042C14.2472 2.51188 14.2653 2.43356 14.446 2.06609C14.8857 1.17451 15.8978 0.770889 16.8255 1.11427ZM7.21697 12.3313L7.22901 14.006H4.09644H0.963869V12.3192V10.6325L4.08439 10.6445L7.19889 10.6626L7.21697 12.3313ZM21.2051 12.3192V14.006H14.699H8.19288V12.3192V10.6325H14.699H21.2051V12.3192ZM22.9521 12.3192V14.006H22.5907H22.2292V12.3192V10.6325H22.5907H22.9521V12.3192ZM24.6991 12.3192V14.006H24.3076H23.916V12.3192V10.6325H24.3076H24.6991V12.3192Z" fill="black"/>
</svg>
