<svg width="35" height="30" viewBox="0 0 35 30" fill="none" xmlns="http://www.w3.org/2000/svg">
<path d="M22.0686 0.130827C20.7534 0.481997 19.7206 1.46665 19.2661 2.78869C19.0802 3.33266 19.0802 3.35332 19.0526 5.5223C19.032 7.11978 19.0044 7.71195 18.9494 7.71195C18.8185 7.71195 17.3932 8.42117 16.9732 8.68971C16.4017 9.05465 15.8301 9.33008 15.1829 9.54354C14.6389 9.72256 14.5219 9.73633 13.4615 9.73633C12.4493 9.73633 12.2496 9.71568 11.6023 9.55042C10.5833 9.28876 9.78453 9.19925 8.77923 9.25434C4.49634 9.46091 0.970879 12.525 0.123942 16.7873C-0.041314 17.6273 -0.041314 19.3832 0.123942 20.1681C0.530196 22.0548 1.28762 23.5283 2.53393 24.8297C4.1314 26.5029 6.07316 27.4463 8.40051 27.6804C9.49534 27.7906 10.3905 27.7079 11.8089 27.3568C12.3804 27.2122 12.7041 27.1708 13.3582 27.1708C14.7009 27.164 15.6236 27.4394 16.8837 28.2175C18.1919 29.0231 19.4727 29.5395 20.9255 29.8356C22.0273 30.0559 24.1618 30.0559 25.2773 29.8287C26.379 29.6084 27.2122 29.3192 28.3001 28.7821C31.0406 27.4187 33.1751 24.933 34.1047 22.0341C35.1238 18.8392 34.7451 15.4928 33.0443 12.5801C32.3558 11.4095 31.1439 10.0668 30.0422 9.24745L29.4362 8.79988V6.43121C29.4362 3.82154 29.4569 3.6494 29.8287 3.5048C30.1937 3.36709 30.6068 3.62186 30.6068 3.97992C30.6068 4.73045 31.1645 5.47411 31.8875 5.68756C32.8309 5.9561 33.8362 5.36394 34.0427 4.40683C34.1254 4.02123 34.0496 3.23626 33.8844 2.76804C33.2922 1.09482 31.7705 0 30.0559 0C29.7736 0 29.3398 0.0482006 29.0988 0.103285C28.2381 0.309855 27.2672 0.957108 26.7852 1.65256L26.5856 1.94176L26.4478 1.74207C26.1518 1.32205 25.4563 0.709225 24.9881 0.468225C24.0998 0 23.005 -0.123941 22.0686 0.130827ZM24.3477 1.43222C25.2015 1.84536 25.8695 2.78181 25.9659 3.70449C26.0209 4.19337 25.9383 4.41371 25.6698 4.53765C25.2222 4.74422 24.9123 4.49634 24.8228 3.86286C24.7402 3.27069 24.4785 2.85067 24.0103 2.57524C23.5421 2.29293 23.1358 2.23096 22.647 2.37556C22.1787 2.51327 21.7587 2.87821 21.5453 3.33955L21.38 3.68383V8.00803V12.3322L21.2079 12.4975C21.0013 12.7109 20.6363 12.7247 20.4091 12.5388L20.2439 12.408V7.90475V3.40841L20.4022 3.00904C20.7121 2.24473 21.3869 1.5837 22.1374 1.31516C22.4404 1.20499 22.6538 1.17745 23.2047 1.19122C23.8175 1.21188 23.9415 1.23253 24.3477 1.43222ZM31.0337 1.32893C32.101 1.74207 32.7895 2.63033 32.9204 3.77335C32.9617 4.1796 32.9548 4.20026 32.7551 4.40683C32.4866 4.67537 32.2456 4.67537 31.977 4.41371C31.8256 4.26223 31.7774 4.14517 31.7774 3.94549C31.7774 3.03658 30.7445 2.16899 29.8149 2.3067C29.3536 2.38244 28.8234 2.72672 28.5755 3.12609L28.3689 3.46349L28.3345 7.8772C28.3139 10.3078 28.2726 12.346 28.2381 12.4149C28.0935 12.7109 27.5909 12.7591 27.3361 12.4975L27.164 12.3322V8.00803C27.164 5.30196 27.1915 3.56678 27.2397 3.37398C27.3912 2.70607 27.9352 1.94176 28.5204 1.57682C29.209 1.14991 30.2901 1.03974 31.0337 1.32893ZM23.5283 3.65629C23.5972 3.73203 23.666 3.91106 23.6867 4.04877C23.7556 4.4688 23.852 4.77177 23.9966 5.00588C24.3133 5.5223 25.112 5.8597 25.7042 5.72199L25.9934 5.66002V6.27284V6.88567H24.272H22.5506V5.35016C22.5506 3.7458 22.5574 3.69072 22.8604 3.51858C23.0463 3.41529 23.3837 3.48415 23.5283 3.65629ZM25.9934 8.64151V9.22679H24.272H22.5506V8.64151V8.05623H24.272H25.9934V8.64151ZM19.0389 9.57108V10.1908L18.7566 10.3285C18.6051 10.4111 18.3159 10.5764 18.1231 10.7003C17.2279 11.2718 16.1331 11.7194 15.0314 11.9535C14.2533 12.1257 12.5388 12.1188 11.8089 11.9535C10.1495 11.5679 10.0186 11.5541 8.9858 11.5886C8.17329 11.6161 7.8772 11.6505 7.36766 11.802C3.49103 12.9519 1.36336 17.0696 2.71984 20.8154C3.51169 23.005 5.25376 24.5749 7.59489 25.2153C8.0218 25.3324 8.32477 25.3599 9.19237 25.3668C10.177 25.3668 10.3285 25.353 11.1892 25.1396C11.9397 24.9537 12.2978 24.8986 13.0621 24.871C14.9694 24.8022 16.2915 25.1671 18.1437 26.2688C19.5966 27.1364 20.7534 27.5289 22.2889 27.6804C23.5903 27.8043 24.9743 27.6253 26.2688 27.1571C29.3398 26.0554 31.6603 23.2736 32.218 20.0442C32.3626 19.211 32.3626 17.703 32.2249 16.8974C31.9288 15.2036 31.0888 13.5028 29.9251 12.2427L29.4362 11.7194V11.024C29.4362 10.6315 29.4638 10.3285 29.4982 10.3285C29.6221 10.3285 30.4622 11.0859 30.9235 11.6161C32.0115 12.8693 32.7964 14.3497 33.1889 15.9059C33.4506 16.9456 33.5194 17.6824 33.4781 18.9012C33.4161 20.5744 33.1132 21.7312 32.3213 23.2804C30.7927 26.2482 27.8663 28.307 24.4923 28.789C23.7349 28.8923 21.7243 28.8303 21.0357 28.6788C19.8445 28.4171 18.4605 27.8525 17.4758 27.219C15.6374 26.0416 13.6474 25.7317 11.4164 26.2688C8.91694 26.8679 6.73418 26.5167 4.71668 25.1878C4.18649 24.8435 3.23626 23.9483 2.82312 23.4113C2.1139 22.4886 1.56305 21.2767 1.30139 20.0373C1.13614 19.2661 1.13614 17.6067 1.30139 16.8837C1.66633 15.2518 2.34113 13.9986 3.47038 12.8349C4.13829 12.1532 4.76488 11.6987 5.64625 11.2581C7.47095 10.356 9.27499 10.177 11.3958 10.6797C12.2427 10.8862 12.4217 10.9069 13.4271 10.9069C14.6389 10.9069 15.0108 10.8449 16.0643 10.4456C16.3948 10.3216 17.042 9.99799 17.5034 9.72256C18.2814 9.26122 18.8667 8.95825 18.9907 8.95137C19.0182 8.95137 19.0389 9.22679 19.0389 9.57108ZM25.9934 10.9826V11.5679H24.272H22.5506V10.9826V10.3974H24.272H25.9934V10.9826ZM19.2317 12.828C19.3763 13.1585 19.7068 13.5097 20.0304 13.6818C20.3403 13.854 21.1941 13.8471 21.5453 13.6749C21.8689 13.5166 22.2338 13.1516 22.344 12.8762L22.4266 12.6696H24.2444H26.0554L26.2964 13.0415C26.8679 13.9366 28.0591 14.1087 28.8578 13.4064L29.1815 13.1241L29.3949 13.3857C30.6963 14.9763 31.378 17.2279 31.1645 19.2248C30.8134 22.4817 28.6513 25.1878 25.6147 26.1586C24.6713 26.4616 24.1894 26.5374 23.1014 26.5374C21.3525 26.5374 20.2783 26.2137 18.4811 25.1258C16.3466 23.8382 13.792 23.3837 11.4991 23.8864C11.1617 23.9621 10.6452 24.0723 10.3629 24.1343C9.63993 24.2926 8.311 24.2444 7.64309 24.031C5.66002 23.3975 4.20714 21.8689 3.67695 19.8651C3.49792 19.1628 3.47726 17.944 3.64252 17.2555C4.13829 15.176 5.60493 13.5923 7.64309 12.9451C8.00115 12.828 8.3592 12.7798 9.02711 12.7591C9.86028 12.7247 10.0049 12.7385 10.9069 12.9382C11.444 13.0552 12.2152 13.1861 12.6214 13.2274C14.5701 13.4133 16.7941 12.8762 18.5569 11.7883L19.0044 11.5128L19.0526 12.0224C19.0802 12.3047 19.1628 12.6627 19.2317 12.828Z" fill="black"/>
<path d="M14.6664 15.1002C14.2533 15.2379 14.0123 15.3825 13.6542 15.6923C13.303 16.0022 12.945 16.1812 12.6695 16.1812C12.2151 16.1812 11.9879 16.8285 12.3253 17.1452C12.6902 17.4895 13.6404 17.2554 14.3221 16.6563C14.7834 16.257 14.9418 16.1812 15.3481 16.1812C15.651 16.1812 16.1193 16.4291 16.3878 16.7321C16.4635 16.8147 16.677 16.9593 16.8629 17.0557C17.7305 17.4964 18.7771 17.3518 19.4864 16.6908C19.8995 16.312 20.1474 16.1812 20.4641 16.1812C20.8635 16.1812 21.0701 16.2707 21.4763 16.6426C21.8826 17.0075 22.2682 17.2003 22.7708 17.276C23.3836 17.3724 23.6522 17.2003 23.6522 16.7045C23.6522 16.4291 23.4043 16.1812 23.122 16.1812C22.8534 16.1812 22.4816 15.9953 22.158 15.6923C21.9859 15.5408 21.676 15.3274 21.4625 15.231C21.132 15.0726 20.9805 15.0451 20.4848 15.0451C19.9821 15.052 19.8444 15.0795 19.5208 15.2448C19.3142 15.348 19.0044 15.5684 18.8253 15.7336C18.5499 15.9884 18.1574 16.1812 17.9027 16.1812C17.6479 16.1812 17.2829 15.9953 16.9387 15.6923C16.7114 15.4995 16.3947 15.2792 16.2226 15.2034C15.8232 15.0313 15.0313 14.9831 14.6664 15.1002Z" fill="black"/>
<path d="M7.84971 18.5501C7.38837 18.6671 7.12672 18.8117 6.70669 19.1836C6.32109 19.5279 6.12141 19.6243 5.81155 19.6243C5.56367 19.6243 5.19873 19.9479 5.19873 20.1682C5.19873 21.0289 6.45192 20.967 7.48477 20.0512C8.11825 19.4934 8.66222 19.5003 9.2957 20.0718C9.99804 20.7053 10.7899 20.9188 11.5611 20.6984C12.0155 20.5676 12.3805 20.3541 12.6353 20.0718C12.8418 19.8446 13.2825 19.6311 13.551 19.6243C13.8402 19.6243 14.2052 19.8033 14.5426 20.1131C14.9282 20.4643 15.4859 20.726 15.9679 20.7742C16.3191 20.8086 16.3604 20.8017 16.5532 20.602C16.684 20.4712 16.7667 20.3197 16.7667 20.2095C16.7667 19.9548 16.4224 19.6243 16.1538 19.6243C15.8371 19.6243 15.6099 19.5141 15.1967 19.1423C14.7147 18.7153 14.2052 18.5088 13.5992 18.5019C12.9795 18.495 12.5251 18.6671 12.0431 19.0872C11.2237 19.7964 10.7073 19.8102 9.96361 19.1285C9.38522 18.5983 8.55205 18.3711 7.84971 18.5501Z" fill="black"/>
<path d="M21.1184 18.557C20.6295 18.6947 20.4091 18.8117 19.996 19.1836C19.6104 19.5279 19.4107 19.6243 19.1009 19.6243C18.8323 19.6243 18.488 19.9548 18.488 20.2095C18.488 20.3197 18.5707 20.4712 18.7015 20.602C18.9012 20.8017 18.9287 20.8086 19.3005 20.7673C19.8239 20.7053 20.299 20.4781 20.7741 20.0512C21.4351 19.4659 21.9378 19.4865 22.6608 20.12C22.888 20.3128 23.1978 20.5332 23.3562 20.602C24.1481 20.9532 25.1465 20.781 25.8075 20.1751C26.5787 19.4728 27.1158 19.4521 27.8319 20.1131C28.2175 20.4643 28.7752 20.726 29.2572 20.7742C29.6084 20.8086 29.6497 20.8017 29.8425 20.602C29.9733 20.4712 30.056 20.3197 30.056 20.2095C30.056 19.9548 29.7117 19.6243 29.4431 19.6243C29.1264 19.6243 28.8992 19.5141 28.486 19.1423C27.5358 18.2953 26.2551 18.2747 25.3186 19.1009C24.5199 19.7964 23.9897 19.8033 23.2529 19.1285C22.6608 18.5845 21.8276 18.3642 21.1184 18.557Z" fill="black"/>
</svg>
