<?xml version="1.0" standalone="no"?>
<!DOCTYPE svg PUBLIC "-//W3C//DTD SVG 20010904//EN"
 "http://www.w3.org/TR/2001/REC-SVG-20010904/DTD/svg10.dtd">
<svg version="1.0" xmlns="http://www.w3.org/2000/svg"
 width="512.000000pt" height="512.000000pt" viewBox="0 0 512.000000 512.000000"
 preserveAspectRatio="xMidYMid meet">

<g transform="translate(0.000000,512.000000) scale(0.100000,-0.100000)"
fill="#000000" stroke="none">
<path d="M160 4467 c-49 -16 -133 -102 -148 -153 -17 -60 -17 -2648 0 -2708
16 -55 99 -138 154 -154 31 -9 289 -12 1058 -12 l1016 0 0 -159 0 -159 -127
-4 c-118 -3 -133 -6 -195 -35 -37 -17 -87 -50 -112 -74 -63 -57 -114 -163
-123 -251 -5 -62 -4 -68 20 -92 l26 -26 831 0 831 0 26 26 c24 24 25 30 20 92
-9 88 -60 194 -123 251 -25 24 -75 57 -112 74 -62 29 -77 32 -194 35 l-128 4
0 159 0 159 295 0 296 0 24 25 c33 32 33 78 0 110 l-24 25 -1631 0 -1631 0
-24 25 -25 24 0 1311 0 1311 25 24 24 25 2351 0 2351 0 24 -25 25 -24 0 -351
0 -351 25 -24 c15 -16 36 -25 55 -25 19 0 40 9 55 25 l25 24 0 352 c0 243 -4
364 -12 391 -6 22 -31 62 -55 88 -79 88 164 80 -2497 79 -1691 -1 -2371 -4
-2396 -12z m2560 -3187 l0 -160 -160 0 -160 0 0 160 0 160 160 0 160 0 0 -160z
m394 -332 c45 -13 146 -105 146 -132 0 -14 -71 -16 -700 -16 -629 0 -700 2
-700 16 0 24 101 119 140 131 52 16 1059 17 1114 1z"/>
<path d="M3840 3347 c-49 -16 -133 -102 -148 -153 -17 -60 -17 -2328 0 -2388
16 -55 99 -138 154 -154 30 -9 181 -12 556 -12 590 0 578 -2 651 80 24 26 49
66 55 88 17 57 17 2327 0 2384 -6 22 -31 62 -55 88 -73 82 -60 80 -657 79
-349 -1 -533 -5 -556 -12z m1095 -172 l25 -24 0 -1151 0 -1151 -25 -24 -24
-25 -511 0 -511 0 -24 25 -25 24 0 1151 0 1151 25 24 24 25 511 0 511 0 24
-25z"/>
<path d="M4025 3015 c-16 -15 -25 -36 -25 -55 0 -19 9 -40 25 -55 15 -16 36
-25 55 -25 19 0 40 9 55 25 16 15 25 36 25 55 0 19 -9 40 -25 55 -15 16 -36
25 -55 25 -19 0 -40 -9 -55 -25z"/>
<path d="M4345 3015 c-16 -15 -25 -36 -25 -55 0 -19 9 -40 25 -55 15 -16 36
-25 55 -25 19 0 40 9 55 25 16 15 25 36 25 55 0 19 -9 40 -25 55 -15 16 -36
25 -55 25 -19 0 -40 -9 -55 -25z"/>
<path d="M4665 3015 c-16 -15 -25 -36 -25 -55 0 -19 9 -40 25 -55 15 -16 36
-25 55 -25 19 0 40 9 55 25 16 15 25 36 25 55 0 19 -9 40 -25 55 -15 16 -36
25 -55 25 -19 0 -40 -9 -55 -25z"/>
<path d="M4025 2695 c-16 -15 -25 -36 -25 -55 0 -19 9 -40 25 -55 15 -16 36
-25 55 -25 19 0 40 9 55 25 16 15 25 36 25 55 0 19 -9 40 -25 55 -15 16 -36
25 -55 25 -19 0 -40 -9 -55 -25z"/>
<path d="M4345 2695 c-16 -15 -25 -36 -25 -55 0 -19 9 -40 25 -55 15 -16 36
-25 55 -25 19 0 40 9 55 25 16 15 25 36 25 55 0 19 -9 40 -25 55 -15 16 -36
25 -55 25 -19 0 -40 -9 -55 -25z"/>
<path d="M4665 2695 c-16 -15 -25 -36 -25 -55 0 -19 9 -40 25 -55 15 -16 36
-25 55 -25 19 0 40 9 55 25 16 15 25 36 25 55 0 19 -9 40 -25 55 -15 16 -36
25 -55 25 -19 0 -40 -9 -55 -25z"/>
<path d="M4025 2375 c-50 -49 -15 -135 55 -135 41 0 80 39 80 80 0 41 -39 80
-80 80 -19 0 -40 -9 -55 -25z"/>
<path d="M4345 2375 c-50 -49 -15 -135 55 -135 41 0 80 39 80 80 0 41 -39 80
-80 80 -19 0 -40 -9 -55 -25z"/>
<path d="M4665 2375 c-50 -49 -15 -135 55 -135 41 0 80 39 80 80 0 41 -39 80
-80 80 -19 0 -40 -9 -55 -25z"/>
<path d="M4306 2070 c-63 -16 -153 -70 -197 -117 -22 -24 -55 -74 -72 -111
-29 -61 -32 -76 -32 -163 0 -90 2 -99 37 -171 45 -91 103 -147 196 -191 61
-29 76 -32 162 -32 86 0 101 3 162 32 93 44 151 100 196 191 35 72 37 81 37
172 0 91 -2 100 -37 172 -68 136 -188 217 -336 224 -42 2 -94 -1 -116 -6z
m168 -162 c86 -26 166 -136 166 -228 0 -124 -116 -240 -240 -240 -124 0 -240
116 -240 240 0 63 23 114 75 165 70 71 145 90 239 63z"/>
<path d="M4025 1095 c-50 -49 -15 -135 55 -135 41 0 80 39 80 80 0 41 -39 80
-80 80 -19 0 -40 -9 -55 -25z"/>
<path d="M4345 1095 c-50 -49 -15 -135 55 -135 41 0 80 39 80 80 0 41 -39 80
-80 80 -19 0 -40 -9 -55 -25z"/>
<path d="M4665 1095 c-50 -49 -15 -135 55 -135 41 0 80 39 80 80 0 41 -39 80
-80 80 -19 0 -40 -9 -55 -25z"/>
</g>
</svg>
