<svg width="19" height="30" viewBox="0 0 19 30" fill="none" xmlns="http://www.w3.org/2000/svg">
<path d="M2.53201 0.113289C1.61782 0.353554 0.820845 0.980589 0.398915 1.78929C-0.0288754 2.59799 0.000425326 1.63106 0.000425326 14.998C0.000425326 28.365 -0.0288754 27.3981 0.398915 28.2068C0.668481 28.7225 1.24863 29.3144 1.74089 29.5781C1.94013 29.6836 2.30346 29.8183 2.55545 29.8828C2.99496 30 3.24108 30 12.7755 30C22.31 30 22.5561 30 22.9956 29.8828C23.2476 29.8183 23.6109 29.6836 23.8102 29.5781C24.3024 29.3144 24.8826 28.7225 25.1521 28.2068C25.5799 27.3981 25.5506 28.365 25.5506 14.998C25.5506 1.63106 25.5799 2.59799 25.1521 1.78929C24.8826 1.2736 24.3024 0.681721 23.8102 0.418015C23.6109 0.312532 23.2476 0.17775 22.9956 0.113289C22.5561 -0.00391388 22.3158 -0.00391388 12.7521 0.0019455C3.30554 0.0019455 2.94222 0.00780487 2.53201 0.113289ZM22.7553 0.963009C23.6578 1.19741 24.2966 1.79515 24.5661 2.65073C24.6599 2.95546 24.6716 3.22502 24.6716 5.04167V7.08685H12.7755H0.879446V5.04167C0.879446 3.22502 0.891167 2.95546 0.984929 2.65073C1.24864 1.80687 1.88739 1.20327 2.77227 0.963009C3.24694 0.839945 22.2631 0.834085 22.7553 0.963009ZM24.6716 17.0784V26.1909H22.7846C20.927 26.1909 20.8977 26.1909 20.7629 26.3198C20.5695 26.4956 20.5812 26.7886 20.7805 26.9469C20.9328 27.0641 21.0032 27.0699 22.7846 27.0699H24.6247L24.5896 27.2575C24.4255 28.0779 23.5992 28.8631 22.6909 29.0565C22.2514 29.1503 3.29968 29.1503 2.86017 29.0565C1.95185 28.8631 1.12557 28.0779 0.961488 27.2575L0.920467 27.0699H10.1267C16.8835 27.0699 19.374 27.0523 19.4795 27.0055C19.6846 26.9117 19.7725 26.6363 19.6612 26.4253C19.6143 26.3374 19.5323 26.2495 19.4854 26.2261C19.4326 26.2085 15.2251 26.1909 10.1326 26.1909H0.879446V17.0784V7.96588H12.7755H24.6716V17.0784Z" fill="black"/>
<path d="M4.33111 2.18788C2.92467 2.56293 2.46172 4.26237 3.48139 5.28203C3.77439 5.56918 4.04396 5.70982 4.46003 5.786C5.58518 5.99111 6.62242 5.12381 6.62242 3.98108C6.62242 3.11964 6.04227 2.3754 5.22185 2.18202C4.82336 2.09412 4.68271 2.09412 4.33111 2.18788ZM5.19255 3.0962C5.51485 3.2427 5.70238 3.51227 5.73168 3.89318C5.802 4.76634 4.82922 5.26445 4.1553 4.70188C3.62789 4.25651 3.73337 3.41265 4.34869 3.10792C4.65927 2.95556 4.8761 2.95556 5.19255 3.0962Z" fill="black"/>
<path d="M9.37071 2.18194C8.46825 2.43392 7.93498 3.16058 7.98186 4.0689C8.02874 4.95378 8.62061 5.6277 9.49964 5.78592C10.572 5.98517 11.5683 5.19991 11.6503 4.0982C11.6855 3.60009 11.5624 3.20746 11.2518 2.81483C10.8357 2.28742 9.99775 2.00613 9.37071 2.18194ZM10.2615 3.11956C11.0467 3.53563 10.9061 4.67836 10.0388 4.91276C9.23593 5.13545 8.56201 4.22712 8.98394 3.48875C9.13045 3.22504 9.52894 2.98477 9.81608 2.98477C9.92157 2.98477 10.1208 3.04338 10.2615 3.11956Z" fill="black"/>
<path d="M15.4127 2.24052C15.2486 2.32842 15.1021 2.46321 15.02 2.60971C14.897 2.82653 14.8853 2.90858 14.8853 3.96926C14.8853 5.21161 14.9087 5.30537 15.2369 5.58666C15.5533 5.85037 15.7115 5.86209 18.5361 5.84451C21.4955 5.82693 21.3959 5.83865 21.724 5.405L21.8881 5.19403L21.9057 4.04544C21.9233 2.74449 21.8998 2.64487 21.4896 2.3167L21.2611 2.13504L18.4658 2.11746L15.6764 2.09988L15.4127 2.24052ZM21.0267 3.9634C21.0384 4.91274 21.0384 4.9186 20.9095 4.94791C20.8333 4.96549 19.6554 4.97135 18.2841 4.96549L15.7936 4.94791L15.776 4.03958C15.7701 3.54147 15.776 3.10196 15.7877 3.06094C15.8112 2.99648 16.3268 2.98476 18.4131 2.99648L21.0091 3.01406L21.0267 3.9634Z" fill="black"/>
<path d="M11.8378 9.0499C11.7909 9.06162 11.5507 9.10265 11.3104 9.13781C10.3318 9.29603 8.91946 9.89376 8.11662 10.4856C7.66539 10.8197 7.57163 11.0482 7.78259 11.2943C7.9877 11.5463 8.1342 11.517 8.78468 11.0951C10.0856 10.263 11.287 9.89962 12.7754 9.89962C15.3539 9.89962 17.6921 11.2533 19.0106 13.5036C20.2764 15.6719 20.2764 18.4613 19.0048 20.653C16.9244 24.2511 12.248 25.3587 8.80226 23.0674C7.45443 22.1708 6.45234 20.8522 5.95423 19.3344C5.68466 18.4906 5.60262 17.9749 5.60262 17.049C5.60262 15.877 5.84875 14.8456 6.35858 13.8259C6.53438 13.4802 6.63987 13.3161 7.10868 12.6304C7.2962 12.3609 7.31378 12.1148 7.1497 11.9507C6.97389 11.7749 6.70433 11.7983 6.49922 12.0151C6.24724 12.2847 5.84875 12.9117 5.54988 13.5036C4.09657 16.3927 4.55366 19.9029 6.69847 22.3817C7.74157 23.5831 9.23591 24.509 10.7713 24.9016C11.9667 25.2063 13.5841 25.2063 14.7796 24.9016C17.0299 24.3214 18.9696 22.7451 20.0068 20.6471C20.587 19.4634 20.8214 18.4496 20.8214 17.0783C20.8214 15.707 20.587 14.6932 20.0068 13.5095C18.911 11.2943 16.8717 9.7121 14.4163 9.16711C14.0178 9.0792 12.0839 8.9913 11.8378 9.0499Z" fill="black"/>
<path d="M11.6037 11.1596C9.22449 11.6694 7.37854 13.4919 6.87457 15.836C6.71635 16.5626 6.73393 17.7933 6.90973 18.4789C7.47231 20.6647 8.98422 22.2294 11.1642 22.8916C11.6564 23.0381 11.7619 23.0498 12.7757 23.0498C13.7895 23.0498 13.895 23.0381 14.3873 22.8916C16.2098 22.3349 17.6221 21.0984 18.3136 19.4517C19.8079 15.9122 17.71 11.9448 13.936 11.1654C13.3793 11.0482 12.137 11.0482 11.6037 11.1596ZM14.2408 12.1441C14.8971 12.3609 15.2018 12.5074 15.6824 12.8356C16.5028 13.404 17.2529 14.3475 17.5869 15.2324C17.7393 15.6367 17.9327 16.5275 17.9327 16.8556V17.1018L17.6572 16.9728C17.4287 16.8674 17.2705 16.8439 16.7899 16.8439C16.2039 16.8439 16.2039 16.8439 15.6355 17.1311C15.0963 17.4006 15.0436 17.4124 14.7213 17.3889C14.4752 17.3655 14.2466 17.2834 13.8892 17.1018C13.3969 16.8439 13.3852 16.8439 12.7757 16.8439H12.1604L11.6096 17.1193C10.8595 17.5003 10.6602 17.5003 9.90427 17.1252C9.35341 16.8439 9.34169 16.8439 8.76154 16.8439C8.28101 16.8439 8.12278 16.8674 7.9001 16.9728L7.61881 17.1018V16.8556C7.61881 16.5275 7.8122 15.6367 7.96456 15.2324C8.51541 13.7791 9.82808 12.5777 11.3576 12.1324C11.9436 11.9624 11.9729 11.9566 12.9222 11.98C13.6665 11.9917 13.8657 12.021 14.2408 12.1441ZM9.52922 17.9222C10.4727 18.391 11.0294 18.3969 11.9084 17.9632C12.3538 17.7405 12.5062 17.6936 12.7757 17.6936C13.0453 17.6936 13.1977 17.7405 13.643 17.9632C14.5221 18.3969 15.0788 18.391 16.0223 17.9222C16.6962 17.5882 17.2001 17.6175 17.7217 18.0159C17.833 18.098 17.833 18.1097 17.7276 18.4848C17.247 20.2604 15.6706 21.7313 13.8306 22.118C13.2973 22.2294 12.26 22.2294 11.7326 22.118C10.1738 21.7957 8.81428 20.7233 8.12864 19.2876C8.0173 19.059 7.87666 18.6957 7.82392 18.4848C7.70085 18.0452 7.71257 18.0335 8.17552 17.8108C8.57401 17.6175 8.98422 17.6526 9.52922 17.9222Z" fill="black"/>
</svg>
