<svg width="37" height="28" viewBox="0 0 37 28" fill="none" xmlns="http://www.w3.org/2000/svg">
<path d="M17.0546 0.0388432C11.1421 0.371333 5.61264 2.81441 1.21076 7.04282C0.00367568 8.19931 -0.177025 8.57517 0.133781 9.26183C0.495183 10.0569 1.70227 10.0931 2.20823 9.32688C2.27328 9.22569 2.72142 8.78478 3.2057 8.34387C7.18113 4.70093 11.995 2.6554 17.3148 2.35182C23.6032 1.99042 29.7832 4.36844 34.3947 8.92211C35.3488 9.86176 35.5729 9.99186 36.0789 9.87621C36.4619 9.78948 36.7511 9.55095 36.8884 9.21846C37.1631 8.53903 36.9824 8.19208 35.7608 7.01391C30.6867 2.12052 24.0658 -0.344243 17.0546 0.0388432Z" fill="#3D3D3D"/>
<path d="M17.1632 7.45482C14.2503 7.7584 11.7855 8.56071 9.47253 9.95572C8.07752 10.8014 5.86574 12.6879 5.42483 13.4107C5.10679 13.9384 5.29472 14.6756 5.82237 14.9792C6.37893 15.3045 6.9138 15.1671 7.47759 14.56C10.6724 11.1339 15.3345 9.34134 19.8809 9.79671C22.8661 10.1003 25.5694 11.1845 27.8607 13.0132C28.1426 13.2373 28.7425 13.7866 29.1979 14.242C29.8701 14.9069 30.0869 15.0732 30.3038 15.1093C31.1133 15.2611 31.7277 14.7768 31.7277 13.9745C31.7277 13.5553 31.5542 13.2951 30.723 12.4711C28.0992 9.85453 24.7237 8.1704 20.9579 7.59215C20.2279 7.48373 17.7703 7.38977 17.1632 7.45482Z" fill="#3D3D3D"/>
<path d="M17.0476 14.9285C15.1756 15.2249 13.4697 16.0127 12.0169 17.2632C10.9688 18.1595 10.5352 18.7449 10.5352 19.2581C10.5352 19.7135 10.752 20.0821 11.1351 20.2773C11.735 20.5881 12.1109 20.4435 12.9349 19.5979C13.7372 18.7739 14.3371 18.3329 15.2551 17.8993C16.4983 17.3138 17.0115 17.2054 18.5005 17.2054C19.5774 17.2126 19.8521 17.2343 20.3508 17.3716C21.7965 17.7619 22.7216 18.304 23.8637 19.4099C24.3335 19.8653 24.8105 20.2773 24.919 20.3279C25.3743 20.5303 26.0321 20.3279 26.2923 19.9014C26.4947 19.5762 26.5091 18.9546 26.3212 18.6799C25.4828 17.4439 23.6685 16.0923 21.9772 15.4562C20.9002 15.0514 20.1412 14.9141 18.7534 14.8924C18.0379 14.8779 17.2717 14.8924 17.0476 14.9285Z" fill="#3D3D3D"/>
<path d="M17.8496 22.3445C16.6352 22.6697 15.8112 23.9419 16.0353 25.149C16.4112 27.1801 18.8615 27.9462 20.2854 26.4789C21.6154 25.1128 20.9648 22.8215 19.1145 22.3373C18.594 22.2072 18.37 22.2072 17.8496 22.3445ZM18.6446 24.6502C18.7531 24.7803 18.6808 24.9032 18.5001 24.9032C18.4278 24.9032 18.3411 24.8671 18.3194 24.8309C18.2688 24.7514 18.4061 24.5418 18.5001 24.5418C18.529 24.5418 18.594 24.5924 18.6446 24.6502Z" fill="#3D3D3D"/>
<circle cx="18.5125" cy="24.8062" r="0.740484" fill="#3D3D3D"/>
</svg>
