<svg width="32" height="33" viewBox="0 0 32 33" fill="none" xmlns="http://www.w3.org/2000/svg">
<path d="M0.108931 0.173187C0.173008 0.275711 2.97958 4.35742 6.34363 9.25931C9.70767 14.1612 12.463 18.1981 12.463 18.2301C12.463 18.2685 9.70126 21.5108 6.31799 25.4452C2.94114 29.3731 0.134562 32.641 0.0833001 32.6987C0 32.8012 0.0897078 32.8076 1.40329 32.8076H2.81298L8.25312 26.4832C11.2455 23.0102 13.7253 20.1524 13.7573 20.146C13.7958 20.1332 15.7822 22.9782 18.1722 26.464L22.5231 32.8076H27.2904C31.8078 32.8076 32.0513 32.8012 31.9937 32.6923C31.9616 32.6346 29.0461 28.3863 25.5219 23.2601C21.9976 18.134 19.1078 13.9241 19.1078 13.9049C19.1078 13.8793 21.7862 10.7523 25.0605 6.95254L31.0069 0.0322189L29.6292 0.0129929C28.4951 0.000179291 28.2323 0.0129929 28.149 0.0898857C28.0914 0.141148 25.7526 2.85161 22.9524 6.10672C20.1522 9.36824 17.839 12.021 17.8134 12.0082C17.7878 11.989 15.9167 9.28494 13.6548 5.99138L9.54107 0.000179291H4.76733H0L0.108931 0.173187ZM18.1466 16.3783C23.6252 24.2213 28.1234 30.661 28.1298 30.6995C28.149 30.7379 27.3737 30.7507 25.9896 30.7443L23.8238 30.7251L13.8406 16.4488C8.34924 8.59291 3.85744 2.15317 3.85744 2.14035C3.85744 2.12754 4.83141 2.11472 6.02324 2.11472L8.18264 2.12113L18.1466 16.3783Z" fill="#1D7C2B"/>
</svg>
