<svg xmlns="http://www.w3.org/2000/svg" width="52" height="41" viewBox="0 0 52 41">
  <g fill="none" fill-rule="evenodd">
    <path fill="#FFF" d="M37.4824554,23.6433106 C38.4258348,22.2784441 39.1390931,20.5529521 39.5966938,18.9177731 C39.9706407,17.5770956 40.1605494,16.1931802 40.1605494,14.804427 C40.1605494,12.3214222 39.5350541,9.84506932 38.3527479,7.64265737 C36.485655,4.17818227 33.4253954,1.66917422 29.7343573,0.576434392 C22.1066032,-1.67768166 14.1195783,2.88044034 11.9304919,10.736133 C10.7123759,15.10679 11.4875673,19.9315026 14.0573517,23.6433106 L0.443926024,23.6433106 C0.198752451,23.6433106 0,23.8410472 0,24.0822558 L0,39.3028691 C0,39.5452918 0.197324919,39.7418142 0.445666157,39.7418142 L11.3686909,39.7418142 C11.3719197,39.8609452 11.3942273,39.980681 11.442952,40.0952765 C11.9818582,41.3648987 13.6440728,40.973641 14.2710357,40.8248784 L16.3359623,40.3187228 L17.8619828,39.9422809 L18.6735709,39.7418142 L51.145519,39.7418142 C51.3887294,39.7418142 51.5858898,39.5440776 51.5858898,39.3028691 L51.5858898,24.0822558 C51.5858898,23.839833 51.3865194,23.6433106 51.148337,23.6433106 L37.4824554,23.6433106 Z M15.7638881,23.4380997 C13.8107933,20.9986351 12.7746609,17.982262 12.7746609,14.9105564 C12.7746609,13.6805438 12.9410878,12.4408556 13.2783445,11.2241469 C15.2558017,4.13857272 22.4614712,0.0288550245 29.3427991,2.06285082 C32.676621,3.05097306 35.4371947,5.31476471 37.1149659,8.43726729 C38.1980618,10.4500977 38.7484154,12.6636971 38.7484154,14.902695 C38.7484154,16.139662 38.5808144,17.3850951 38.240329,18.6069439 C37.737526,20.4047942 36.9004014,22.0230409 35.7583077,23.4380997 L15.7638881,23.4380997 L15.7638881,23.4380997 Z"/>
    <path fill="#ED1B2E" d="M11.9304919,10.736133 C14.1195783,2.88044034 22.1066032,-1.67768166 29.7343573,0.576434392 C33.4253954,1.66917422 36.485655,4.17818227 38.3527479,7.64265737 C39.5350541,9.84506932 40.1605494,12.3214222 40.1605494,14.804427 C40.1605494,16.1931802 39.9706407,17.5770956 39.5966938,18.9177731 C39.1390931,20.5529521 38.4258348,22.2784441 37.4824554,23.6433106 L37.4824554,23.6433106 L51.148337,23.6433106 C51.3865194,23.6433106 51.5858898,23.839833 51.5858898,24.0822558 L51.5858898,24.0822558 L51.5858898,39.3028691 C51.5858898,39.5440776 51.3887294,39.7418142 51.145519,39.7418142 L51.145519,39.7418142 L18.6735709,39.7418142 L17.8619828,39.9422809 L16.3359623,40.3187228 L14.2710357,40.8248784 C13.6440728,40.973641 11.9818582,41.3648987 11.442952,40.0952765 C11.3942273,39.980681 11.3719197,39.8609452 11.3686909,39.7418142 L11.3686909,39.7418142 L0.445666157,39.7418142 C0.197324919,39.7418142 0,39.5452918 0,39.3028691 L0,39.3028691 L0,24.0822558 C0,23.8410472 0.198752451,23.6433106 0.443926024,23.6433106 L0.443926024,23.6433106 L14.0573517,23.6433106 C11.4875673,19.9315026 10.7123759,15.10679 11.9304919,10.736133 Z M27.9312519,30.8326887 C27.5620014,30.0365669 26.7304538,29.9252974 26.1360719,30.0740599 C25.6499996,30.1950051 25.2164677,30.4166372 24.8304864,30.7032773 C24.8304864,30.7017655 24.8304864,30.6984395 24.8293123,30.6969277 C24.7174805,30.5433273 24.4982196,30.5545147 24.3784627,30.5895888 C24.175639,30.653085 23.3710955,31.0597633 22.6857218,31.1982455 C22.6792643,31.1510769 22.6719262,31.1023965 22.6557825,31.0519018 C22.494639,30.3416512 21.7423423,29.8345885 21.2550959,30.2669675 C21.18876,30.3247189 21.1423835,30.3927505 21.1059868,30.4695507 C20.7329204,30.4849712 20.2603502,30.7428869 20.1335487,30.8456903 C19.3994504,31.4219941 18.8951797,32.4013478 18.7672041,33.4445001 C18.6553723,34.3760805 19.207487,35.1864133 20.1385386,35.1957866 C21.3070493,35.206974 21.9624837,34.4453216 22.4171492,33.4330103 C22.6437482,32.930483 22.7717237,32.349039 22.7453067,31.7431036 C23.0931302,31.6753743 23.419233,31.5583598 23.7544351,31.4498115 C23.6986659,31.5556386 23.6499413,31.6605585 23.6038583,31.7579194 C23.3975124,32.1594575 23.210539,32.5773231 23.0385351,33.0033525 C22.4691026,34.1459823 22.1071901,35.5816017 21.7350043,36.9310477 C20.8177483,37.1366545 19.9066563,37.3480062 18.9982059,37.5651029 C17.7956466,37.8502312 16.5966096,38.1450351 15.4125422,38.4712848 C14.821389,38.6342584 14.238748,38.8162809 13.6361475,38.9393427 C13.6361475,38.9393427 13.2296196,39.0067696 13.0511583,38.9955822 C12.9410876,38.9889302 12.8615432,38.932086 12.8615432,38.8843126 C12.9293468,38.7809045 12.8841444,38.6926145 12.7141952,38.6926145 C12.3575661,38.6850554 12.1870298,38.8528668 12.1066048,39.0270279 C12.0388013,39.1715574 11.9988823,39.3947013 12.0702081,39.5646293 C12.4708655,40.5067924 13.877129,40.1415379 14.4380494,40.0088005 C15.6206492,39.7339526 16.7918017,39.4243329 17.9717598,39.1395069 C19.0924264,38.8731252 20.2072227,38.5925323 21.3255412,38.3143584 C21.3211384,38.3267552 21.3170291,38.3391522 21.3129198,38.3530608 C21.0707642,39.0868958 21.9527976,39.3448114 22.3954286,39.0811509 C22.6017745,38.9571821 22.6998108,38.7234555 22.8007824,38.4966833 C22.8330698,38.4546548 22.9763085,38.0609782 23.0226849,37.9040518 C23.7118744,37.7350309 24.396661,37.5611722 25.0873181,37.4042458 C27.5270723,36.8436648 30.0419681,36.4793174 32.6094043,36.3024351 C33.8920951,36.2138427 35.2111826,36.2207971 36.5399563,36.3571628 C37.166332,36.4254968 37.7971107,36.5346498 38.4281828,36.6837148 C38.8015427,36.7732142 39.3715622,36.8309656 39.6788797,37.1560058 C40.1508629,37.6530905 41.0393538,36.9549344 40.5274516,36.5204388 C39.8124321,35.9145034 38.7501763,35.8310512 37.9600153,35.6810792 C36.6928812,35.4416076 35.438075,35.4001839 34.1994125,35.373576 C31.5559541,35.3170341 28.9612204,35.6212113 26.4357578,36.0112595 C25.4046153,36.1712095 24.3858007,36.3674431 23.3710955,36.577283 C23.5959332,35.6336081 23.8096172,34.6515332 24.0702647,33.8378744 C24.2143839,33.3949126 24.3722987,32.9561839 24.5222884,32.5165481 C24.6587761,32.311546 24.8011342,32.1168243 24.9616907,31.9414537 C25.3042308,31.5656165 25.7057688,31.2345291 26.19008,31.0519018 C27.0885505,30.7174884 26.9552916,31.8997276 26.794148,32.3393634 C26.4125696,33.3864464 25.4509917,34.1009302 24.4004768,34.4577185 C24.0024611,34.595596 24.0488376,35.1782495 24.7010432,35.1298714 C26.2417398,35.0158806 27.3747344,34.1883131 27.9603106,32.7687189 C28.1980634,32.1866701 28.252952,31.5199597 27.9312519,30.8326887 Z M13.3094576,27.2696433 C12.3053191,26.3226424 10.4558375,26.6104919 9.47430025,26.81882 C8.04103272,27.1226948 6.54729968,27.8743692 5.36205818,28.8416284 C4.50145191,29.5361562 2.95782015,31.21034 4.49470091,32.5228977 C5.07734191,33.0230062 5.94557975,33.1049465 6.57342313,33.1164363 C7.33159024,33.1239954 8.08535452,33.1088772 8.84939208,33.1239954 C9.29378428,33.1312521 10.0220121,33.1004111 10.4044712,33.5509319 C10.3927303,33.5494201 10.4646432,33.677622 10.4590663,33.6458739 C10.5060298,33.850876 10.4904731,33.7441419 10.4514347,33.9394683 C10.3595623,34.391501 9.78220472,34.965386 9.34925991,35.3255002 C8.67210482,35.8993852 7.90425149,36.348999 7.08826057,36.7142535 C6.65326109,36.9077658 6.20593369,37.059552 5.74363667,37.1892657 C5.14837422,37.3086991 4.83665394,37.3746142 4.30097644,37.3307716 C3.99160434,37.3041636 3.46003615,37.1977318 3.26190885,36.8270348 C3.22081578,36.7553748 3.15154461,36.6837148 3.07346778,36.6831101 C2.47791181,36.665573 2.69541155,37.5354713 3.19351825,37.760127 C4.23141175,38.5638078 5.93442592,38.0930287 6.78534596,37.8456958 C8.45548565,37.3561701 10.1643703,36.516508 11.3331745,35.2302559 C11.7350061,34.7894107 12.1192262,34.1638217 12.0035786,33.42273 C11.8089736,32.1712496 10.2944005,31.8011573 9.41911811,31.7258689 C8.71202384,31.6629774 8.00610362,31.6947255 7.31192426,31.6998657 L7.31192426,31.6998657 L7.03749177,31.6996343 C6.46269681,31.6932892 5.25218314,31.6371902 5.38025653,31.2230393 C5.58807005,30.5333493 6.21209765,30.0057259 6.72987031,29.6129564 C7.39939379,29.1037771 7.94328991,28.7654329 8.7249388,28.4346478 C9.55942161,28.0872328 10.6287219,27.7830556 11.5970508,27.838388 C11.9645402,27.8598558 12.5662601,27.8592511 12.7200656,28.3895957 C12.8459865,28.8334646 12.5794686,29.4487733 12.3417158,29.710922 L12.3417158,29.710922 L12.3161805,29.7592775 C12.237453,29.9631393 12.4344913,30.2768525 12.7200656,30.1451153 C13.5078784,29.7810702 14.3444159,28.2465781 13.3094576,27.2696433 Z M48.9659131,34.1665429 C48.2820071,34.1665429 47.7037691,34.7083774 47.7037691,35.4434218 C47.7037691,36.1848159 48.2820071,36.7266503 48.9659131,36.7266503 C49.6433617,36.7266503 50.2218936,36.1848159 50.2218936,35.4434218 C50.2218936,34.7083774 49.6433617,34.1665429 48.9659131,34.1665429 Z M48.9659131,34.3800112 C49.5280077,34.3800112 49.9718128,34.837184 49.9718128,35.4434218 C49.9718128,36.0596376 49.5280077,36.5131821 48.9659131,36.5131821 C48.3973612,36.5131821 47.9535561,36.0596376 47.9535561,35.4434218 C47.9535561,34.837184 48.3973612,34.3800112 48.9659131,34.3800112 Z M49.0316622,34.7083774 L48.4862981,34.7083774 L48.4862981,36.1848159 L48.7029174,36.1848159 L48.7029174,35.5447134 L48.9527047,35.5447134 L49.3310545,36.1848159 L49.5740904,36.1848159 L49.1666823,35.5347354 C49.3768438,35.5075228 49.5379872,35.3923225 49.5379872,35.1283596 C49.5379872,34.837184 49.3703866,34.7083774 49.0316622,34.7083774 L49.0316622,34.7083774 Z M48.9990812,34.897959 C49.1499513,34.897959 49.3110951,34.9318236 49.3110951,35.1147533 C49.3110951,35.3415255 49.1467225,35.3551318 48.9626842,35.3551318 L48.9626842,35.3551318 L48.7029174,35.3551318 L48.7029174,34.897959 Z M18.1596138,25.7194282 C17.4322665,25.4506275 16.6438666,26.244028 16.220608,26.6494968 C15.5246675,27.3162072 14.9710852,28.1631259 14.4720979,29.0154871 C14.124568,29.6114446 13.8322202,30.238243 13.5733338,30.8859046 C13.3135669,31.0265033 13.0279701,31.1577289 12.7869886,31.1840344 C12.5900354,31.2088282 12.5231124,31.5036321 12.7902174,31.5583598 C12.966624,31.5955505 13.1386279,31.5985741 13.3035872,31.5858749 C13.2563302,31.7110531 13.2108343,31.835022 13.1676865,31.9632239 C13.0135875,32.4019525 12.8368873,32.8391694 12.7347417,33.3075297 C12.638173,33.7568411 12.4658756,34.2902094 12.5389626,34.7842705 C12.5768269,35.0727248 12.8374744,35.2090905 13.0634863,35.2559568 C13.8242951,35.4156045 14.1680092,34.479791 14.5416626,34.0425741 C15.2235141,33.2485689 16.4953445,32.3587146 17.0433499,32.2625632 C17.0515686,32.2625632 17.0583195,32.256516 17.0638965,32.249864 C16.9670343,32.6293295 16.8951214,33.0296581 16.876336,33.429382 C16.8182186,34.4543925 17.3832483,35.4382816 18.4044111,35.1516415 C19.0008476,34.9844348 18.8696433,34.59227 18.403824,34.5293785 C17.6292197,34.425668 18.3451196,32.2764719 18.4096945,31.8232298 C18.4543098,31.4966778 18.2350489,31.1510769 17.9124683,31.0304341 C17.6036833,30.9146291 17.2934306,31.0180372 17.0592001,31.0691365 C16.669403,31.1525887 15.9863775,31.5187503 15.5918841,31.7258689 C15.1480789,31.9632239 14.8859639,32.1866701 14.4958732,32.5005229 C14.3306204,32.6241893 14.179163,32.7620669 14.0309345,32.9017586 C14.0667442,32.7817205 14.1028474,32.6665202 14.1360154,32.5516222 C14.272503,32.0874951 14.4166223,31.627601 14.5777658,31.1825226 C15.3550119,30.8030571 16.0512458,30.2642462 16.7002228,29.7057818 C17.3339366,29.163645 17.9198064,28.5365442 18.3647856,27.7936383 C18.631597,27.3446293 19.0997645,26.0686575 18.1596138,25.7194282 Z M34.2857079,25.9341059 C33.1641607,25.9198949 32.0264697,26.0686575 31.0461066,26.478964 C30.5397812,26.6948512 29.2879103,27.2572464 29.4487603,28.0678815 C29.5174444,28.4348422 30.0001801,28.3911832 30.1033384,28.1359013 L30.1033384,28.1359013 L30.1200449,28.0733241 L30.1200449,28.0733241 C30.1467554,27.9847317 30.6830199,27.7621926 30.7487688,27.7180476 C31.0842644,27.5206045 31.480519,27.4171964 31.8597493,27.3092528 C31.9830285,27.2729692 32.1136458,27.2481755 32.2430889,27.2209628 C32.1644251,27.3406986 32.0875223,27.4634579 32.0120872,27.569285 C31.5310048,28.2447639 31.0883737,28.9522933 30.7050341,29.7091078 C30.5911476,29.9343682 30.482838,30.1662807 30.3768766,30.4033332 C29.8523529,30.4190561 29.3656936,30.5233714 28.9703195,30.764657 C28.6850163,30.944563 28.6624151,31.3512412 28.9873438,31.6248797 C29.2077788,31.8099258 29.5142157,31.869189 29.8224137,31.869189 C29.5482642,32.7375755 29.3521916,33.6525259 29.2835074,34.5865251 C29.2403597,35.1534557 30.0061584,35.1204982 30.1579092,34.8012029 C30.5038458,34.0962652 30.7638223,33.3405737 31.0127169,32.5782046 L31.3108633,31.6629774 C31.4532214,31.6563254 31.5988083,31.6520924 31.7399924,31.6463475 C32.4415098,31.7748517 33.1359826,32.0055547 33.8237045,32.3021728 C34.4814871,32.5845798 35.1131462,32.9722092 35.7257265,33.3997504 C36.341242,33.8327342 36.9188931,34.3878727 37.5799045,34.683886 C38.0386792,34.8855621 38.5855106,34.4196208 38.2368065,33.9134651 C37.747799,33.1932365 36.7785896,32.6940352 36.0976188,32.2480498 C35.5155648,31.872515 34.8994623,31.5595693 34.2839468,31.3007466 C35.2094214,31.1036059 36.0929224,30.8148493 36.9089133,30.3857962 C37.607202,30.0235653 38.8091742,29.2156514 38.7407836,28.1885244 C38.6151562,26.2140941 35.438075,25.9498288 34.2857079,25.9341059 Z M44.825493,25.7451291 C44.7638534,25.4031565 44.336192,25.4473015 44.2041071,25.5969712 C43.7042393,26.1629947 43.3335211,26.8907824 42.9901004,27.6140347 C42.9666187,27.6197796 42.9393212,27.6255245 42.9152524,27.6336883 C42.7409003,27.6814616 40.8438682,28.351498 40.8086456,28.1029556 C40.7795869,27.9151882 40.5359637,27.8982559 40.4476136,27.9711254 C40.0146688,28.3025152 40.3498708,28.8440473 40.8735139,29.0339313 C41.3422684,29.2020451 41.9158102,29.0690054 42.4262448,28.9014963 C42.4183197,28.918731 42.4112752,28.9386869 42.4054048,28.9574334 C41.8356787,29.7459961 41.2090094,30.475598 40.5171783,31.1311209 C40.2421482,31.3932696 39.9536162,31.6333459 39.6603878,31.872515 C39.5180297,31.9964838 39.3674529,32.1068463 39.2080705,32.2081379 C39.1822406,32.2238608 39.1567042,32.2401884 39.1390929,32.25319 C38.8884252,31.6629774 39.247696,30.6769717 39.4904386,30.2137516 C39.5015924,30.1956099 39.509224,30.1774681 39.521552,30.1560003 C39.5274224,30.139068 39.5379892,30.1206239 39.54973,30.1061104 C39.6283939,29.9676282 39.5635256,29.8418452 39.4514002,29.7544623 C39.3674529,29.6522636 39.2344875,29.6005595 39.0677671,29.6861282 C38.2115636,30.115786 37.7137504,31.3784539 37.8537604,32.5071749 C37.9374141,33.1572553 38.518294,33.5560721 39.0589614,33.5590957 C39.7123412,33.5657477 40.1966523,33.1088772 40.6281296,32.7118746 C40.9862263,32.3774612 41.3243636,32.0197658 41.6428348,31.6399978 C41.5125111,32.3061035 41.5086953,33.0048644 41.8494743,33.7272095 C42.3737044,34.8474644 43.7256664,34.8078548 44.2410909,34.5556841 C44.5234589,34.4196208 44.5519305,33.8874619 44.1412934,33.9004635 C42.4106882,33.956703 43.0535012,31.1671021 43.2416487,30.2769455 C43.3763753,29.6371454 43.5868305,29.0402809 43.8025691,28.4455329 C44.4653416,28.2650222 45.160108,28.1328896 45.8446011,28.0391571 C46.2373334,27.9853364 46.694347,27.9179095 47.1090935,28.0176893 C47.449579,28.1029556 47.682342,28.1201903 47.9556106,27.9632639 C48.1138189,27.8701361 48.2687988,27.586822 48.1302561,27.3540025 C47.8854591,26.933718 47.3251256,26.8590343 46.9547008,26.8590343 C46.2288213,26.8569178 45.5408059,26.9548834 44.8589545,27.1039483 C44.6857766,27.1450697 44.5143597,27.1928431 44.3438235,27.236081 C44.3678923,27.1892147 44.3916676,27.1396272 44.416617,27.093668 C44.6165054,26.7102717 44.9129625,26.2591462 44.825493,25.7451291 Z M47.8922101,29.6341218 C47.2731724,29.2918469 46.4642259,29.4315386 45.9420504,29.6513565 C45.2734074,29.9274139 44.7086713,30.3622119 44.304198,30.9790324 C43.9158686,31.5771064 43.633207,32.6771029 44.3241576,33.4330103 C45.4721218,34.6947711 47.6215828,34.1868013 48.3594969,33.2204492 C48.5946077,32.9147602 48.111471,32.6501926 47.8710764,32.8355411 C47.2555608,33.3132746 46.0679713,33.3973315 45.4515752,33.018773 C45.2402394,32.8902688 45.1953306,32.8183064 45.1228307,32.6813359 C45.6062613,32.6786147 46.0230624,32.5803467 46.352981,32.4878236 C47.0826764,32.2794956 47.8508236,31.8830977 48.2737883,31.240274 C48.5855088,30.7628428 48.5526345,30.0014928 47.8922101,29.6341218 Z M21.1004099,31.1160028 C21.2142964,31.4229012 21.4743568,31.6965397 21.81132,31.7763635 C21.7487998,32.1906008 21.6877473,32.5141292 21.5213203,32.868801 C21.3369886,33.2470571 20.9090336,33.9827063 20.4743276,34.0833931 C20.030816,34.1849871 19.9862007,33.9273738 20.0061602,33.4974137 C20.0284678,33.0290534 20.1904919,32.5821609 20.3692468,32.192415 C20.491939,31.9348017 20.6522019,31.6965397 20.8212706,31.4746053 C20.8694081,31.413528 20.9835882,31.2230393 21.1004099,31.1160028 Z M47.1040633,30.4165488 L47.1851701,30.4244106 C47.5278437,30.4838846 47.379684,30.8524934 47.1903993,31.1160028 C46.847859,31.5828513 45.8795302,32.0717722 45.1110898,32.0617942 C45.2960086,31.5021203 45.8487104,30.9868938 46.0838214,30.8281532 C46.3582645,30.6346409 46.6588309,30.4432452 47.0069478,30.4190561 L47.0069478,30.4190561 L47.1040633,30.4165488 Z M34.0175703,27.0686055 L34.3350196,27.0791546 C34.7573977,27.0994129 37.9042461,27.5405605 37.1569394,28.4712338 C36.2235397,29.6280745 34.6998674,30.0453355 33.2489886,30.3135314 C32.7558717,30.4066592 32.2595262,30.4695507 31.7596583,30.5251855 C31.7429276,30.5233714 31.7314802,30.5215571 31.7176847,30.5191382 C31.9768646,29.8506137 32.3117731,29.2331885 32.6302444,28.6094136 C32.8785639,28.1362156 33.2510432,27.6394332 33.3807799,27.0791546 C33.6977836,27.0649435 34.0188965,27.0625246 34.3350196,27.0791546 Z M17.4886227,26.7749774 C17.625991,26.6948512 17.7956466,26.6283314 17.8062134,26.7012008 C17.8170737,26.8381713 17.6855759,27.0921562 17.6855759,27.0921562 C17.5435113,27.3954263 17.2843314,27.7023247 17.1005867,27.9711254 C16.7022775,28.5398702 16.220608,29.0067186 15.7060641,29.4454473 C15.5231999,29.6005595 15.3309431,29.7478103 15.1416215,29.890828 C15.7219143,28.7040533 16.4498486,27.4737383 17.4886227,26.7749774 Z M40.9639186,26.6195628 C40.7080409,26.3071967 40.3231705,26.4140442 40.1260547,26.5881988 L40.1260547,26.5881988 L40.0692671,26.6450576 C40.0280113,26.6867994 39.8336636,26.8871205 39.6771186,27.1118098 C39.6216429,27.1858887 39.5526652,27.281133 39.4904386,27.4117539 C39.3425035,27.7104885 39.16052,28.1818724 39.2764611,28.5238449 C39.2937789,28.5785726 39.3715622,28.5568025 39.38888,28.5365442 C39.623404,28.3176334 39.8109645,28.0449019 40.0366829,27.8268982 C40.1529176,27.7041389 40.2847089,27.6037543 40.4059335,27.5242329 C40.4884131,27.4667839 40.5532815,27.4422925 40.5923199,27.4305004 C40.6428056,27.4211271 40.6909433,27.4117539 40.7443642,27.3875648 C40.9738984,27.2762952 41.2509831,26.9666755 40.9639186,26.6195628 Z M29.3427991,2.06285082 C22.4614712,0.0288550245 15.2558017,4.13857272 13.2783445,11.2241469 C12.9410878,12.4408556 12.7746609,13.6805438 12.7746609,14.9105564 C12.7746609,17.982262 13.8107933,20.9986351 15.7638881,23.4380997 L15.7638881,23.4380997 L35.7583077,23.4380997 C36.9004014,22.0230409 37.737526,20.4047942 38.240329,18.6069439 C38.5808144,17.3850951 38.7484154,16.139662 38.7484154,14.902695 C38.7484154,12.6636971 38.1980618,10.4500977 37.1149659,8.43726729 C35.4371947,5.31476471 32.676621,3.05097306 29.3427991,2.06285082 Z"/>
    <path fill="#FFF" fill-rule="nonzero" d="M35.7583077,23.4380997 C36.9004014,22.0230409 37.737526,20.4047942 38.240329,18.6069439 C38.5808144,17.3850951 38.7484154,16.139662 38.7484154,14.902695 C38.7484154,12.6636971 38.1980618,10.4500977 37.1149659,8.43726729 C35.4371947,5.31476471 32.676621,3.05097306 29.3427991,2.06285082 C22.4614712,0.0288550245 15.2558017,4.13857272 13.2783445,11.2241469 C12.9410878,12.4408556 12.7746609,13.6805438 12.7746609,14.9105564 C12.7746609,17.982262 13.8107933,20.9986351 15.7638881,23.4380997 L35.7583077,23.4380997"/>
    <path fill="#F4B827" fill-rule="nonzero" d="M37.1149659,8.43726729 C38.1303683,10.3242958 38.6775402,12.3877814 38.7419703,14.4832233 L38.7484154,14.902695 C38.7484154,16.139662 38.5808144,17.3850951 38.240329,18.6069439 C37.7762031,20.266498 37.0272116,21.7730171 36.0164407,23.1079515 L35.7583077,23.4380997 L15.7638881,23.4380997 C13.8107933,20.9986351 12.7746609,17.982262 12.7746609,14.9105564 C12.7746609,13.6805438 12.9410878,12.4408556 13.2783445,11.2241469 C13.7201382,9.64112306 14.4228943,8.20663694 15.3246931,6.95601524 L19.6096609,8.97142907 L19.237133,8.59147238 L19.5086609,8.28642907 L15.4236962,6.82355603 L15.3783691,6.88211491 C15.8079341,6.29496196 16.2816144,5.74896786 16.792889,5.24785292 L16.8766609,5.16342907 L16.825667,5.2161188 C16.8045701,5.23758657 16.7834365,5.25912993 16.7618626,5.28029533 L20.0096609,7.72342907 L20.2996823,7.39774334 L22.8389404,10.1649694 L22.0452572,11.0560331 L25.1031685,10.300428 C24.6176833,10.2330011 24.2252444,9.84355753 24.1137061,9.30172305 C23.971935,8.62140635 24.326216,7.96467391 24.9881079,7.81953969 C25.6485322,7.67259129 26.3685415,8.09196874 26.5082579,8.77500672 C26.616861,9.29053562 26.362084,9.80666925 25.9473375,10.0914952 L25.9473375,10.0914952 L31.5029406,8.71732732 C31.4841902,8.66045607 31.4646806,8.60389479 31.444416,8.54762975 L35.6644637,6.26643853 C36.1009899,6.7990855 36.4994252,7.37010755 36.8557146,7.97618663 L36.9986609,8.22942907 L32.2126609,9.13842907 L32.1986609,9.75542907 L37.0696609,8.35642907 L36.9986609,8.22942907 L36.9999054,8.22984627 L37.0706609,8.35642907 L37.0696609,8.35642907 L37.0896609,8.39142907 L37.1149659,8.43726729 Z M26.9556609,19.3724291 L26.4876609,19.4754291 L27.2508684,23.4347737 L27.3113339,23.4347737 L26.9556609,19.3724291 Z M25.0266609,19.7974291 L24.6056609,19.8904291 L24.4864789,23.4347737 L24.554576,23.4347737 L25.0266609,19.7974291 Z M22.9966445,20.2433359 C22.8705585,20.2660674 22.7498108,20.2801402 22.6344016,20.2864186 L21.8729598,23.4347737 L21.8911582,23.4347737 Z M28.6556609,18.9974291 L28.1896609,19.0994291 L29.9565534,23.3368081 L28.6556609,18.9974291 Z M20.8417753,19.2715954 L19.1637525,22.6604221 L21.0285592,19.6160828 C20.9652644,19.5294156 20.9132904,19.438572 20.8726371,19.3462214 C20.8618846,19.3216046 20.8515942,19.2967191 20.8417753,19.2715954 Z M30.5436609,18.5804291 L30.1456609,18.6684291 L32.5816609,22.1724291 L30.5436609,18.5804291 Z M20.5176609,16.4974291 L16.9423786,21.0412683 L20.7846609,16.9754291 L20.5176609,16.4974291 Z M32.5136609,17.9534291 L32.5524613,18.1382813 L32.3186609,18.1884291 L34.6913555,20.4193076 L32.5136609,17.9534291 Z M19.7646609,15.1524291 L14.9728466,19.1853643 L20.0476609,15.6574291 L19.7646609,15.1524291 Z M24.0946609,17.0704291 L23.3456609,17.3454291 L22.9276609,19.0734291 L23.0394159,19.053534 L23.4386609,18.9654291 L24.0946609,17.0704291 Z M30.3601829,14.7697264 L24.7096609,16.8444291 L24.6466609,18.6984291 L25.1856609,18.5794291 L25.4052026,16.8979883 C25.5369939,16.9070592 25.6693723,16.9188514 25.8035118,16.9188514 C25.867206,16.9188514 25.9300198,16.9112923 25.9931269,16.9091758 L26.2686609,18.3404291 L26.8546609,18.2114291 L26.7351504,16.8375157 C26.8951198,16.8112101 27.0527411,16.7797644 27.2086012,16.7425738 L27.7386609,18.0164291 L28.3236609,17.8874291 L27.9139344,16.5194299 C28.1067783,16.445351 28.2943388,16.361294 28.4774965,16.2684686 L29.4326609,17.6424291 L29.9476609,17.5294291 L29.0451679,15.9379859 C29.2162912,15.8249021 29.3818375,15.7051664 29.5397523,15.575755 L31.3006609,17.2304291 L31.7806609,17.1244291 L30.024944,15.1373287 C30.1412225,15.0196219 30.2534006,14.8970243 30.3601829,14.7697264 Z M31.1816609,14.4664291 L30.4576609,14.7324291 L36.5883876,18.4107103 L31.1816609,14.4664291 Z M19.0276609,13.8354291 L13.5446609,16.7424291 L19.3106609,14.3414291 L19.0276609,13.8354291 Z M32.1166609,13.3374291 L32.1026609,13.9334291 L37.8499448,15.881444 L32.1166609,13.3374291 Z M18.3246609,12.5804291 L12.7972621,14.2468697 L12.7972621,14.2659185 L18.6076609,13.0854291 L18.3246609,12.5804291 Z M32.1496609,11.9014291 L32.1346609,12.5574291 L38.6594783,13.373343 C38.6594783,13.3721336 38.6583042,13.3715288 38.6583042,13.3709241 L32.1496609,11.9014291 Z M14.0911067,9.04985467 C14.0696796,9.09551148 14.0482525,9.13995883 14.027706,9.18470858 L19.793357,10.4174425 C19.7892477,10.5160128 19.7792679,10.6130713 19.7792679,10.7122464 C19.7792679,10.7672765 19.7851384,10.8198876 19.786606,10.8724988 L18.9246609,10.9394291 L19.2776609,11.5694291 L19.8447233,11.5788187 L19.8476609,11.5994291 L21.7332434,11.1337404 L19.9426609,9.31042907 L19.9128938,9.44455176 C19.8926408,9.54512525 19.8746626,9.64671921 19.8588124,9.74952263 L14.0911067,9.04985467 Z M16.5106609,11.1274291 L13.2395996,11.3828875 C13.2316745,11.4134262 13.2249235,11.4448719 13.2167049,11.4763176 L16.7356609,11.5304291 L16.5106609,11.1274291 Z M32.1826609,10.4644291 L32.1676609,11.1224291 L38.0413211,10.5855563 C38.0316349,10.5577389 38.0213616,10.5308286 38.0122624,10.5027088 L32.1826609,10.4644291 Z M34.0926609,4.65542907 L33.9853597,4.56231698 C34.555684,5.04324276 35.0858821,5.57499709 35.5706034,6.15320179 L31.2049021,7.97676845 C31.1065723,7.77176632 30.9991433,7.57069498 30.8802669,7.37929918 L34.0926609,4.65542907 Z M18.463714,3.86132561 L21.058143,6.89884443 C20.931048,7.06544644 20.8130522,7.24051459 20.7021009,7.42193236 L16.8912756,5.15242009 C17.3834854,4.67993453 17.9095176,4.24849363 18.463714,3.86132561 Z M32.2991338,3.35880443 C32.7920761,3.65362893 33.264168,3.98100025 33.7129665,4.33891932 L33.9769231,4.55462417 L30.5380203,6.88251682 C30.3827472,6.67872415 30.2177879,6.48339767 30.0387396,6.30107278 L32.2991338,3.35880443 Z M20.2906609,2.79642907 L21.9847917,5.91314109 C21.8033951,6.06643911 21.6337394,6.23304112 21.4717153,6.40659748 L18.6254333,3.75033865 L18.8492004,3.60209239 C19.2239627,3.35963822 19.61047,3.13686164 20.0070869,2.93469571 L20.2906609,2.79642907 Z M30.365723,2.41298716 L30.6882564,2.54344355 C31.1923745,2.75555253 31.6801766,2.99854661 32.1496054,3.2707425 L29.6104911,5.9046749 C29.4035581,5.72960675 29.1822426,5.57479689 28.9547631,5.43026739 L30.365723,2.41298716 Z M22.1579696,2.07252644 L23.0725839,5.1868652 C22.8738696,5.28997097 22.6810256,5.40305471 22.4964003,5.52793064 L20.4889765,2.70149841 C20.9795364,2.47652709 21.4840033,2.28242559 21.9994594,2.12085873 L22.1579696,2.07252644 Z M28.5136609,1.84842907 L28.4048562,1.82368132 C28.7178257,1.89095946 29.0306461,1.97058406 29.3427991,2.06285082 C29.6257231,2.14670757 29.9045185,2.23975173 30.1788739,2.34172844 L28.4252496,5.13153276 C28.2150879,5.02721755 27.9987622,4.93348499 27.7762726,4.85426591 L28.5136609,1.84842907 Z M24.2363673,1.63624642 L24.4386349,4.67224336 C24.1621372,4.73906562 23.8932712,4.82493671 23.6332108,4.92894958 L22.3699329,2.01088005 C22.9795229,1.8399465 23.6032299,1.71417734 24.2363673,1.63624642 Z M26.374313,1.55727378 C27.0158718,1.58856924 27.6615685,1.6696208 28.3068615,1.80301971 L27.2018502,4.68131428 C26.9188951,4.61207317 26.629189,4.56067146 26.3330253,4.53436588 L26.374313,1.55727378 Z M26.1613764,1.54870519 L25.7445139,4.50957209 C25.5005972,4.51199099 25.2610833,4.53255171 25.0247981,4.56399742 L24.4459254,1.6122389 C25.0117721,1.55222982 25.5846937,1.53042174 26.1613764,1.54870519 Z"/>
    <path fill="#110B00" fill-rule="nonzero" d="M25.8540151,4.30855085 L25.7867811,3.83439555 L28.2508975,4.17455391 L27.1504839,6.921824 L27.0709818,6.90551522 L26.8936522,7.3481558 L25.9399995,7.15585294 L25.5296559,4.26405336 L25.8540151,4.30855085 Z M28.2527413,7.08984033 C28.400525,6.71570999 28.7200672,6.42073205 29.1338115,6.32889019 C29.7933552,6.18587248 30.4437998,6.61522795 30.5858644,7.29917299 C30.670106,7.70703417 30.5532877,8.10992279 30.3049931,8.39944734 C30.1579587,8.77547284 29.8384602,9.0716274 29.4249852,9.16293845 C28.7622127,9.30777029 28.1120617,8.87357707 27.9720517,8.19114382 C27.8861631,7.78386634 28.0031223,7.37972863 28.2527413,7.08984033 Z M22.158825,5.75781279 C22.2925247,5.40339036 22.5810728,5.12798995 22.9821791,5.04052149 C23.6426034,4.89417782 24.3611451,5.3126482 24.500568,5.99568618 C24.5811647,6.38330505 24.4583737,6.77219435 24.2158941,7.06224507 C24.0564307,7.46046706 23.7018384,7.77983138 23.2742334,7.87456975 C22.6138091,8.02000636 22.0279393,7.57009025 21.8873423,6.88795934 C21.7996989,6.46171613 21.9051688,6.04554384 22.158825,5.75781279 Z M31.6422498,18.0221739 C32.0517129,18.1524923 32.3854473,18.4935578 32.482016,18.9594991 C32.622613,19.6410253 32.2014091,20.3101546 31.5427458,20.457103 C30.8787993,20.6016325 30.2274741,20.1689511 30.085116,19.4859131 C29.9908955,19.0245072 30.1590835,18.5700556 30.4807836,18.277973 L24.2657505,19.6497938 C24.6646468,19.7888808 24.9948589,20.1169447 25.0849702,20.5550686 C25.2246866,21.2368971 24.7374402,21.9223541 24.0755482,22.068093 C23.4139499,22.2153438 22.8307218,21.7648229 22.6886572,21.0823897 C22.5947302,20.6282405 22.7247604,20.1883023 23.0156406,19.9001504 C21.9915426,20.0065822 21.3575353,19.5173589 21.1191955,18.9749197 C20.8503294,18.3659606 20.8685278,17.5891901 21.3161487,17.1162944 L18.1968913,11.5440469 L17.3048782,11.7387687 L16.7527635,10.7503441 L18.9940968,10.2556783 L19.9489236,11.95647 L32.3469959,9.04410981 L32.3455283,13.7588558 L22.4432729,17.4727804 C21.9856722,17.6517792 21.8849942,18.1171159 21.9915426,18.4276427 C22.1092449,18.756916 22.5436574,19.1720603 23.0394159,19.053534 L32.5515807,16.8465866 L32.7972586,17.7663748 L31.6422498,18.0221739 Z M20.5201173,7.03158178 L23.0584948,9.79941251 L22.0793057,10.8991067 L19.4575679,8.22742737 L20.5201173,7.03158178 Z M25.718684,9.92217188 C25.056792,10.0697251 24.4744445,9.62071601 24.3317929,8.93707327 C24.1911959,8.25464002 24.5445963,7.59911707 25.2076623,7.4551923 C25.8689672,7.30642973 26.5878024,7.72701663 26.730454,8.40914754 C26.871051,9.0912784 26.3811629,9.77673532 25.718684,9.92217188 Z"/>
  </g>
</svg>