<svg width="24" height="19" viewBox="0 0 24 19" fill="none" xmlns="http://www.w3.org/2000/svg">
<path d="M1.71526 0.0798445C0.520035 0.370448 -0.229909 1.58911 0.0700687 2.74683C0.163812 3.09837 0.337236 3.4171 0.571594 3.66083C0.782516 3.87644 10.7662 10.5556 11.1318 10.7197C11.6895 10.9728 12.3504 10.9634 12.9222 10.6962C13.3675 10.4853 23.1496 3.93737 23.398 3.68426C24.5651 2.49373 23.9277 0.468878 22.2591 0.0751572C21.8185 -0.0279608 2.14648 -0.0232735 1.71526 0.0798445Z" fill="#F5E7B9"/>
<path d="M0 10.5228C0 14.3194 0.0140615 16.0584 0.0515587 16.2318C0.224983 17.0567 0.890559 17.7317 1.73893 17.9332C2.17953 18.0363 21.739 18.0363 22.2312 17.9332C23.0842 17.7551 23.7732 17.0708 23.9467 16.2318C24.0076 15.9459 24.0217 5.04824 23.9607 5.07636C23.942 5.08105 21.6781 6.59031 18.9267 8.42768C16.1754 10.265 13.7755 11.8446 13.5881 11.9337C13.0725 12.1961 12.6319 12.2946 11.9991 12.2946C11.3663 12.2946 10.9258 12.1961 10.4102 11.9337C10.2227 11.8446 7.82286 10.265 5.0715 8.42768C2.32014 6.59031 0.0562458 5.08105 0.0374972 5.07636C0.0140615 5.06699 0 7.51837 0 10.5228Z" fill="#F5E7B9"/>
</svg>
