<svg width="14" height="19" viewBox="0 0 14 19" fill="none" xmlns="http://www.w3.org/2000/svg">
<path d="M6.14103 0.0404282C4.59071 0.244694 3.16076 0.957767 2.05183 2.07937C0.931952 3.21583 0.238867 4.67912 0.0491811 6.29839C-0.0493098 7.14888 -0.00188821 7.90652 0.209685 8.80528C0.833461 11.4347 2.86529 14.703 5.94769 18.0344C6.74292 18.8923 6.85965 19 7.00191 19C7.14053 19 7.35575 18.7957 8.20204 17.8673C11.5982 14.1385 13.5972 10.6771 13.9473 7.92137C14.2136 5.82301 13.4585 3.62808 11.941 2.07937C10.8978 1.01719 9.61739 0.344971 8.11084 0.0775681C7.64757 -0.00785255 6.63713 -0.0264225 6.14103 0.0404282ZM7.78254 3.95119C8.96808 4.28173 9.80343 5.13964 10.1208 6.35781C10.2193 6.74034 10.2156 7.51655 10.1098 7.91394C9.89462 8.71986 9.41311 9.41065 8.7638 9.83775C6.68455 11.2082 3.95964 9.81547 3.79913 7.30486C3.74077 6.38381 4.08001 5.48504 4.73662 4.81282C5.21813 4.32629 5.7653 4.02918 6.43285 3.89919C6.77575 3.83234 7.44694 3.85834 7.78254 3.95119Z" fill="#C95B5B"/>
</svg>
