<svg width="38" height="35" viewBox="0 0 38 35" fill="none" xmlns="http://www.w3.org/2000/svg">
<path d="M0.12418 27.7801C0.327888 28.3184 0.473396 28.5294 1.46285 29.7008C2.62691 31.0831 3.04889 31.5269 3.6673 32.0362C5.59528 33.6149 7.82155 34.4807 10.3825 34.648C12.6379 34.7935 14.8205 34.408 17.4542 33.4112C18.3709 33.062 20.699 31.8616 21.8049 31.1704C26.2065 28.4203 30.9719 24.0187 33.6492 20.25C37.4397 14.8953 38.2473 9.59884 35.9555 5.09536C35.4535 4.11319 34.9515 3.40747 33.933 2.26524C32.3324 0.468212 31.9468 0.162644 31.1392 0.031689C29.8151 -0.179298 28.6874 0.62827 26.2283 3.5166C24.4749 5.56827 23.7838 6.90694 23.7838 8.18741C23.7911 9.42423 24.2349 10.1663 26.2065 12.2325C26.7521 12.8 27.2396 13.3748 27.3269 13.5639C28.1272 15.1863 27.1523 17.3326 24.3731 20.1045C22.3141 22.1562 19.9642 23.975 18.2326 24.8626C16.5884 25.6993 15.337 25.8739 14.3112 25.3937C13.8601 25.1827 13.5109 24.8554 12.958 24.106C12.4123 23.3712 11.1973 21.9961 10.8117 21.676C10.6371 21.5378 10.2734 21.3122 10.0042 21.1885C9.58948 20.9994 9.39304 20.9485 8.84011 20.9194C7.95978 20.8757 7.23224 21.0576 6.0609 21.6251C5.04962 22.1125 2.9252 23.4366 1.9794 24.1715C0.335163 25.4447 -0.29052 26.6597 0.12418 27.7801Z" fill="#FEB787"/>
</svg>
